<ttFont>
<head>
    <!-- Most of this table will be recalculated by the compiler -->
    <tableVersion value="1.0"/>
    <fontRevision value="2.004"/>
    <checkSumAdjustment value="0xce962293"/>
    <magicNumber value="0x5f0f3cf5"/>
    <flags value="00001000 00000011"/>
    <unitsPerEm value="1000"/>
    <created value="Thu Apr 29 08:53:59 2021"/>
    <modified value="Wed Mar 25 22:29:26 2026"/>
    <xMin value="-991"/>
    <yMin value="-1050"/>
    <xMax value="2930"/>
    <yMax value="1810"/>
    <macStyle value="00000000 00000000"/>
    <lowestRecPPEM value="6"/>
    <fontDirectionHint value="2"/>
    <indexToLocFormat value="0"/>
    <glyphDataFormat value="0"/>
  </head>
    <TTGlyph name="A" xMin="11" yMin="0" xMax="563" yMax="726">
      <contour>
        <pt x="11" y="0" on="1"/>
        <pt x="270" y="726" on="1"/>
        <pt x="303" y="726" on="1"/>
        <pt x="563" y="0" on="1"/>
        <pt x="523" y="0" on="1"/>
        <pt x="372" y="435" on="1"/>
        <pt x="349" y="501" on="0"/>
        <pt x="309" y="620" on="0"/>
        <pt x="289" y="688" on="1"/>
        <pt x="285" y="688" on="1"/>
        <pt x="265" y="620" on="0"/>
        <pt x="224" y="501" on="0"/>
        <pt x="201" y="435" on="1"/>
        <pt x="48" y="0" on="1"/>
      </contour>
      <contour>
        <pt x="123" y="258" on="1"/>
        <pt x="123" y="290" on="1"/>
        <pt x="447" y="290" on="1"/>
        <pt x="447" y="258" on="1"/>
      </contour>
    </TTGlyph>
    <TTGlyph name="B" xMin="110" yMin="0" xMax="582" yMax="726">
      <contour>
        <pt x="110" y="0" on="1"/>
        <pt x="110" y="726" on="1"/>
        <pt x="300" y="726" on="1"/>
        <pt x="373" y="726" on="0"/>
        <pt x="478" y="688" on="0"/>
        <pt x="536" y="610" on="0"/>
        <pt x="536" y="550" on="1"/>
        <pt x="536" y="512" on="0"/>
        <pt x="510" y="448" on="0"/>
        <pt x="460" y="403" on="0"/>
        <pt x="422" y="392" on="1"/>
        <pt x="422" y="387" on="1"/>
        <pt x="494" y="376" on="0"/>
        <pt x="582" y="287" on="0"/>
        <pt x="582" y="211" on="1"/>
        <pt x="582" y="142" on="0"/>
        <pt x="516" y="48" on="0"/>
        <pt x="396" y="0" on="0"/>
        <pt x="313" y="0" on="1"/>
      </contour>
      <contour>
        <pt x="147" y="404" on="1"/>
        <pt x="278" y="404" on="1"/>
        <pt x="397" y="404" on="0"/>
        <pt x="498" y="481" on="0"/>
        <pt x="498" y="548" on="1"/>
        <pt x="498" y="628" on="0"/>
        <pt x="390" y="694" on="0"/>
        <pt x="285" y="694" on="1"/>
        <pt x="147" y="694" on="1"/>
      </contour>
      <contour>
        <pt x="147" y="33" on="1"/>
        <pt x="300" y="33" on="1"/>
        <pt x="413" y="33" on="0"/>
        <pt x="545" y="118" on="0"/>
        <pt x="545" y="209" on="1"/>
        <pt x="545" y="292" on="0"/>
        <pt x="416" y="371" on="0"/>
        <pt x="300" y="371" on="1"/>
        <pt x="147" y="371" on="1"/>
      </contour>
    </TTGlyph>
    <TTGlyph name="C" xMin="62" yMin="-13" xMax="575" yMax="739">
      <contour>
        <pt x="362" y="-13" on="1"/>
        <pt x="295" y="-13" on="0"/>
        <pt x="185" y="40" on="0"/>
        <pt x="105" y="140" on="0"/>
        <pt x="62" y="279" on="0"/>
        <pt x="62" y="365" on="1"/>
        <pt x="62" y="451" on="0"/>
        <pt x="106" y="589" on="0"/>
        <pt x="186" y="687" on="0"/>
        <pt x="299" y="739" on="0"/>
        <pt x="368" y="739" on="1"/>
        <pt x="431" y="739" on="0"/>
        <pt x="525" y="686" on="0"/>
        <pt x="553" y="653" on="1"/>
        <pt x="530" y="628" on="1"/>
        <pt x="501" y="662" on="0"/>
        <pt x="419" y="704" on="0"/>
        <pt x="368" y="704" on="1"/>
        <pt x="285" y="704" on="0"/>
        <pt x="165" y="621" on="0"/>
        <pt x="101" y="469" on="0"/>
        <pt x="101" y="365" on="1"/>
        <pt x="101" y="261" on="0"/>
        <pt x="165" y="107" on="0"/>
        <pt x="283" y="22" on="0"/>
        <pt x="364" y="22" on="1"/>
        <pt x="421" y="22" on="0"/>
        <pt x="511" y="68" on="0"/>
        <pt x="552" y="114" on="1"/>
        <pt x="575" y="90" on="1"/>
        <pt x="534" y="42" on="0"/>
        <pt x="433" y="-13" on="0"/>
      </contour>
    </TTGlyph>
    <TTGlyph name="D" xMin="110" yMin="0" xMax="599" yMax="726">
      <contour>
        <pt x="110" y="0" on="1"/>
        <pt x="110" y="726" on="1"/>
        <pt x="273" y="726" on="1"/>
        <pt x="386" y="726" on="0"/>
        <pt x="530" y="636" on="0"/>
        <pt x="599" y="474" on="0"/>
        <pt x="599" y="365" on="1"/>
        <pt x="599" y="257" on="0"/>
        <pt x="530" y="92" on="0"/>
        <pt x="386" y="0" on="0"/>
        <pt x="274" y="0" on="1"/>
      </contour>
      <contour>
        <pt x="147" y="33" on="1"/>
        <pt x="268" y="33" on="1"/>
        <pt x="371" y="33" on="0"/>
        <pt x="500" y="119" on="0"/>
        <pt x="560" y="270" on="0"/>
        <pt x="560" y="365" on="1"/>
        <pt x="560" y="461" on="0"/>
        <pt x="500" y="609" on="0"/>
        <pt x="371" y="693" on="0"/>
        <pt x="268" y="693" on="1"/>
        <pt x="147" y="693" on="1"/>
      </contour>
    </TTGlyph>
    <TTGlyph name="E" xMin="110" yMin="0" xMax="511" yMax="726">
      <contour>
        <pt x="110" y="0" on="1"/>
        <pt x="110" y="726" on="1"/>
        <pt x="500" y="726" on="1"/>
        <pt x="500" y="693" on="1"/>
        <pt x="147" y="693" on="1"/>
        <pt x="147" y="404" on="1"/>
        <pt x="443" y="404" on="1"/>
        <pt x="443" y="371" on="1"/>
        <pt x="147" y="371" on="1"/>
        <pt x="147" y="33" on="1"/>
        <pt x="511" y="33" on="1"/>
        <pt x="511" y="0" on="1"/>
      </contour>
    </TTGlyph>
    <TTGlyph name="F" xMin="110" yMin="0" xMax="498" yMax="726">
      <contour>
        <pt x="110" y="0" on="1"/>
        <pt x="110" y="726" on="1"/>
        <pt x="498" y="726" on="1"/>
        <pt x="498" y="693" on="1"/>
        <pt x="147" y="693" on="1"/>
        <pt x="147" y="390" on="1"/>
        <pt x="443" y="390" on="1"/>
        <pt x="443" y="358" on="1"/>
        <pt x="147" y="358" on="1"/>
        <pt x="147" y="0" on="1"/>
      </contour>
    </TTGlyph>
    <TTGlyph name="G" xMin="62" yMin="-13" xMax="581" yMax="739">
      <contour>
        <pt x="368" y="-13" on="1"/>
        <pt x="276" y="-13" on="0"/>
        <pt x="138" y="81" on="0"/>
        <pt x="62" y="251" on="0"/>
        <pt x="62" y="365" on="1"/>
        <pt x="62" y="451" on="0"/>
        <pt x="107" y="589" on="0"/>
        <pt x="191" y="687" on="0"/>
        <pt x="307" y="739" on="0"/>
        <pt x="379" y="739" on="1"/>
        <pt x="452" y="739" on="0"/>
        <pt x="545" y="683" on="0"/>
        <pt x="573" y="653" on="1"/>
        <pt x="550" y="628" on="1"/>
        <pt x="522" y="659" on="0"/>
        <pt x="440" y="704" on="0"/>
        <pt x="379" y="704" on="1"/>
        <pt x="293" y="704" on="0"/>
        <pt x="168" y="621" on="0"/>
        <pt x="101" y="469" on="0"/>
        <pt x="101" y="365" on="1"/>
        <pt x="101" y="261" on="0"/>
        <pt x="166" y="107" on="0"/>
        <pt x="287" y="22" on="0"/>
        <pt x="371" y="22" on="1"/>
        <pt x="423" y="22" on="0"/>
        <pt x="515" y="53" on="0"/>
        <pt x="542" y="80" on="1"/>
        <pt x="542" y="318" on="1"/>
        <pt x="363" y="318" on="1"/>
        <pt x="363" y="351" on="1"/>
        <pt x="581" y="351" on="1"/>
        <pt x="581" y="68" on="1"/>
        <pt x="547" y="32" on="0"/>
        <pt x="439" y="-13" on="0"/>
      </contour>
    </TTGlyph>
    <TTGlyph name="H" xMin="110" yMin="0" xMax="589" yMax="726">
      <contour>
        <pt x="110" y="0" on="1"/>
        <pt x="110" y="726" on="1"/>
        <pt x="147" y="726" on="1"/>
        <pt x="147" y="404" on="1"/>
        <pt x="551" y="404" on="1"/>
        <pt x="551" y="726" on="1"/>
        <pt x="589" y="726" on="1"/>
        <pt x="589" y="0" on="1"/>
        <pt x="551" y="0" on="1"/>
        <pt x="551" y="371" on="1"/>
        <pt x="147" y="371" on="1"/>
        <pt x="147" y="0" on="1"/>
      </contour>
    </TTGlyph>
    <TTGlyph name="I" xMin="110" yMin="0" xMax="147" yMax="726">
      <contour>
        <pt x="110" y="0" on="1"/>
        <pt x="110" y="726" on="1"/>
        <pt x="147" y="726" on="1"/>
        <pt x="147" y="0" on="1"/>
      </contour>
    </TTGlyph>
    <TTGlyph name="J" xMin="47" yMin="-13" xMax="396" yMax="726">
      <contour>
        <pt x="221" y="-13" on="1"/>
        <pt x="163" y="-13" on="0"/>
        <pt x="75" y="41" on="0"/>
        <pt x="47" y="91" on="1"/>
        <pt x="78" y="110" on="1"/>
        <pt x="106" y="62" on="0"/>
        <pt x="175" y="22" on="0"/>
        <pt x="222" y="22" on="1"/>
        <pt x="292" y="22" on="0"/>
        <pt x="358" y="107" on="0"/>
        <pt x="358" y="197" on="1"/>
        <pt x="358" y="726" on="1"/>
        <pt x="396" y="726" on="1"/>
        <pt x="396" y="192" on="1"/>
        <pt x="396" y="135" on="0"/>
        <pt x="362" y="42" on="0"/>
        <pt x="285" y="-13" on="0"/>
      </contour>
    </TTGlyph>
    <TTGlyph name="K" xMin="110" yMin="0" xMax="594" yMax="726">
      <contour>
        <pt x="110" y="0" on="1"/>
        <pt x="110" y="726" on="1"/>
        <pt x="147" y="726" on="1"/>
        <pt x="147" y="310" on="1"/>
        <pt x="149" y="310" on="1"/>
        <pt x="516" y="726" on="1"/>
        <pt x="563" y="726" on="1"/>
        <pt x="330" y="460" on="1"/>
        <pt x="594" y="0" on="1"/>
        <pt x="550" y="0" on="1"/>
        <pt x="302" y="431" on="1"/>
        <pt x="147" y="256" on="1"/>
        <pt x="147" y="0" on="1"/>
      </contour>
    </TTGlyph>
    <TTGlyph name="L" xMin="110" yMin="0" xMax="487" yMax="726">
      <contour>
        <pt x="110" y="0" on="1"/>
        <pt x="110" y="726" on="1"/>
        <pt x="147" y="726" on="1"/>
        <pt x="147" y="33" on="1"/>
        <pt x="487" y="33" on="1"/>
        <pt x="487" y="0" on="1"/>
      </contour>
    </TTGlyph>
    <TTGlyph name="M" xMin="110" yMin="0" xMax="660" yMax="726">
      <contour>
        <pt x="110" y="0" on="1"/>
        <pt x="110" y="726" on="1"/>
        <pt x="169" y="726" on="1"/>
        <pt x="324" y="288" on="1"/>
        <pt x="339" y="248" on="0"/>
        <pt x="369" y="165" on="0"/>
        <pt x="384" y="124" on="1"/>
        <pt x="388" y="124" on="1"/>
        <pt x="403" y="165" on="0"/>
        <pt x="431" y="248" on="0"/>
        <pt x="445" y="288" on="1"/>
        <pt x="601" y="726" on="1"/>
        <pt x="660" y="726" on="1"/>
        <pt x="660" y="0" on="1"/>
        <pt x="623" y="0" on="1"/>
        <pt x="623" y="502" on="1"/>
        <pt x="623" y="531" on="0"/>
        <pt x="624" y="596" on="0"/>
        <pt x="626" y="663" on="0"/>
        <pt x="627" y="692" on="1"/>
        <pt x="623" y="692" on="1"/>
        <pt x="567" y="532" on="1"/>
        <pt x="404" y="81" on="1"/>
        <pt x="365" y="81" on="1"/>
        <pt x="201" y="532" on="1"/>
        <pt x="144" y="692" on="1"/>
        <pt x="140" y="692" on="1"/>
        <pt x="142" y="663" on="0"/>
        <pt x="144" y="596" on="0"/>
        <pt x="145" y="531" on="0"/>
        <pt x="145" y="502" on="1"/>
        <pt x="145" y="0" on="1"/>
      </contour>
    </TTGlyph>
    <TTGlyph name="N" xMin="110" yMin="0" xMax="587" yMax="726">
      <contour>
        <pt x="110" y="0" on="1"/>
        <pt x="110" y="726" on="1"/>
        <pt x="149" y="726" on="1"/>
        <pt x="469" y="197" on="1"/>
        <pt x="552" y="54" on="1"/>
        <pt x="557" y="54" on="1"/>
        <pt x="554" y="107" on="0"/>
        <pt x="551" y="208" on="0"/>
        <pt x="551" y="259" on="1"/>
        <pt x="551" y="726" on="1"/>
        <pt x="587" y="726" on="1"/>
        <pt x="587" y="0" on="1"/>
        <pt x="547" y="0" on="1"/>
        <pt x="228" y="529" on="1"/>
        <pt x="145" y="672" on="1"/>
        <pt x="141" y="672" on="1"/>
        <pt x="143" y="621" on="0"/>
        <pt x="145" y="525" on="0"/>
        <pt x="145" y="473" on="1"/>
        <pt x="145" y="0" on="1"/>
      </contour>
    </TTGlyph>
    <TTGlyph name="O" xMin="62" yMin="-13" xMax="652" yMax="739">
      <contour>
        <pt x="357" y="-13" on="1"/>
        <pt x="271" y="-13" on="0"/>
        <pt x="138" y="81" on="0"/>
        <pt x="62" y="251" on="0"/>
        <pt x="62" y="365" on="1"/>
        <pt x="62" y="480" on="0"/>
        <pt x="138" y="647" on="0"/>
        <pt x="271" y="739" on="0"/>
        <pt x="357" y="739" on="1"/>
        <pt x="443" y="739" on="0"/>
        <pt x="576" y="647" on="0"/>
        <pt x="652" y="480" on="0"/>
        <pt x="652" y="365" on="1"/>
        <pt x="652" y="251" on="0"/>
        <pt x="576" y="81" on="0"/>
        <pt x="443" y="-13" on="0"/>
      </contour>
      <contour>
        <pt x="357" y="22" on="1"/>
        <pt x="434" y="22" on="0"/>
        <pt x="549" y="107" on="0"/>
        <pt x="613" y="261" on="0"/>
        <pt x="613" y="365" on="1"/>
        <pt x="613" y="469" on="0"/>
        <pt x="549" y="621" on="0"/>
        <pt x="434" y="704" on="0"/>
        <pt x="357" y="704" on="1"/>
        <pt x="281" y="704" on="0"/>
        <pt x="165" y="621" on="0"/>
        <pt x="101" y="469" on="0"/>
        <pt x="101" y="365" on="1"/>
        <pt x="101" y="261" on="0"/>
        <pt x="165" y="107" on="0"/>
        <pt x="281" y="22" on="0"/>
      </contour>
    </TTGlyph>
    <TTGlyph name="P" xMin="110" yMin="0" xMax="545" yMax="726">
      <contour>
        <pt x="110" y="0" on="1"/>
        <pt x="110" y="726" on="1"/>
        <pt x="285" y="726" on="1"/>
        <pt x="368" y="726" on="0"/>
        <pt x="484" y="687" on="0"/>
        <pt x="545" y="601" on="0"/>
        <pt x="545" y="528" on="1"/>
        <pt x="545" y="458" on="0"/>
        <pt x="485" y="366" on="0"/>
        <pt x="371" y="320" on="0"/>
        <pt x="289" y="320" on="1"/>
        <pt x="147" y="320" on="1"/>
        <pt x="147" y="0" on="1"/>
      </contour>
      <contour>
        <pt x="147" y="353" on="1"/>
        <pt x="276" y="353" on="1"/>
        <pt x="392" y="353" on="0"/>
        <pt x="505" y="434" on="0"/>
        <pt x="505" y="528" on="1"/>
        <pt x="505" y="623" on="0"/>
        <pt x="390" y="693" on="0"/>
        <pt x="272" y="693" on="1"/>
        <pt x="147" y="693" on="1"/>
      </contour>
    </TTGlyph>
    <TTGlyph name="Q" xMin="62" yMin="-168" xMax="652" yMax="739">
      <contour>
        <pt x="357" y="-13" on="1"/>
        <pt x="271" y="-13" on="0"/>
        <pt x="138" y="81" on="0"/>
        <pt x="62" y="251" on="0"/>
        <pt x="62" y="365" on="1"/>
        <pt x="62" y="480" on="0"/>
        <pt x="138" y="647" on="0"/>
        <pt x="271" y="739" on="0"/>
        <pt x="357" y="739" on="1"/>
        <pt x="443" y="739" on="0"/>
        <pt x="576" y="647" on="0"/>
        <pt x="652" y="480" on="0"/>
        <pt x="652" y="365" on="1"/>
        <pt x="652" y="251" on="0"/>
        <pt x="576" y="81" on="0"/>
        <pt x="443" y="-13" on="0"/>
      </contour>
      <contour>
        <pt x="357" y="20" on="1"/>
        <pt x="434" y="20" on="0"/>
        <pt x="549" y="106" on="0"/>
        <pt x="613" y="261" on="0"/>
        <pt x="613" y="365" on="1"/>
        <pt x="613" y="469" on="0"/>
        <pt x="549" y="621" on="0"/>
        <pt x="434" y="704" on="0"/>
        <pt x="357" y="704" on="1"/>
        <pt x="281" y="704" on="0"/>
        <pt x="165" y="621" on="0"/>
        <pt x="101" y="469" on="0"/>
        <pt x="101" y="365" on="1"/>
        <pt x="101" y="261" on="0"/>
        <pt x="165" y="106" on="0"/>
        <pt x="281" y="20" on="0"/>
      </contour>
      <contour>
        <pt x="566" y="-168" on="1"/>
        <pt x="505" y="-168" on="0"/>
        <pt x="410" y="-124" on="0"/>
        <pt x="346" y="-47" on="0"/>
        <pt x="330" y="0" on="1"/>
        <pt x="372" y="0" on="1"/>
        <pt x="387" y="-41" on="0"/>
        <pt x="442" y="-100" on="0"/>
        <pt x="521" y="-131" on="0"/>
        <pt x="570" y="-131" on="1"/>
        <pt x="595" y="-131" on="0"/>
        <pt x="629" y="-126" on="0"/>
        <pt x="642" y="-122" on="1"/>
        <pt x="651" y="-156" on="1"/>
        <pt x="638" y="-160" on="0"/>
        <pt x="592" y="-168" on="0"/>
      </contour>
    </TTGlyph>
    <TTGlyph name="R" xMin="110" yMin="0" xMax="556" yMax="726">
      <contour>
        <pt x="110" y="0" on="1"/>
        <pt x="110" y="726" on="1"/>
        <pt x="311" y="726" on="1"/>
        <pt x="383" y="726" on="0"/>
        <pt x="488" y="688" on="0"/>
        <pt x="545" y="606" on="0"/>
        <pt x="545" y="539" on="1"/>
        <pt x="545" y="475" on="0"/>
        <pt x="488" y="387" on="0"/>
        <pt x="383" y="342" on="0"/>
        <pt x="311" y="342" on="1"/>
        <pt x="147" y="342" on="1"/>
        <pt x="147" y="0" on="1"/>
      </contour>
      <contour>
        <pt x="147" y="374" on="1"/>
        <pt x="298" y="374" on="1"/>
        <pt x="398" y="374" on="0"/>
        <pt x="505" y="455" on="0"/>
        <pt x="505" y="539" on="1"/>
        <pt x="505" y="624" on="0"/>
        <pt x="398" y="693" on="0"/>
        <pt x="298" y="693" on="1"/>
        <pt x="147" y="693" on="1"/>
      </contour>
      <contour>
        <pt x="513" y="0" on="1"/>
        <pt x="301" y="353" on="1"/>
        <pt x="343" y="357" on="1"/>
        <pt x="556" y="0" on="1"/>
      </contour>
    </TTGlyph>
    <TTGlyph name="S" xMin="53" yMin="-13" xMax="522" yMax="739">
      <contour>
        <pt x="295" y="-13" on="1"/>
        <pt x="215" y="-13" on="0"/>
        <pt x="94" y="49" on="0"/>
        <pt x="53" y="97" on="1"/>
        <pt x="78" y="123" on="1"/>
        <pt x="118" y="77" on="0"/>
        <pt x="230" y="22" on="0"/>
        <pt x="295" y="22" on="1"/>
        <pt x="382" y="22" on="0"/>
        <pt x="485" y="108" on="0"/>
        <pt x="485" y="176" on="1"/>
        <pt x="485" y="225" on="0"/>
        <pt x="448" y="283" on="0"/>
        <pt x="388" y="320" on="0"/>
        <pt x="351" y="336" on="1"/>
        <pt x="240" y="386" on="1"/>
        <pt x="209" y="400" on="0"/>
        <pt x="140" y="442" on="0"/>
        <pt x="92" y="511" on="0"/>
        <pt x="92" y="564" on="1"/>
        <pt x="92" y="617" on="0"/>
        <pt x="146" y="695" on="0"/>
        <pt x="239" y="739" on="0"/>
        <pt x="298" y="739" on="1"/>
        <pt x="364" y="739" on="0"/>
        <pt x="465" y="688" on="0"/>
        <pt x="496" y="653" on="1"/>
        <pt x="473" y="628" on="1"/>
        <pt x="442" y="662" on="0"/>
        <pt x="354" y="704" on="0"/>
        <pt x="298" y="704" on="1"/>
        <pt x="222" y="704" on="0"/>
        <pt x="130" y="630" on="0"/>
        <pt x="130" y="568" on="1"/>
        <pt x="130" y="523" on="0"/>
        <pt x="172" y="466" on="0"/>
        <pt x="232" y="433" on="0"/>
        <pt x="257" y="421" on="1"/>
        <pt x="368" y="371" on="1"/>
        <pt x="409" y="353" on="0"/>
        <pt x="479" y="306" on="0"/>
        <pt x="522" y="235" on="0"/>
        <pt x="522" y="179" on="1"/>
        <pt x="522" y="124" on="0"/>
        <pt x="466" y="37" on="0"/>
        <pt x="364" y="-13" on="0"/>
      </contour>
    </TTGlyph>
    <TTGlyph name="T" xMin="33" yMin="0" xMax="540" yMax="726">
      <contour>
        <pt x="267" y="0" on="1"/>
        <pt x="267" y="693" on="1"/>
        <pt x="33" y="693" on="1"/>
        <pt x="33" y="726" on="1"/>
        <pt x="540" y="726" on="1"/>
        <pt x="540" y="693" on="1"/>
        <pt x="306" y="693" on="1"/>
        <pt x="306" y="0" on="1"/>
      </contour>
    </TTGlyph>
    <TTGlyph name="U" xMin="108" yMin="-13" xMax="587" yMax="726">
      <contour>
        <pt x="346" y="-13" on="1"/>
        <pt x="302" y="-13" on="0"/>
        <pt x="217" y="13" on="0"/>
        <pt x="149" y="77" on="0"/>
        <pt x="108" y="188" on="0"/>
        <pt x="108" y="272" on="1"/>
        <pt x="108" y="726" on="1"/>
        <pt x="145" y="726" on="1"/>
        <pt x="145" y="280" on="1"/>
        <pt x="145" y="181" on="0"/>
        <pt x="202" y="68" on="0"/>
        <pt x="294" y="22" on="0"/>
        <pt x="346" y="22" on="1"/>
        <pt x="400" y="22" on="0"/>
        <pt x="493" y="68" on="0"/>
        <pt x="551" y="181" on="0"/>
        <pt x="551" y="280" on="1"/>
        <pt x="551" y="726" on="1"/>
        <pt x="587" y="726" on="1"/>
        <pt x="587" y="272" on="1"/>
        <pt x="587" y="188" on="0"/>
        <pt x="546" y="77" on="0"/>
        <pt x="476" y="13" on="0"/>
        <pt x="390" y="-13" on="0"/>
      </contour>
    </TTGlyph>
    <TTGlyph name="V" xMin="7" yMin="0" xMax="526" yMax="726">
      <contour>
        <pt x="248" y="0" on="1"/>
        <pt x="7" y="726" on="1"/>
        <pt x="46" y="726" on="1"/>
        <pt x="186" y="292" on="1"/>
        <pt x="207" y="225" on="0"/>
        <pt x="242" y="114" on="0"/>
        <pt x="265" y="47" on="1"/>
        <pt x="269" y="47" on="1"/>
        <pt x="292" y="114" on="0"/>
        <pt x="327" y="225" on="0"/>
        <pt x="349" y="292" on="1"/>
        <pt x="488" y="726" on="1"/>
        <pt x="526" y="726" on="1"/>
        <pt x="286" y="0" on="1"/>
      </contour>
    </TTGlyph>
    <TTGlyph name="W" xMin="33" yMin="0" xMax="807" yMax="726">
      <contour>
        <pt x="201" y="0" on="1"/>
        <pt x="33" y="726" on="1"/>
        <pt x="72" y="726" on="1"/>
        <pt x="168" y="288" on="1"/>
        <pt x="182" y="229" on="0"/>
        <pt x="208" y="110" on="0"/>
        <pt x="221" y="50" on="1"/>
        <pt x="225" y="50" on="1"/>
        <pt x="239" y="110" on="0"/>
        <pt x="268" y="229" on="0"/>
        <pt x="283" y="288" on="1"/>
        <pt x="400" y="726" on="1"/>
        <pt x="442" y="726" on="1"/>
        <pt x="560" y="288" on="1"/>
        <pt x="575" y="229" on="0"/>
        <pt x="604" y="110" on="0"/>
        <pt x="619" y="50" on="1"/>
        <pt x="624" y="50" on="1"/>
        <pt x="637" y="110" on="0"/>
        <pt x="661" y="229" on="0"/>
        <pt x="673" y="288" on="1"/>
        <pt x="770" y="726" on="1"/>
        <pt x="807" y="726" on="1"/>
        <pt x="641" y="0" on="1"/>
        <pt x="602" y="0" on="1"/>
        <pt x="463" y="518" on="1"/>
        <pt x="453" y="562" on="0"/>
        <pt x="434" y="638" on="0"/>
        <pt x="423" y="681" on="1"/>
        <pt x="419" y="681" on="1"/>
        <pt x="409" y="638" on="0"/>
        <pt x="387" y="562" on="0"/>
        <pt x="377" y="518" on="1"/>
        <pt x="240" y="0" on="1"/>
      </contour>
    </TTGlyph>
    <TTGlyph name="X" xMin="20" yMin="0" xMax="500" yMax="726">
      <contour>
        <pt x="20" y="0" on="1"/>
        <pt x="240" y="376" on="1"/>
        <pt x="35" y="726" on="1"/>
        <pt x="76" y="726" on="1"/>
        <pt x="201" y="504" on="1"/>
        <pt x="216" y="479" on="0"/>
        <pt x="242" y="436" on="0"/>
        <pt x="261" y="406" on="1"/>
        <pt x="265" y="406" on="1"/>
        <pt x="282" y="436" on="0"/>
        <pt x="305" y="479" on="0"/>
        <pt x="320" y="504" on="1"/>
        <pt x="447" y="726" on="1"/>
        <pt x="485" y="726" on="1"/>
        <pt x="280" y="374" on="1"/>
        <pt x="500" y="0" on="1"/>
        <pt x="460" y="0" on="1"/>
        <pt x="327" y="232" on="1"/>
        <pt x="312" y="258" on="0"/>
        <pt x="278" y="314" on="0"/>
        <pt x="258" y="347" on="1"/>
        <pt x="254" y="347" on="1"/>
        <pt x="236" y="314" on="0"/>
        <pt x="205" y="258" on="0"/>
        <pt x="190" y="232" on="1"/>
        <pt x="58" y="0" on="1"/>
      </contour>
    </TTGlyph>
    <TTGlyph name="Y" xMin="4" yMin="0" xMax="477" yMax="726">
      <contour>
        <pt x="222" y="0" on="1"/>
        <pt x="222" y="298" on="1"/>
        <pt x="4" y="726" on="1"/>
        <pt x="44" y="726" on="1"/>
        <pt x="159" y="492" on="1"/>
        <pt x="179" y="452" on="0"/>
        <pt x="217" y="375" on="0"/>
        <pt x="239" y="335" on="1"/>
        <pt x="243" y="335" on="1"/>
        <pt x="265" y="375" on="0"/>
        <pt x="306" y="452" on="0"/>
        <pt x="324" y="492" on="1"/>
        <pt x="440" y="726" on="1"/>
        <pt x="477" y="726" on="1"/>
        <pt x="259" y="298" on="1"/>
        <pt x="259" y="0" on="1"/>
      </contour>
    </TTGlyph>
    <TTGlyph name="Z" xMin="57" yMin="0" xMax="538" yMax="726">
      <contour>
        <pt x="57" y="0" on="1"/>
        <pt x="57" y="22" on="1"/>
        <pt x="486" y="693" on="1"/>
        <pt x="95" y="693" on="1"/>
        <pt x="95" y="726" on="1"/>
        <pt x="533" y="726" on="1"/>
        <pt x="533" y="705" on="1"/>
        <pt x="104" y="33" on="1"/>
        <pt x="538" y="33" on="1"/>
        <pt x="538" y="0" on="1"/>
      </contour>
    </TTGlyph>
    <TTGlyph name="a" xMin="66" yMin="-13" xMax="446" yMax="540">
      <contour>
        <pt x="218" y="-13" on="1"/>
        <pt x="177" y="-13" on="0"/>
        <pt x="108" y="17" on="0"/>
        <pt x="66" y="80" on="0"/>
        <pt x="66" y="130" on="1"/>
        <pt x="66" y="218" on="0"/>
        <pt x="232" y="309" on="0"/>
        <pt x="410" y="329" on="1"/>
        <pt x="412" y="372" on="0"/>
        <pt x="393" y="453" on="0"/>
        <pt x="337" y="507" on="0"/>
        <pt x="282" y="507" on="1"/>
        <pt x="226" y="507" on="0"/>
        <pt x="136" y="463" on="0"/>
        <pt x="110" y="443" on="1"/>
        <pt x="92" y="472" on="1"/>
        <pt x="109" y="484" on="0"/>
        <pt x="166" y="516" on="0"/>
        <pt x="241" y="540" on="0"/>
        <pt x="284" y="540" on="1"/>
        <pt x="346" y="540" on="0"/>
        <pt x="417" y="485" on="0"/>
        <pt x="446" y="395" on="0"/>
        <pt x="446" y="341" on="1"/>
        <pt x="446" y="0" on="1"/>
        <pt x="416" y="0" on="1"/>
        <pt x="411" y="70" on="1"/>
        <pt x="408" y="70" on="1"/>
        <pt x="368" y="37" on="0"/>
        <pt x="271" y="-13" on="0"/>
      </contour>
      <contour>
        <pt x="221" y="20" on="1"/>
        <pt x="268" y="20" on="0"/>
        <pt x="358" y="65" on="0"/>
        <pt x="410" y="109" on="1"/>
        <pt x="410" y="298" on="1"/>
        <pt x="296" y="286" on="0"/>
        <pt x="161" y="241" on="0"/>
        <pt x="103" y="176" on="0"/>
        <pt x="103" y="131" on="1"/>
        <pt x="103" y="70" on="0"/>
        <pt x="173" y="20" on="0"/>
      </contour>
    </TTGlyph>
    <TTGlyph name="ampersand" xMin="42" yMin="-13" xMax="607" yMax="739">
      <contour>
        <pt x="247" y="-13" on="1"/>
        <pt x="192" y="-13" on="0"/>
        <pt x="98" y="35" on="0"/>
        <pt x="42" y="122" on="0"/>
        <pt x="42" y="183" on="1"/>
        <pt x="42" y="233" on="0"/>
        <pt x="89" y="312" on="0"/>
        <pt x="163" y="378" on="0"/>
        <pt x="246" y="438" on="0"/>
        <pt x="320" y="499" on="0"/>
        <pt x="367" y="567" on="0"/>
        <pt x="367" y="609" on="1"/>
        <pt x="367" y="633" on="0"/>
        <pt x="351" y="678" on="0"/>
        <pt x="315" y="707" on="0"/>
        <pt x="285" y="707" on="1"/>
        <pt x="234" y="707" on="0"/>
        <pt x="177" y="633" on="0"/>
        <pt x="177" y="583" on="1"/>
        <pt x="177" y="526" on="0"/>
        <pt x="225" y="399" on="0"/>
        <pt x="306" y="273" on="0"/>
        <pt x="404" y="161" on="0"/>
        <pt x="453" y="118" on="1"/>
        <pt x="494" y="82" on="0"/>
        <pt x="573" y="33" on="0"/>
        <pt x="607" y="20" on="1"/>
        <pt x="594" y="-13" on="1"/>
        <pt x="559" y="0" on="0"/>
        <pt x="477" y="50" on="0"/>
        <pt x="432" y="90" on="1"/>
        <pt x="379" y="137" on="0"/>
        <pt x="276" y="257" on="0"/>
        <pt x="193" y="388" on="0"/>
        <pt x="143" y="521" on="0"/>
        <pt x="143" y="581" on="1"/>
        <pt x="143" y="627" on="0"/>
        <pt x="180" y="698" on="0"/>
        <pt x="245" y="739" on="0"/>
        <pt x="287" y="739" on="1"/>
        <pt x="343" y="739" on="0"/>
        <pt x="402" y="666" on="0"/>
        <pt x="402" y="612" on="1"/>
        <pt x="402" y="567" on="0"/>
        <pt x="355" y="492" on="0"/>
        <pt x="282" y="428" on="0"/>
        <pt x="199" y="367" on="0"/>
        <pt x="126" y="303" on="0"/>
        <pt x="79" y="230" on="0"/>
        <pt x="79" y="185" on="1"/>
        <pt x="79" y="135" on="0"/>
        <pt x="126" y="61" on="0"/>
        <pt x="204" y="20" on="0"/>
        <pt x="250" y="20" on="1"/>
        <pt x="301" y="20" on="0"/>
        <pt x="390" y="73" on="0"/>
        <pt x="427" y="113" on="1"/>
        <pt x="473" y="166" on="0"/>
        <pt x="538" y="300" on="0"/>
        <pt x="559" y="377" on="1"/>
        <pt x="595" y="377" on="1"/>
        <pt x="572" y="296" on="0"/>
        <pt x="501" y="150" on="0"/>
        <pt x="453" y="92" on="1"/>
        <pt x="412" y="46" on="0"/>
        <pt x="312" y="-13" on="0"/>
      </contour>
    </TTGlyph>
    <TTGlyph name="b" xMin="105" yMin="-13" xMax="536" yMax="794">
      <contour>
        <pt x="302" y="-13" on="1"/>
        <pt x="265" y="-13" on="0"/>
        <pt x="180" y="23" on="0"/>
        <pt x="143" y="53" on="1"/>
        <pt x="140" y="53" on="1"/>
        <pt x="135" y="0" on="1"/>
        <pt x="105" y="0" on="1"/>
        <pt x="105" y="794" on="1"/>
        <pt x="141" y="794" on="1"/>
        <pt x="141" y="560" on="1"/>
        <pt x="138" y="454" on="1"/>
        <pt x="179" y="489" on="0"/>
        <pt x="275" y="540" on="0"/>
        <pt x="324" y="540" on="1"/>
        <pt x="396" y="540" on="0"/>
        <pt x="490" y="473" on="0"/>
        <pt x="536" y="353" on="0"/>
        <pt x="536" y="271" on="1"/>
        <pt x="536" y="182" on="0"/>
        <pt x="471" y="54" on="0"/>
        <pt x="365" y="-13" on="0"/>
      </contour>
      <contour>
        <pt x="305" y="20" on="1"/>
        <pt x="361" y="20" on="0"/>
        <pt x="448" y="84" on="0"/>
        <pt x="498" y="198" on="0"/>
        <pt x="498" y="271" on="1"/>
        <pt x="498" y="338" on="0"/>
        <pt x="463" y="445" on="0"/>
        <pt x="386" y="507" on="0"/>
        <pt x="321" y="507" on="1"/>
        <pt x="281" y="507" on="0"/>
        <pt x="190" y="460" on="0"/>
        <pt x="141" y="416" on="1"/>
        <pt x="141" y="91" on="1"/>
        <pt x="186" y="52" on="0"/>
        <pt x="274" y="20" on="0"/>
      </contour>
    </TTGlyph>
    <TTGlyph name="c" xMin="59" yMin="-13" xMax="463" yMax="540">
      <contour>
        <pt x="295" y="-13" on="1"/>
        <pt x="228" y="-13" on="0"/>
        <pt x="121" y="52" on="0"/>
        <pt x="59" y="175" on="0"/>
        <pt x="59" y="262" on="1"/>
        <pt x="59" y="351" on="0"/>
        <pt x="125" y="475" on="0"/>
        <pt x="233" y="540" on="0"/>
        <pt x="296" y="540" on="1"/>
        <pt x="350" y="540" on="0"/>
        <pt x="424" y="499" on="0"/>
        <pt x="450" y="474" on="1"/>
        <pt x="427" y="448" on="1"/>
        <pt x="401" y="473" on="0"/>
        <pt x="337" y="507" on="0"/>
        <pt x="296" y="507" on="1"/>
        <pt x="240" y="507" on="0"/>
        <pt x="150" y="445" on="0"/>
        <pt x="97" y="335" on="0"/>
        <pt x="97" y="262" on="1"/>
        <pt x="97" y="190" on="0"/>
        <pt x="147" y="81" on="0"/>
        <pt x="236" y="20" on="0"/>
        <pt x="296" y="20" on="1"/>
        <pt x="340" y="20" on="0"/>
        <pt x="414" y="57" on="0"/>
        <pt x="442" y="83" on="1"/>
        <pt x="463" y="57" on="1"/>
        <pt x="430" y="28" on="0"/>
        <pt x="346" y="-13" on="0"/>
      </contour>
    </TTGlyph>
    <TTGlyph name="colon" xMin="75" yMin="-13" xMax="156" yMax="503">
      <contour>
        <pt x="115" y="415" on="1"/>
        <pt x="100" y="415" on="0"/>
        <pt x="75" y="437" on="0"/>
        <pt x="75" y="458" on="1"/>
        <pt x="75" y="480" on="0"/>
        <pt x="100" y="503" on="0"/>
        <pt x="115" y="503" on="1"/>
        <pt x="131" y="503" on="0"/>
        <pt x="156" y="480" on="0"/>
        <pt x="156" y="458" on="1"/>
        <pt x="156" y="437" on="0"/>
        <pt x="131" y="415" on="0"/>
      </contour>
      <contour>
        <pt x="115" y="-13" on="1"/>
        <pt x="100" y="-13" on="0"/>
        <pt x="75" y="10" on="0"/>
        <pt x="75" y="30" on="1"/>
        <pt x="75" y="52" on="0"/>
        <pt x="100" y="75" on="0"/>
        <pt x="115" y="75" on="1"/>
        <pt x="131" y="75" on="0"/>
        <pt x="156" y="52" on="0"/>
        <pt x="156" y="30" on="1"/>
        <pt x="156" y="10" on="0"/>
        <pt x="131" y="-13" on="0"/>
      </contour>
    </TTGlyph>
    <TTGlyph name="comma" xMin="53" yMin="-166" xMax="169" yMax="75">
      <contour>
        <pt x="66" y="-166" on="1"/>
        <pt x="53" y="-139" on="1"/>
        <pt x="88" y="-119" on="0"/>
        <pt x="133" y="-50" on="0"/>
        <pt x="133" y="-2" on="1"/>
        <pt x="118" y="58" on="1"/>
        <pt x="155" y="11" on="1"/>
        <pt x="148" y="0" on="0"/>
        <pt x="130" y="-7" on="0"/>
        <pt x="120" y="-7" on="1"/>
        <pt x="103" y="-7" on="0"/>
        <pt x="79" y="15" on="0"/>
        <pt x="79" y="34" on="1"/>
        <pt x="79" y="54" on="0"/>
        <pt x="104" y="75" on="0"/>
        <pt x="120" y="75" on="1"/>
        <pt x="142" y="75" on="0"/>
        <pt x="169" y="37" on="0"/>
        <pt x="169" y="5" on="1"/>
        <pt x="169" y="-51" on="0"/>
        <pt x="110" y="-140" on="0"/>
      </contour>
    </TTGlyph>
    <TTGlyph name="d" xMin="59" yMin="-13" xMax="490" yMax="794">
      <contour>
        <pt x="277" y="-13" on="1"/>
        <pt x="211" y="-13" on="0"/>
        <pt x="113" y="50" on="0"/>
        <pt x="59" y="173" on="0"/>
        <pt x="59" y="262" on="1"/>
        <pt x="59" y="347" on="0"/>
        <pt x="124" y="472" on="0"/>
        <pt x="231" y="540" on="0"/>
        <pt x="295" y="540" on="1"/>
        <pt x="343" y="540" on="0"/>
        <pt x="417" y="506" on="0"/>
        <pt x="457" y="474" on="1"/>
        <pt x="454" y="573" on="1"/>
        <pt x="454" y="794" on="1"/>
        <pt x="490" y="794" on="1"/>
        <pt x="490" y="0" on="1"/>
        <pt x="460" y="0" on="1"/>
        <pt x="455" y="70" on="1"/>
        <pt x="453" y="70" on="1"/>
        <pt x="420" y="37" on="0"/>
        <pt x="332" y="-13" on="0"/>
      </contour>
      <contour>
        <pt x="280" y="20" on="1"/>
        <pt x="326" y="20" on="0"/>
        <pt x="411" y="68" on="0"/>
        <pt x="454" y="111" on="1"/>
        <pt x="454" y="435" on="1"/>
        <pt x="411" y="474" on="0"/>
        <pt x="334" y="507" on="0"/>
        <pt x="293" y="507" on="1"/>
        <pt x="238" y="507" on="0"/>
        <pt x="149" y="441" on="0"/>
        <pt x="97" y="330" on="0"/>
        <pt x="97" y="262" on="1"/>
        <pt x="97" y="190" on="0"/>
        <pt x="140" y="81" on="0"/>
        <pt x="222" y="20" on="0"/>
      </contour>
    </TTGlyph>
    <TTGlyph name="e" xMin="59" yMin="-13" xMax="485" yMax="540">
      <contour>
        <pt x="300" y="-13" on="1"/>
        <pt x="234" y="-13" on="0"/>
        <pt x="124" y="53" on="0"/>
        <pt x="59" y="176" on="0"/>
        <pt x="59" y="262" on="1"/>
        <pt x="59" y="327" on="0"/>
        <pt x="96" y="429" on="0"/>
        <pt x="161" y="502" on="0"/>
        <pt x="242" y="540" on="0"/>
        <pt x="286" y="540" on="1"/>
        <pt x="347" y="540" on="0"/>
        <pt x="436" y="484" on="0"/>
        <pt x="485" y="375" on="0"/>
        <pt x="485" y="297" on="1"/>
        <pt x="485" y="289" on="0"/>
        <pt x="485" y="272" on="0"/>
        <pt x="483" y="261" on="1"/>
        <pt x="97" y="261" on="1"/>
        <pt x="97" y="192" on="0"/>
        <pt x="148" y="83" on="0"/>
        <pt x="240" y="20" on="0"/>
        <pt x="302" y="20" on="1"/>
        <pt x="347" y="20" on="0"/>
        <pt x="417" y="46" on="0"/>
        <pt x="447" y="68" on="1"/>
        <pt x="463" y="37" on="1"/>
        <pt x="433" y="19" on="0"/>
        <pt x="359" y="-13" on="0"/>
      </contour>
      <contour>
        <pt x="97" y="294" on="1"/>
        <pt x="450" y="294" on="1"/>
        <pt x="450" y="401" on="0"/>
        <pt x="360" y="507" on="0"/>
        <pt x="286" y="507" on="1"/>
        <pt x="239" y="507" on="0"/>
        <pt x="157" y="456" on="0"/>
        <pt x="103" y="361" on="0"/>
      </contour>
    </TTGlyph>
    <TTGlyph name="eight" xMin="44" yMin="-13" xMax="475" yMax="735">
      <contour>
        <pt x="265" y="-13" on="1"/>
        <pt x="201" y="-13" on="0"/>
        <pt x="101" y="38" on="0"/>
        <pt x="44" y="125" on="0"/>
        <pt x="44" y="180" on="1"/>
        <pt x="44" y="231" on="0"/>
        <pt x="88" y="314" on="0"/>
        <pt x="154" y="374" on="0"/>
        <pt x="187" y="392" on="1"/>
        <pt x="187" y="396" on="1"/>
        <pt x="149" y="421" on="0"/>
        <pt x="86" y="502" on="0"/>
        <pt x="86" y="559" on="1"/>
        <pt x="86" y="611" on="0"/>
        <pt x="134" y="690" on="0"/>
        <pt x="215" y="735" on="0"/>
        <pt x="265" y="735" on="1"/>
        <pt x="325" y="735" on="0"/>
        <pt x="408" y="685" on="0"/>
        <pt x="452" y="600" on="0"/>
        <pt x="452" y="546" on="1"/>
        <pt x="452" y="506" on="0"/>
        <pt x="418" y="434" on="0"/>
        <pt x="372" y="379" on="0"/>
        <pt x="352" y="362" on="1"/>
        <pt x="352" y="357" on="1"/>
        <pt x="382" y="339" on="0"/>
        <pt x="439" y="289" on="0"/>
        <pt x="475" y="219" on="0"/>
        <pt x="475" y="169" on="1"/>
        <pt x="475" y="119" on="0"/>
        <pt x="422" y="36" on="0"/>
        <pt x="328" y="-13" on="0"/>
      </contour>
      <contour>
        <pt x="318" y="373" on="1"/>
        <pt x="365" y="411" on="0"/>
        <pt x="416" y="497" on="0"/>
        <pt x="416" y="546" on="1"/>
        <pt x="416" y="588" on="0"/>
        <pt x="381" y="659" on="0"/>
        <pt x="313" y="703" on="0"/>
        <pt x="265" y="703" on="1"/>
        <pt x="202" y="703" on="0"/>
        <pt x="123" y="621" on="0"/>
        <pt x="123" y="559" on="1"/>
        <pt x="123" y="506" on="0"/>
        <pt x="181" y="437" on="0"/>
        <pt x="271" y="392" on="0"/>
      </contour>
      <contour>
        <pt x="265" y="20" on="1"/>
        <pt x="318" y="20" on="0"/>
        <pt x="395" y="60" on="0"/>
        <pt x="437" y="128" on="0"/>
        <pt x="437" y="169" on="1"/>
        <pt x="437" y="214" on="0"/>
        <pt x="399" y="278" on="0"/>
        <pt x="336" y="323" on="0"/>
        <pt x="256" y="359" on="0"/>
        <pt x="214" y="375" on="1"/>
        <pt x="156" y="342" on="0"/>
        <pt x="81" y="244" on="0"/>
        <pt x="81" y="180" on="1"/>
        <pt x="81" y="136" on="0"/>
        <pt x="128" y="63" on="0"/>
        <pt x="212" y="20" on="0"/>
      </contour>
    </TTGlyph>
    <TTGlyph name="equal" xMin="37" yMin="237" xMax="484" yMax="489">
      <contour>
        <pt x="37" y="458" on="1"/>
        <pt x="37" y="489" on="1"/>
        <pt x="484" y="489" on="1"/>
        <pt x="484" y="458" on="1"/>
      </contour>
      <contour>
        <pt x="37" y="237" on="1"/>
        <pt x="37" y="269" on="1"/>
        <pt x="484" y="269" on="1"/>
        <pt x="484" y="237" on="1"/>
      </contour>
    </TTGlyph>
    <TTGlyph name="exclam" xMin="97" yMin="-13" xMax="178" yMax="738">
      <contour>
        <pt x="123" y="190" on="1"/>
        <pt x="119" y="668" on="1"/>
        <pt x="119" y="738" on="1"/>
        <pt x="156" y="738" on="1"/>
        <pt x="156" y="668" on="1"/>
        <pt x="152" y="190" on="1"/>
      </contour>
      <contour>
        <pt x="137" y="-13" on="1"/>
        <pt x="122" y="-13" on="0"/>
        <pt x="97" y="10" on="0"/>
        <pt x="97" y="30" on="1"/>
        <pt x="97" y="52" on="0"/>
        <pt x="122" y="75" on="0"/>
        <pt x="137" y="75" on="1"/>
        <pt x="153" y="75" on="0"/>
        <pt x="178" y="52" on="0"/>
        <pt x="178" y="30" on="1"/>
        <pt x="178" y="10" on="0"/>
        <pt x="153" y="-13" on="0"/>
      </contour>
    </TTGlyph>
    <TTGlyph name="f" xMin="37" yMin="0" xMax="306" yMax="807">
      <contour>
        <pt x="110" y="0" on="1"/>
        <pt x="110" y="655" on="1"/>
        <pt x="110" y="707" on="0"/>
        <pt x="139" y="774" on="0"/>
        <pt x="194" y="807" on="0"/>
        <pt x="232" y="807" on="1"/>
        <pt x="249" y="807" on="0"/>
        <pt x="287" y="798" on="0"/>
        <pt x="306" y="790" on="1"/>
        <pt x="295" y="759" on="1"/>
        <pt x="263" y="775" on="0"/>
        <pt x="231" y="775" on="1"/>
        <pt x="186" y="775" on="0"/>
        <pt x="145" y="709" on="0"/>
        <pt x="145" y="650" on="1"/>
        <pt x="145" y="0" on="1"/>
      </contour>
      <contour>
        <pt x="37" y="494" on="1"/>
        <pt x="37" y="522" on="1"/>
        <pt x="110" y="527" on="1"/>
        <pt x="270" y="527" on="1"/>
        <pt x="270" y="494" on="1"/>
      </contour>
    </TTGlyph>
    <TTGlyph name="five" xMin="29" yMin="-13" xMax="468" yMax="726">
      <contour>
        <pt x="247" y="-13" on="1"/>
        <pt x="191" y="-13" on="0"/>
        <pt x="110" y="16" on="0"/>
        <pt x="51" y="59" on="0"/>
        <pt x="29" y="81" on="1"/>
        <pt x="52" y="108" on="1"/>
        <pt x="73" y="86" on="0"/>
        <pt x="126" y="46" on="0"/>
        <pt x="199" y="20" on="0"/>
        <pt x="249" y="20" on="1"/>
        <pt x="297" y="20" on="0"/>
        <pt x="380" y="72" on="0"/>
        <pt x="430" y="167" on="0"/>
        <pt x="430" y="229" on="1"/>
        <pt x="430" y="322" on="0"/>
        <pt x="333" y="430" on="0"/>
        <pt x="251" y="430" on="1"/>
        <pt x="211" y="430" on="0"/>
        <pt x="149" y="403" on="0"/>
        <pt x="118" y="382" on="1"/>
        <pt x="88" y="400" on="1"/>
        <pt x="114" y="726" on="1"/>
        <pt x="431" y="726" on="1"/>
        <pt x="431" y="693" on="1"/>
        <pt x="147" y="693" on="1"/>
        <pt x="123" y="426" on="1"/>
        <pt x="151" y="443" on="0"/>
        <pt x="214" y="464" on="0"/>
        <pt x="254" y="464" on="1"/>
        <pt x="314" y="464" on="0"/>
        <pt x="411" y="415" on="0"/>
        <pt x="468" y="312" on="0"/>
        <pt x="468" y="231" on="1"/>
        <pt x="468" y="153" on="0"/>
        <pt x="403" y="44" on="0"/>
        <pt x="302" y="-13" on="0"/>
      </contour>
    </TTGlyph>
    <TTGlyph name="four" xMin="18" yMin="0" xMax="486" yMax="726">
      <contour>
        <pt x="343" y="0" on="1"/>
        <pt x="343" y="544" on="1"/>
        <pt x="343" y="567" on="0"/>
        <pt x="346" y="634" on="0"/>
        <pt x="348" y="657" on="1"/>
        <pt x="343" y="657" on="1"/>
        <pt x="330" y="634" on="0"/>
        <pt x="301" y="585" on="0"/>
        <pt x="286" y="561" on="1"/>
        <pt x="66" y="245" on="1"/>
        <pt x="486" y="245" on="1"/>
        <pt x="486" y="213" on="1"/>
        <pt x="18" y="213" on="1"/>
        <pt x="18" y="232" on="1"/>
        <pt x="353" y="726" on="1"/>
        <pt x="378" y="726" on="1"/>
        <pt x="378" y="0" on="1"/>
      </contour>
    </TTGlyph>
    <TTGlyph name="g" xMin="59" yMin="-257" xMax="518" yMax="540">
      <contour>
        <pt x="275" y="-257" on="1"/>
        <pt x="208" y="-257" on="0"/>
        <pt x="111" y="-220" on="0"/>
        <pt x="59" y="-154" on="0"/>
        <pt x="59" y="-110" on="1"/>
        <pt x="59" y="-75" on="0"/>
        <pt x="102" y="-6" on="0"/>
        <pt x="139" y="20" on="1"/>
        <pt x="139" y="24" on="1"/>
        <pt x="119" y="36" on="0"/>
        <pt x="92" y="78" on="0"/>
        <pt x="92" y="108" on="1"/>
        <pt x="92" y="144" on="0"/>
        <pt x="133" y="193" on="0"/>
        <pt x="150" y="205" on="1"/>
        <pt x="150" y="209" on="1"/>
        <pt x="125" y="231" on="0"/>
        <pt x="83" y="306" on="0"/>
        <pt x="83" y="354" on="1"/>
        <pt x="83" y="408" on="0"/>
        <pt x="131" y="492" on="0"/>
        <pt x="214" y="540" on="0"/>
        <pt x="264" y="540" on="1"/>
        <pt x="287" y="540" on="0"/>
        <pt x="322" y="532" on="0"/>
        <pt x="333" y="527" on="1"/>
        <pt x="509" y="527" on="1"/>
        <pt x="509" y="494" on="1"/>
        <pt x="383" y="494" on="1"/>
        <pt x="411" y="471" on="0"/>
        <pt x="445" y="399" on="0"/>
        <pt x="445" y="354" on="1"/>
        <pt x="445" y="302" on="0"/>
        <pt x="397" y="217" on="0"/>
        <pt x="315" y="167" on="0"/>
        <pt x="264" y="167" on="1"/>
        <pt x="242" y="167" on="0"/>
        <pt x="193" y="180" on="0"/>
        <pt x="175" y="191" on="1"/>
        <pt x="157" y="177" on="0"/>
        <pt x="129" y="138" on="0"/>
        <pt x="129" y="111" on="1"/>
        <pt x="129" y="81" on="0"/>
        <pt x="171" y="38" on="0"/>
        <pt x="232" y="38" on="1"/>
        <pt x="349" y="38" on="1"/>
        <pt x="436" y="38" on="0"/>
        <pt x="518" y="-19" on="0"/>
        <pt x="518" y="-80" on="1"/>
        <pt x="518" y="-124" on="0"/>
        <pt x="458" y="-206" on="0"/>
        <pt x="349" y="-257" on="0"/>
      </contour>
      <contour>
        <pt x="264" y="200" on="1"/>
        <pt x="303" y="200" on="0"/>
        <pt x="368" y="239" on="0"/>
        <pt x="408" y="309" on="0"/>
        <pt x="408" y="354" on="1"/>
        <pt x="408" y="401" on="0"/>
        <pt x="369" y="470" on="0"/>
        <pt x="304" y="507" on="0"/>
        <pt x="264" y="507" on="1"/>
        <pt x="225" y="507" on="0"/>
        <pt x="160" y="470" on="0"/>
        <pt x="121" y="402" on="0"/>
        <pt x="121" y="354" on="1"/>
        <pt x="121" y="309" on="0"/>
        <pt x="161" y="239" on="0"/>
        <pt x="226" y="200" on="0"/>
      </contour>
      <contour>
        <pt x="277" y="-225" on="1"/>
        <pt x="340" y="-225" on="0"/>
        <pt x="431" y="-183" on="0"/>
        <pt x="481" y="-118" on="0"/>
        <pt x="481" y="-84" on="1"/>
        <pt x="481" y="-37" on="0"/>
        <pt x="416" y="2" on="0"/>
        <pt x="354" y="2" on="1"/>
        <pt x="234" y="2" on="1"/>
        <pt x="229" y="2" on="0"/>
        <pt x="192" y="6" on="0"/>
        <pt x="170" y="11" on="1"/>
        <pt x="131" y="-15" on="0"/>
        <pt x="97" y="-78" on="0"/>
        <pt x="97" y="-107" on="1"/>
        <pt x="97" y="-159" on="0"/>
        <pt x="191" y="-225" on="0"/>
      </contour>
    </TTGlyph>
    <TTGlyph name="glyph03668" xMin="37" yMin="0" xMax="594" yMax="807">
      <contour>
        <pt x="110" y="0" on="1"/>
        <pt x="110" y="633" on="1"/>
        <pt x="110" y="688" on="0"/>
        <pt x="143" y="760" on="0"/>
        <pt x="204" y="796" on="0"/>
        <pt x="245" y="796" on="1"/>
        <pt x="266" y="796" on="0"/>
        <pt x="310" y="787" on="0"/>
        <pt x="332" y="777" on="1"/>
        <pt x="321" y="746" on="1"/>
        <pt x="301" y="756" on="0"/>
        <pt x="262" y="764" on="0"/>
        <pt x="244" y="764" on="1"/>
        <pt x="195" y="764" on="0"/>
        <pt x="145" y="693" on="0"/>
        <pt x="145" y="628" on="1"/>
        <pt x="145" y="0" on="1"/>
      </contour>
      <contour>
        <pt x="397" y="0" on="1"/>
        <pt x="397" y="655" on="1"/>
        <pt x="397" y="707" on="0"/>
        <pt x="426" y="774" on="0"/>
        <pt x="482" y="807" on="0"/>
        <pt x="520" y="807" on="1"/>
        <pt x="537" y="807" on="0"/>
        <pt x="575" y="798" on="0"/>
        <pt x="594" y="790" on="1"/>
        <pt x="582" y="759" on="1"/>
        <pt x="550" y="775" on="0"/>
        <pt x="518" y="775" on="1"/>
        <pt x="474" y="775" on="0"/>
        <pt x="433" y="709" on="0"/>
        <pt x="433" y="650" on="1"/>
        <pt x="433" y="0" on="1"/>
      </contour>
      <contour>
        <pt x="37" y="494" on="1"/>
        <pt x="37" y="522" on="1"/>
        <pt x="110" y="527" on="1"/>
        <pt x="557" y="527" on="1"/>
        <pt x="557" y="494" on="1"/>
      </contour>
    </TTGlyph>
    <TTGlyph name="glyph03669" xMin="37" yMin="0" xMax="440" yMax="807">
      <contour>
        <pt x="110" y="0" on="1"/>
        <pt x="110" y="655" on="1"/>
        <pt x="110" y="707" on="0"/>
        <pt x="139" y="774" on="0"/>
        <pt x="194" y="807" on="0"/>
        <pt x="232" y="807" on="1"/>
        <pt x="249" y="807" on="0"/>
        <pt x="287" y="798" on="0"/>
        <pt x="306" y="790" on="1"/>
        <pt x="295" y="759" on="1"/>
        <pt x="263" y="775" on="0"/>
        <pt x="231" y="775" on="1"/>
        <pt x="186" y="775" on="0"/>
        <pt x="145" y="709" on="0"/>
        <pt x="145" y="650" on="1"/>
        <pt x="145" y="0" on="1"/>
      </contour>
      <contour>
        <pt x="37" y="494" on="1"/>
        <pt x="37" y="522" on="1"/>
        <pt x="110" y="527" on="1"/>
        <pt x="270" y="527" on="1"/>
        <pt x="270" y="494" on="1"/>
      </contour>
      <contour>
        <pt x="384" y="0" on="1"/>
        <pt x="384" y="527" on="1"/>
        <pt x="420" y="527" on="1"/>
        <pt x="420" y="0" on="1"/>
      </contour>
      <contour>
        <pt x="403" y="660" on="1"/>
        <pt x="388" y="660" on="0"/>
        <pt x="367" y="682" on="0"/>
        <pt x="367" y="701" on="1"/>
        <pt x="367" y="718" on="0"/>
        <pt x="388" y="739" on="0"/>
        <pt x="403" y="739" on="1"/>
        <pt x="418" y="739" on="0"/>
        <pt x="440" y="718" on="0"/>
        <pt x="440" y="701" on="1"/>
        <pt x="440" y="682" on="0"/>
        <pt x="418" y="660" on="0"/>
      </contour>
    </TTGlyph>
    <TTGlyph name="glyph03670" xMin="37" yMin="-13" xMax="468" yMax="807">
      <contour>
        <pt x="110" y="0" on="1"/>
        <pt x="110" y="655" on="1"/>
        <pt x="110" y="707" on="0"/>
        <pt x="139" y="774" on="0"/>
        <pt x="194" y="807" on="0"/>
        <pt x="232" y="807" on="1"/>
        <pt x="249" y="807" on="0"/>
        <pt x="287" y="798" on="0"/>
        <pt x="306" y="790" on="1"/>
        <pt x="295" y="759" on="1"/>
        <pt x="263" y="775" on="0"/>
        <pt x="231" y="775" on="1"/>
        <pt x="186" y="775" on="0"/>
        <pt x="145" y="709" on="0"/>
        <pt x="145" y="650" on="1"/>
        <pt x="145" y="0" on="1"/>
      </contour>
      <contour>
        <pt x="37" y="494" on="1"/>
        <pt x="37" y="522" on="1"/>
        <pt x="110" y="527" on="1"/>
        <pt x="270" y="527" on="1"/>
        <pt x="270" y="494" on="1"/>
      </contour>
      <contour>
        <pt x="439" y="-13" on="1"/>
        <pt x="422" y="-13" on="0"/>
        <pt x="397" y="2" on="0"/>
        <pt x="384" y="34" on="0"/>
        <pt x="384" y="59" on="1"/>
        <pt x="384" y="794" on="1"/>
        <pt x="420" y="794" on="1"/>
        <pt x="420" y="53" on="1"/>
        <pt x="420" y="37" on="0"/>
        <pt x="432" y="20" on="0"/>
        <pt x="442" y="20" on="1"/>
        <pt x="445" y="20" on="0"/>
        <pt x="454" y="21" on="0"/>
        <pt x="462" y="22" on="1"/>
        <pt x="468" y="-9" on="1"/>
        <pt x="461" y="-10" on="0"/>
        <pt x="450" y="-13" on="0"/>
      </contour>
    </TTGlyph>
    <TTGlyph name="glyph03671" xMin="37" yMin="0" xMax="727" yMax="807">
      <contour>
        <pt x="110" y="0" on="1"/>
        <pt x="110" y="633" on="1"/>
        <pt x="110" y="688" on="0"/>
        <pt x="143" y="760" on="0"/>
        <pt x="204" y="796" on="0"/>
        <pt x="245" y="796" on="1"/>
        <pt x="266" y="796" on="0"/>
        <pt x="310" y="787" on="0"/>
        <pt x="332" y="777" on="1"/>
        <pt x="321" y="746" on="1"/>
        <pt x="301" y="756" on="0"/>
        <pt x="262" y="764" on="0"/>
        <pt x="244" y="764" on="1"/>
        <pt x="195" y="764" on="0"/>
        <pt x="145" y="693" on="0"/>
        <pt x="145" y="628" on="1"/>
        <pt x="145" y="0" on="1"/>
      </contour>
      <contour>
        <pt x="397" y="0" on="1"/>
        <pt x="397" y="655" on="1"/>
        <pt x="397" y="707" on="0"/>
        <pt x="426" y="774" on="0"/>
        <pt x="482" y="807" on="0"/>
        <pt x="520" y="807" on="1"/>
        <pt x="537" y="807" on="0"/>
        <pt x="575" y="798" on="0"/>
        <pt x="594" y="790" on="1"/>
        <pt x="582" y="759" on="1"/>
        <pt x="550" y="775" on="0"/>
        <pt x="518" y="775" on="1"/>
        <pt x="474" y="775" on="0"/>
        <pt x="433" y="709" on="0"/>
        <pt x="433" y="650" on="1"/>
        <pt x="433" y="0" on="1"/>
      </contour>
      <contour>
        <pt x="37" y="494" on="1"/>
        <pt x="37" y="522" on="1"/>
        <pt x="110" y="527" on="1"/>
        <pt x="557" y="527" on="1"/>
        <pt x="557" y="494" on="1"/>
      </contour>
      <contour>
        <pt x="672" y="0" on="1"/>
        <pt x="672" y="527" on="1"/>
        <pt x="707" y="527" on="1"/>
        <pt x="707" y="0" on="1"/>
      </contour>
      <contour>
        <pt x="690" y="660" on="1"/>
        <pt x="675" y="660" on="0"/>
        <pt x="654" y="682" on="0"/>
        <pt x="654" y="701" on="1"/>
        <pt x="654" y="718" on="0"/>
        <pt x="675" y="739" on="0"/>
        <pt x="690" y="739" on="1"/>
        <pt x="706" y="739" on="0"/>
        <pt x="727" y="718" on="0"/>
        <pt x="727" y="701" on="1"/>
        <pt x="727" y="682" on="0"/>
        <pt x="706" y="660" on="0"/>
      </contour>
    </TTGlyph>
    <TTGlyph name="glyph03672" xMin="37" yMin="-13" xMax="756" yMax="807">
      <contour>
        <pt x="110" y="0" on="1"/>
        <pt x="110" y="633" on="1"/>
        <pt x="110" y="688" on="0"/>
        <pt x="143" y="760" on="0"/>
        <pt x="204" y="796" on="0"/>
        <pt x="245" y="796" on="1"/>
        <pt x="266" y="796" on="0"/>
        <pt x="310" y="787" on="0"/>
        <pt x="332" y="777" on="1"/>
        <pt x="321" y="746" on="1"/>
        <pt x="301" y="756" on="0"/>
        <pt x="262" y="764" on="0"/>
        <pt x="244" y="764" on="1"/>
        <pt x="195" y="764" on="0"/>
        <pt x="145" y="693" on="0"/>
        <pt x="145" y="628" on="1"/>
        <pt x="145" y="0" on="1"/>
      </contour>
      <contour>
        <pt x="397" y="0" on="1"/>
        <pt x="397" y="655" on="1"/>
        <pt x="397" y="707" on="0"/>
        <pt x="426" y="774" on="0"/>
        <pt x="482" y="807" on="0"/>
        <pt x="520" y="807" on="1"/>
        <pt x="537" y="807" on="0"/>
        <pt x="575" y="798" on="0"/>
        <pt x="594" y="790" on="1"/>
        <pt x="582" y="759" on="1"/>
        <pt x="550" y="775" on="0"/>
        <pt x="518" y="775" on="1"/>
        <pt x="474" y="775" on="0"/>
        <pt x="433" y="709" on="0"/>
        <pt x="433" y="650" on="1"/>
        <pt x="433" y="0" on="1"/>
      </contour>
      <contour>
        <pt x="37" y="494" on="1"/>
        <pt x="37" y="522" on="1"/>
        <pt x="110" y="527" on="1"/>
        <pt x="557" y="527" on="1"/>
        <pt x="557" y="494" on="1"/>
      </contour>
      <contour>
        <pt x="727" y="-13" on="1"/>
        <pt x="710" y="-13" on="0"/>
        <pt x="685" y="2" on="0"/>
        <pt x="672" y="34" on="0"/>
        <pt x="672" y="59" on="1"/>
        <pt x="672" y="794" on="1"/>
        <pt x="707" y="794" on="1"/>
        <pt x="707" y="53" on="1"/>
        <pt x="707" y="37" on="0"/>
        <pt x="719" y="20" on="0"/>
        <pt x="729" y="20" on="1"/>
        <pt x="733" y="20" on="0"/>
        <pt x="741" y="21" on="0"/>
        <pt x="749" y="22" on="1"/>
        <pt x="756" y="-9" on="1"/>
        <pt x="749" y="-10" on="0"/>
        <pt x="737" y="-13" on="0"/>
      </contour>
    </TTGlyph>
    <TTGlyph name="glyph03673" xMin="668" yMin="604" xMax="829" yMax="908">
      <contour>
        <pt x="681" y="604" on="1"/>
        <pt x="668" y="629" on="1"/>
        <pt x="728" y="660" on="0"/>
        <pt x="791" y="746" on="0"/>
        <pt x="791" y="816" on="1"/>
        <pt x="761" y="886" on="1"/>
        <pt x="814" y="824" on="1"/>
        <pt x="804" y="809" on="0"/>
        <pt x="779" y="801" on="0"/>
        <pt x="767" y="801" on="1"/>
        <pt x="743" y="801" on="0"/>
        <pt x="713" y="826" on="0"/>
        <pt x="713" y="854" on="1"/>
        <pt x="713" y="883" on="0"/>
        <pt x="746" y="908" on="0"/>
        <pt x="766" y="908" on="1"/>
        <pt x="797" y="908" on="0"/>
        <pt x="829" y="857" on="0"/>
        <pt x="829" y="815" on="1"/>
        <pt x="829" y="738" on="0"/>
        <pt x="746" y="631" on="0"/>
      </contour>
    </TTGlyph>
    <TTGlyph name="glyph03674" xMin="685" yMin="565" xMax="937" yMax="810">
      <contour>
        <pt x="909" y="565" on="1"/>
        <pt x="859" y="627" on="0"/>
        <pt x="738" y="746" on="0"/>
        <pt x="685" y="787" on="1"/>
        <pt x="710" y="810" on="1"/>
        <pt x="746" y="782" on="0"/>
        <pt x="823" y="710" on="0"/>
        <pt x="901" y="631" on="0"/>
        <pt x="937" y="589" on="1"/>
      </contour>
    </TTGlyph>
    <TTGlyph name="glyph03675" xMin="667" yMin="523" xMax="949" yMax="805">
      <contour>
        <pt x="808" y="805" on="1"/>
        <pt x="847" y="805" on="0"/>
        <pt x="911" y="767" on="0"/>
        <pt x="949" y="703" on="0"/>
        <pt x="949" y="664" on="1"/>
        <pt x="949" y="625" on="0"/>
        <pt x="911" y="561" on="0"/>
        <pt x="847" y="523" on="0"/>
        <pt x="808" y="523" on="1"/>
        <pt x="770" y="523" on="0"/>
        <pt x="705" y="561" on="0"/>
        <pt x="667" y="625" on="0"/>
        <pt x="667" y="664" on="1"/>
        <pt x="667" y="703" on="0"/>
        <pt x="705" y="767" on="0"/>
        <pt x="770" y="805" on="0"/>
      </contour>
      <contour>
        <pt x="808" y="552" on="1"/>
        <pt x="855" y="552" on="0"/>
        <pt x="920" y="618" on="0"/>
        <pt x="920" y="664" on="1"/>
        <pt x="920" y="695" on="0"/>
        <pt x="890" y="745" on="0"/>
        <pt x="839" y="775" on="0"/>
        <pt x="808" y="775" on="1"/>
        <pt x="778" y="775" on="0"/>
        <pt x="727" y="745" on="0"/>
        <pt x="697" y="695" on="0"/>
        <pt x="697" y="664" on="1"/>
        <pt x="697" y="633" on="0"/>
        <pt x="727" y="582" on="0"/>
        <pt x="778" y="552" on="0"/>
      </contour>
    </TTGlyph>
    <TTGlyph name="glyph03676" xMin="668" yMin="144" xMax="780" yMax="758">
      <contour>
        <pt x="724" y="646" on="1"/>
        <pt x="703" y="646" on="0"/>
        <pt x="668" y="674" on="0"/>
        <pt x="668" y="702" on="1"/>
        <pt x="668" y="730" on="0"/>
        <pt x="703" y="758" on="0"/>
        <pt x="724" y="758" on="1"/>
        <pt x="745" y="758" on="0"/>
        <pt x="780" y="730" on="0"/>
        <pt x="780" y="702" on="1"/>
        <pt x="780" y="674" on="0"/>
        <pt x="745" y="646" on="0"/>
      </contour>
      <contour>
        <pt x="724" y="144" on="1"/>
        <pt x="703" y="144" on="0"/>
        <pt x="668" y="172" on="0"/>
        <pt x="668" y="200" on="1"/>
        <pt x="668" y="228" on="0"/>
        <pt x="703" y="256" on="0"/>
        <pt x="724" y="256" on="1"/>
        <pt x="745" y="256" on="0"/>
        <pt x="780" y="228" on="0"/>
        <pt x="780" y="200" on="1"/>
        <pt x="780" y="172" on="0"/>
        <pt x="745" y="144" on="0"/>
      </contour>
    </TTGlyph>
    <TTGlyph name="glyph03757" xMin="92" yMin="657" xMax="279" yMax="880">
      <contour>
        <pt x="99" y="657" on="1"/>
        <pt x="92" y="813" on="1"/>
        <pt x="92" y="880" on="1"/>
        <pt x="136" y="880" on="1"/>
        <pt x="136" y="813" on="1"/>
        <pt x="129" y="657" on="1"/>
      </contour>
      <contour>
        <pt x="242" y="657" on="1"/>
        <pt x="235" y="813" on="1"/>
        <pt x="235" y="880" on="1"/>
        <pt x="279" y="880" on="1"/>
        <pt x="279" y="813" on="1"/>
        <pt x="272" y="657" on="1"/>
      </contour>
    </TTGlyph>
    <TTGlyph name="glyph03758" xMin="92" yMin="657" xMax="136" yMax="880">
      <contour>
        <pt x="99" y="657" on="1"/>
        <pt x="92" y="813" on="1"/>
        <pt x="92" y="880" on="1"/>
        <pt x="136" y="880" on="1"/>
        <pt x="136" y="813" on="1"/>
        <pt x="129" y="657" on="1"/>
      </contour>
    </TTGlyph>
    <TTGlyph name="glyph03766" xMin="55" yMin="-13" xMax="466" yMax="717">
      <contour>
        <pt x="261" y="-13" on="1"/>
        <pt x="195" y="-13" on="0"/>
        <pt x="103" y="73" on="0"/>
        <pt x="55" y="237" on="0"/>
        <pt x="55" y="354" on="1"/>
        <pt x="55" y="471" on="0"/>
        <pt x="103" y="633" on="0"/>
        <pt x="195" y="717" on="0"/>
        <pt x="261" y="717" on="1"/>
        <pt x="327" y="717" on="0"/>
        <pt x="419" y="633" on="0"/>
        <pt x="466" y="471" on="0"/>
        <pt x="466" y="354" on="1"/>
        <pt x="466" y="237" on="0"/>
        <pt x="419" y="73" on="0"/>
        <pt x="327" y="-13" on="0"/>
      </contour>
      <contour>
        <pt x="261" y="20" on="1"/>
        <pt x="312" y="20" on="0"/>
        <pt x="388" y="97" on="0"/>
        <pt x="429" y="246" on="0"/>
        <pt x="429" y="354" on="1"/>
        <pt x="429" y="463" on="0"/>
        <pt x="388" y="610" on="0"/>
        <pt x="312" y="685" on="0"/>
        <pt x="261" y="685" on="1"/>
        <pt x="210" y="685" on="0"/>
        <pt x="134" y="610" on="0"/>
        <pt x="92" y="463" on="0"/>
        <pt x="92" y="354" on="1"/>
        <pt x="92" y="246" on="0"/>
        <pt x="134" y="97" on="0"/>
        <pt x="210" y="20" on="0"/>
      </contour>
    </TTGlyph>
    <TTGlyph name="glyph03767" xMin="95" yMin="0" xMax="453" yMax="704">
      <contour>
        <pt x="95" y="0" on="1"/>
        <pt x="95" y="33" on="1"/>
        <pt x="262" y="33" on="1"/>
        <pt x="262" y="636" on="1"/>
        <pt x="135" y="636" on="1"/>
        <pt x="135" y="662" on="1"/>
        <pt x="177" y="669" on="0"/>
        <pt x="243" y="691" on="0"/>
        <pt x="266" y="704" on="1"/>
        <pt x="297" y="704" on="1"/>
        <pt x="297" y="33" on="1"/>
        <pt x="453" y="33" on="1"/>
        <pt x="453" y="0" on="1"/>
      </contour>
    </TTGlyph>
    <TTGlyph name="glyph03768" xMin="44" yMin="0" xMax="471" yMax="717">
      <contour>
        <pt x="46" y="0" on="1"/>
        <pt x="46" y="23" on="1"/>
        <pt x="165" y="145" on="0"/>
        <pt x="320" y="322" on="0"/>
        <pt x="397" y="461" on="0"/>
        <pt x="397" y="524" on="1"/>
        <pt x="397" y="569" on="0"/>
        <pt x="364" y="642" on="0"/>
        <pt x="294" y="685" on="0"/>
        <pt x="238" y="685" on="1"/>
        <pt x="189" y="685" on="0"/>
        <pt x="102" y="632" on="0"/>
        <pt x="69" y="591" on="1"/>
        <pt x="44" y="614" on="1"/>
        <pt x="82" y="658" on="0"/>
        <pt x="177" y="717" on="0"/>
        <pt x="241" y="717" on="1"/>
        <pt x="303" y="717" on="0"/>
        <pt x="389" y="669" on="0"/>
        <pt x="435" y="582" on="0"/>
        <pt x="435" y="524" on="1"/>
        <pt x="435" y="453" on="0"/>
        <pt x="353" y="307" on="0"/>
        <pt x="203" y="137" on="0"/>
        <pt x="100" y="28" on="1"/>
        <pt x="129" y="30" on="0"/>
        <pt x="190" y="33" on="0"/>
        <pt x="219" y="33" on="1"/>
        <pt x="471" y="33" on="1"/>
        <pt x="471" y="0" on="1"/>
      </contour>
    </TTGlyph>
    <TTGlyph name="glyph03769" xMin="33" yMin="-13" xMax="464" yMax="717">
      <contour>
        <pt x="253" y="-13" on="1"/>
        <pt x="197" y="-13" on="0"/>
        <pt x="115" y="17" on="0"/>
        <pt x="55" y="63" on="0"/>
        <pt x="33" y="86" on="1"/>
        <pt x="56" y="112" on="1"/>
        <pt x="88" y="78" on="0"/>
        <pt x="180" y="20" on="0"/>
        <pt x="255" y="20" on="1"/>
        <pt x="305" y="20" on="0"/>
        <pt x="382" y="61" on="0"/>
        <pt x="426" y="134" on="0"/>
        <pt x="426" y="183" on="1"/>
        <pt x="426" y="234" on="0"/>
        <pt x="374" y="310" on="0"/>
        <pt x="263" y="353" on="0"/>
        <pt x="174" y="353" on="1"/>
        <pt x="174" y="388" on="1"/>
        <pt x="258" y="388" on="0"/>
        <pt x="356" y="431" on="0"/>
        <pt x="399" y="504" on="0"/>
        <pt x="399" y="548" on="1"/>
        <pt x="399" y="610" on="0"/>
        <pt x="319" y="685" on="0"/>
        <pt x="251" y="685" on="1"/>
        <pt x="202" y="685" on="0"/>
        <pt x="116" y="639" on="0"/>
        <pt x="87" y="606" on="1"/>
        <pt x="64" y="631" on="1"/>
        <pt x="99" y="666" on="0"/>
        <pt x="190" y="717" on="0"/>
        <pt x="251" y="717" on="1"/>
        <pt x="303" y="717" on="0"/>
        <pt x="388" y="678" on="0"/>
        <pt x="438" y="603" on="0"/>
        <pt x="438" y="550" on="1"/>
        <pt x="438" y="479" on="0"/>
        <pt x="359" y="393" on="0"/>
        <pt x="301" y="374" on="1"/>
        <pt x="301" y="370" on="1"/>
        <pt x="345" y="361" on="0"/>
        <pt x="419" y="312" on="0"/>
        <pt x="464" y="236" on="0"/>
        <pt x="464" y="185" on="1"/>
        <pt x="464" y="124" on="0"/>
        <pt x="408" y="36" on="0"/>
        <pt x="313" y="-13" on="0"/>
      </contour>
    </TTGlyph>
    <TTGlyph name="glyph03770" xMin="18" yMin="0" xMax="486" yMax="704">
      <contour>
        <pt x="343" y="0" on="1"/>
        <pt x="343" y="522" on="1"/>
        <pt x="343" y="545" on="0"/>
        <pt x="346" y="616" on="0"/>
        <pt x="348" y="639" on="1"/>
        <pt x="343" y="639" on="1"/>
        <pt x="330" y="618" on="0"/>
        <pt x="301" y="578" on="0"/>
        <pt x="286" y="555" on="1"/>
        <pt x="66" y="247" on="1"/>
        <pt x="486" y="247" on="1"/>
        <pt x="486" y="215" on="1"/>
        <pt x="18" y="215" on="1"/>
        <pt x="18" y="234" on="1"/>
        <pt x="353" y="704" on="1"/>
        <pt x="378" y="704" on="1"/>
        <pt x="378" y="0" on="1"/>
      </contour>
    </TTGlyph>
    <TTGlyph name="glyph03771" xMin="29" yMin="-13" xMax="468" yMax="704">
      <contour>
        <pt x="247" y="-13" on="1"/>
        <pt x="191" y="-13" on="0"/>
        <pt x="110" y="16" on="0"/>
        <pt x="51" y="59" on="0"/>
        <pt x="29" y="81" on="1"/>
        <pt x="52" y="108" on="1"/>
        <pt x="73" y="86" on="0"/>
        <pt x="126" y="46" on="0"/>
        <pt x="199" y="20" on="0"/>
        <pt x="249" y="20" on="1"/>
        <pt x="297" y="20" on="0"/>
        <pt x="380" y="70" on="0"/>
        <pt x="430" y="159" on="0"/>
        <pt x="430" y="218" on="1"/>
        <pt x="430" y="307" on="0"/>
        <pt x="333" y="408" on="0"/>
        <pt x="251" y="408" on="1"/>
        <pt x="211" y="408" on="0"/>
        <pt x="149" y="381" on="0"/>
        <pt x="118" y="360" on="1"/>
        <pt x="88" y="378" on="1"/>
        <pt x="114" y="704" on="1"/>
        <pt x="431" y="704" on="1"/>
        <pt x="431" y="671" on="1"/>
        <pt x="147" y="671" on="1"/>
        <pt x="123" y="404" on="1"/>
        <pt x="151" y="421" on="0"/>
        <pt x="214" y="442" on="0"/>
        <pt x="254" y="442" on="1"/>
        <pt x="314" y="442" on="0"/>
        <pt x="411" y="395" on="0"/>
        <pt x="468" y="297" on="0"/>
        <pt x="468" y="220" on="1"/>
        <pt x="468" y="145" on="0"/>
        <pt x="403" y="41" on="0"/>
        <pt x="302" y="-13" on="0"/>
      </contour>
    </TTGlyph>
    <TTGlyph name="glyph03772" xMin="59" yMin="-13" xMax="473" yMax="717">
      <contour>
        <pt x="285" y="-13" on="1"/>
        <pt x="232" y="-13" on="0"/>
        <pt x="148" y="31" on="0"/>
        <pt x="90" y="116" on="0"/>
        <pt x="59" y="239" on="0"/>
        <pt x="59" y="318" on="1"/>
        <pt x="59" y="430" on="0"/>
        <pt x="100" y="583" on="0"/>
        <pt x="172" y="676" on="0"/>
        <pt x="264" y="717" on="0"/>
        <pt x="315" y="717" on="1"/>
        <pt x="362" y="717" on="0"/>
        <pt x="431" y="681" on="0"/>
        <pt x="457" y="651" on="1"/>
        <pt x="434" y="626" on="1"/>
        <pt x="411" y="655" on="0"/>
        <pt x="348" y="684" on="0"/>
        <pt x="313" y="684" on="1"/>
        <pt x="255" y="684" on="0"/>
        <pt x="157" y="615" on="0"/>
        <pt x="97" y="455" on="0"/>
        <pt x="97" y="318" on="1"/>
        <pt x="97" y="231" on="0"/>
        <pt x="137" y="97" on="0"/>
        <pt x="221" y="20" on="0"/>
        <pt x="287" y="20" on="1"/>
        <pt x="330" y="20" on="0"/>
        <pt x="397" y="70" on="0"/>
        <pt x="436" y="154" on="0"/>
        <pt x="436" y="205" on="1"/>
        <pt x="436" y="258" on="0"/>
        <pt x="403" y="342" on="0"/>
        <pt x="333" y="391" on="0"/>
        <pt x="276" y="391" on="1"/>
        <pt x="236" y="391" on="0"/>
        <pt x="139" y="337" on="0"/>
        <pt x="92" y="273" on="1"/>
        <pt x="92" y="318" on="1"/>
        <pt x="118" y="350" on="0"/>
        <pt x="177" y="397" on="0"/>
        <pt x="244" y="423" on="0"/>
        <pt x="278" y="423" on="1"/>
        <pt x="340" y="423" on="0"/>
        <pt x="427" y="373" on="0"/>
        <pt x="473" y="276" on="0"/>
        <pt x="473" y="205" on="1"/>
        <pt x="473" y="142" on="0"/>
        <pt x="421" y="44" on="0"/>
        <pt x="336" y="-13" on="0"/>
      </contour>
    </TTGlyph>
    <TTGlyph name="glyph03773" xMin="48" yMin="0" xMax="474" yMax="704">
      <contour>
        <pt x="210" y="0" on="1"/>
        <pt x="215" y="108" on="0"/>
        <pt x="243" y="290" on="0"/>
        <pt x="295" y="449" on="0"/>
        <pt x="372" y="596" on="0"/>
        <pt x="426" y="671" on="1"/>
        <pt x="48" y="671" on="1"/>
        <pt x="48" y="704" on="1"/>
        <pt x="474" y="704" on="1"/>
        <pt x="474" y="683" on="1"/>
        <pt x="411" y="598" on="0"/>
        <pt x="328" y="440" on="0"/>
        <pt x="279" y="279" on="0"/>
        <pt x="255" y="103" on="0"/>
        <pt x="251" y="0" on="1"/>
      </contour>
    </TTGlyph>
    <TTGlyph name="glyph03774" xMin="44" yMin="-13" xMax="475" yMax="717">
      <contour>
        <pt x="265" y="-13" on="1"/>
        <pt x="201" y="-13" on="0"/>
        <pt x="101" y="38" on="0"/>
        <pt x="44" y="125" on="0"/>
        <pt x="44" y="180" on="1"/>
        <pt x="44" y="229" on="0"/>
        <pt x="88" y="307" on="0"/>
        <pt x="154" y="366" on="0"/>
        <pt x="187" y="383" on="1"/>
        <pt x="187" y="387" on="1"/>
        <pt x="149" y="412" on="0"/>
        <pt x="86" y="492" on="0"/>
        <pt x="86" y="548" on="1"/>
        <pt x="86" y="598" on="0"/>
        <pt x="134" y="674" on="0"/>
        <pt x="215" y="717" on="0"/>
        <pt x="265" y="717" on="1"/>
        <pt x="325" y="717" on="0"/>
        <pt x="408" y="669" on="0"/>
        <pt x="452" y="587" on="0"/>
        <pt x="452" y="535" on="1"/>
        <pt x="452" y="495" on="0"/>
        <pt x="418" y="424" on="0"/>
        <pt x="372" y="370" on="0"/>
        <pt x="352" y="353" on="1"/>
        <pt x="352" y="349" on="1"/>
        <pt x="382" y="330" on="0"/>
        <pt x="438" y="283" on="0"/>
        <pt x="475" y="217" on="0"/>
        <pt x="475" y="169" on="1"/>
        <pt x="475" y="119" on="0"/>
        <pt x="422" y="36" on="0"/>
        <pt x="328" y="-13" on="0"/>
      </contour>
      <contour>
        <pt x="318" y="364" on="1"/>
        <pt x="365" y="402" on="0"/>
        <pt x="416" y="487" on="0"/>
        <pt x="416" y="535" on="1"/>
        <pt x="416" y="575" on="0"/>
        <pt x="381" y="643" on="0"/>
        <pt x="313" y="685" on="0"/>
        <pt x="265" y="685" on="1"/>
        <pt x="202" y="685" on="0"/>
        <pt x="123" y="607" on="0"/>
        <pt x="123" y="548" on="1"/>
        <pt x="123" y="496" on="0"/>
        <pt x="181" y="428" on="0"/>
        <pt x="271" y="383" on="0"/>
      </contour>
      <contour>
        <pt x="265" y="20" on="1"/>
        <pt x="318" y="20" on="0"/>
        <pt x="395" y="60" on="0"/>
        <pt x="437" y="128" on="0"/>
        <pt x="437" y="169" on="1"/>
        <pt x="437" y="212" on="0"/>
        <pt x="399" y="273" on="0"/>
        <pt x="336" y="316" on="0"/>
        <pt x="256" y="350" on="0"/>
        <pt x="214" y="366" on="1"/>
        <pt x="156" y="333" on="0"/>
        <pt x="81" y="242" on="0"/>
        <pt x="81" y="180" on="1"/>
        <pt x="81" y="136" on="0"/>
        <pt x="128" y="63" on="0"/>
        <pt x="212" y="20" on="0"/>
      </contour>
    </TTGlyph>
    <TTGlyph name="glyph03775" xMin="48" yMin="-13" xMax="462" yMax="717">
      <contour>
        <pt x="206" y="-13" on="1"/>
        <pt x="159" y="-13" on="0"/>
        <pt x="90" y="23" on="0"/>
        <pt x="64" y="53" on="1"/>
        <pt x="87" y="79" on="1"/>
        <pt x="111" y="49" on="0"/>
        <pt x="174" y="20" on="0"/>
        <pt x="208" y="20" on="1"/>
        <pt x="266" y="20" on="0"/>
        <pt x="364" y="89" on="0"/>
        <pt x="425" y="250" on="0"/>
        <pt x="425" y="387" on="1"/>
        <pt x="425" y="473" on="0"/>
        <pt x="385" y="608" on="0"/>
        <pt x="301" y="685" on="0"/>
        <pt x="234" y="685" on="1"/>
        <pt x="192" y="685" on="0"/>
        <pt x="125" y="635" on="0"/>
        <pt x="86" y="551" on="0"/>
        <pt x="86" y="499" on="1"/>
        <pt x="86" y="447" on="0"/>
        <pt x="118" y="362" on="0"/>
        <pt x="189" y="313" on="0"/>
        <pt x="245" y="313" on="1"/>
        <pt x="285" y="313" on="0"/>
        <pt x="382" y="368" on="0"/>
        <pt x="428" y="432" on="1"/>
        <pt x="429" y="386" on="1"/>
        <pt x="404" y="355" on="0"/>
        <pt x="343" y="308" on="0"/>
        <pt x="277" y="282" on="0"/>
        <pt x="242" y="282" on="1"/>
        <pt x="181" y="282" on="0"/>
        <pt x="94" y="332" on="0"/>
        <pt x="48" y="429" on="0"/>
        <pt x="48" y="499" on="1"/>
        <pt x="48" y="562" on="0"/>
        <pt x="100" y="661" on="0"/>
        <pt x="185" y="717" on="0"/>
        <pt x="236" y="717" on="1"/>
        <pt x="289" y="717" on="0"/>
        <pt x="373" y="673" on="0"/>
        <pt x="431" y="588" on="0"/>
        <pt x="462" y="466" on="0"/>
        <pt x="462" y="387" on="1"/>
        <pt x="462" y="275" on="0"/>
        <pt x="420" y="121" on="0"/>
        <pt x="348" y="28" on="0"/>
        <pt x="256" y="-13" on="0"/>
      </contour>
    </TTGlyph>
    <TTGlyph name="glyph03919" xMin="0" yMin="362" xMax="1000" yMax="398">
      <contour>
        <pt x="1000" y="398" on="1"/>
        <pt x="1000" y="362" on="1"/>
        <pt x="0" y="362" on="1"/>
        <pt x="0" y="398" on="1"/>
      </contour>
    </TTGlyph>
    <TTGlyph name="h" xMin="105" yMin="0" xMax="484" yMax="794">
      <contour>
        <pt x="105" y="0" on="1"/>
        <pt x="105" y="794" on="1"/>
        <pt x="141" y="794" on="1"/>
        <pt x="141" y="560" on="1"/>
        <pt x="141" y="441" on="1"/>
        <pt x="183" y="484" on="0"/>
        <pt x="270" y="540" on="0"/>
        <pt x="325" y="540" on="1"/>
        <pt x="406" y="540" on="0"/>
        <pt x="484" y="441" on="0"/>
        <pt x="484" y="339" on="1"/>
        <pt x="484" y="0" on="1"/>
        <pt x="448" y="0" on="1"/>
        <pt x="448" y="334" on="1"/>
        <pt x="448" y="421" on="0"/>
        <pt x="389" y="507" on="0"/>
        <pt x="321" y="507" on="1"/>
        <pt x="272" y="507" on="0"/>
        <pt x="191" y="455" on="0"/>
        <pt x="141" y="403" on="1"/>
        <pt x="141" y="0" on="1"/>
      </contour>
    </TTGlyph>
    <TTGlyph name="hyphen" xMin="44" yMin="256" xMax="283" yMax="291">
      <contour>
        <pt x="44" y="256" on="1"/>
        <pt x="44" y="291" on="1"/>
        <pt x="283" y="291" on="1"/>
        <pt x="283" y="256" on="1"/>
      </contour>
    </TTGlyph>
    <TTGlyph name="i" xMin="88" yMin="0" xMax="160" yMax="739">
      <contour>
        <pt x="105" y="0" on="1"/>
        <pt x="105" y="527" on="1"/>
        <pt x="141" y="527" on="1"/>
        <pt x="141" y="0" on="1"/>
      </contour>
      <contour>
        <pt x="124" y="660" on="1"/>
        <pt x="108" y="660" on="0"/>
        <pt x="88" y="682" on="0"/>
        <pt x="88" y="701" on="1"/>
        <pt x="88" y="718" on="0"/>
        <pt x="108" y="739" on="0"/>
        <pt x="124" y="739" on="1"/>
        <pt x="139" y="739" on="0"/>
        <pt x="160" y="718" on="0"/>
        <pt x="160" y="701" on="1"/>
        <pt x="160" y="682" on="0"/>
        <pt x="139" y="660" on="0"/>
      </contour>
    </TTGlyph>
    <TTGlyph name="j" xMin="-33" yMin="-256" xMax="158" yMax="739">
      <contour>
        <pt x="31" y="-256" on="1"/>
        <pt x="15" y="-256" on="0"/>
        <pt x="-22" y="-248" on="0"/>
        <pt x="-33" y="-243" on="1"/>
        <pt x="-24" y="-214" on="1"/>
        <pt x="-14" y="-217" on="0"/>
        <pt x="17" y="-225" on="0"/>
        <pt x="33" y="-225" on="1"/>
        <pt x="79" y="-225" on="0"/>
        <pt x="105" y="-157" on="0"/>
        <pt x="105" y="-106" on="1"/>
        <pt x="105" y="527" on="1"/>
        <pt x="141" y="527" on="1"/>
        <pt x="141" y="-110" on="1"/>
        <pt x="141" y="-160" on="0"/>
        <pt x="117" y="-225" on="0"/>
        <pt x="68" y="-256" on="0"/>
      </contour>
      <contour>
        <pt x="122" y="660" on="1"/>
        <pt x="106" y="660" on="0"/>
        <pt x="86" y="682" on="0"/>
        <pt x="86" y="701" on="1"/>
        <pt x="86" y="718" on="0"/>
        <pt x="106" y="739" on="0"/>
        <pt x="122" y="739" on="1"/>
        <pt x="137" y="739" on="0"/>
        <pt x="158" y="718" on="0"/>
        <pt x="158" y="701" on="1"/>
        <pt x="158" y="682" on="0"/>
        <pt x="137" y="660" on="0"/>
      </contour>
    </TTGlyph>
    <TTGlyph name="k" xMin="105" yMin="0" xMax="486" yMax="794">
      <contour>
        <pt x="105" y="0" on="1"/>
        <pt x="105" y="794" on="1"/>
        <pt x="141" y="794" on="1"/>
        <pt x="141" y="194" on="1"/>
        <pt x="143" y="194" on="1"/>
        <pt x="414" y="527" on="1"/>
        <pt x="456" y="527" on="1"/>
        <pt x="286" y="319" on="1"/>
        <pt x="486" y="0" on="1"/>
        <pt x="447" y="0" on="1"/>
        <pt x="265" y="292" on="1"/>
        <pt x="141" y="145" on="1"/>
        <pt x="141" y="0" on="1"/>
      </contour>
    </TTGlyph>
    <TTGlyph name="l" xMin="105" yMin="-13" xMax="189" yMax="794">
      <contour>
        <pt x="159" y="-13" on="1"/>
        <pt x="142" y="-13" on="0"/>
        <pt x="118" y="2" on="0"/>
        <pt x="105" y="34" on="0"/>
        <pt x="105" y="59" on="1"/>
        <pt x="105" y="794" on="1"/>
        <pt x="141" y="794" on="1"/>
        <pt x="141" y="53" on="1"/>
        <pt x="141" y="37" on="0"/>
        <pt x="153" y="20" on="0"/>
        <pt x="163" y="20" on="1"/>
        <pt x="166" y="20" on="0"/>
        <pt x="174" y="21" on="0"/>
        <pt x="182" y="22" on="1"/>
        <pt x="189" y="-9" on="1"/>
        <pt x="182" y="-10" on="0"/>
        <pt x="170" y="-13" on="0"/>
      </contour>
    </TTGlyph>
    <TTGlyph name="m" xMin="105" yMin="0" xMax="792" yMax="540">
      <contour>
        <pt x="105" y="0" on="1"/>
        <pt x="105" y="527" on="1"/>
        <pt x="135" y="527" on="1"/>
        <pt x="141" y="443" on="1"/>
        <pt x="143" y="443" on="1"/>
        <pt x="179" y="484" on="0"/>
        <pt x="267" y="540" on="0"/>
        <pt x="310" y="540" on="1"/>
        <pt x="375" y="540" on="0"/>
        <pt x="442" y="480" on="0"/>
        <pt x="455" y="430" on="1"/>
        <pt x="502" y="481" on="0"/>
        <pt x="591" y="540" on="0"/>
        <pt x="636" y="540" on="1"/>
        <pt x="713" y="540" on="0"/>
        <pt x="792" y="441" on="0"/>
        <pt x="792" y="339" on="1"/>
        <pt x="792" y="0" on="1"/>
        <pt x="757" y="0" on="1"/>
        <pt x="757" y="334" on="1"/>
        <pt x="757" y="421" on="0"/>
        <pt x="696" y="507" on="0"/>
        <pt x="632" y="507" on="1"/>
        <pt x="593" y="507" on="0"/>
        <pt x="513" y="455" on="0"/>
        <pt x="466" y="403" on="1"/>
        <pt x="466" y="0" on="1"/>
        <pt x="431" y="0" on="1"/>
        <pt x="431" y="334" on="1"/>
        <pt x="431" y="421" on="0"/>
        <pt x="371" y="507" on="0"/>
        <pt x="307" y="507" on="1"/>
        <pt x="269" y="507" on="0"/>
        <pt x="186" y="455" on="0"/>
        <pt x="141" y="403" on="1"/>
        <pt x="141" y="0" on="1"/>
      </contour>
    </TTGlyph>
    <TTGlyph name="n" xMin="105" yMin="0" xMax="484" yMax="540">
      <contour>
        <pt x="105" y="0" on="1"/>
        <pt x="105" y="527" on="1"/>
        <pt x="135" y="527" on="1"/>
        <pt x="141" y="443" on="1"/>
        <pt x="143" y="443" on="1"/>
        <pt x="184" y="484" on="0"/>
        <pt x="270" y="540" on="0"/>
        <pt x="325" y="540" on="1"/>
        <pt x="406" y="540" on="0"/>
        <pt x="484" y="441" on="0"/>
        <pt x="484" y="339" on="1"/>
        <pt x="484" y="0" on="1"/>
        <pt x="448" y="0" on="1"/>
        <pt x="448" y="334" on="1"/>
        <pt x="448" y="421" on="0"/>
        <pt x="389" y="507" on="0"/>
        <pt x="321" y="507" on="1"/>
        <pt x="272" y="507" on="0"/>
        <pt x="191" y="455" on="0"/>
        <pt x="141" y="403" on="1"/>
        <pt x="141" y="0" on="1"/>
      </contour>
    </TTGlyph>
    <TTGlyph name="nine" xMin="48" yMin="-13" xMax="462" yMax="739">
      <contour>
        <pt x="214" y="-13" on="1"/>
        <pt x="164" y="-13" on="0"/>
        <pt x="92" y="23" on="0"/>
        <pt x="64" y="53" on="1"/>
        <pt x="87" y="79" on="1"/>
        <pt x="113" y="49" on="0"/>
        <pt x="179" y="20" on="0"/>
        <pt x="217" y="20" on="1"/>
        <pt x="258" y="20" on="0"/>
        <pt x="333" y="60" on="0"/>
        <pt x="391" y="151" on="0"/>
        <pt x="425" y="300" on="0"/>
        <pt x="425" y="409" on="1"/>
        <pt x="425" y="495" on="0"/>
        <pt x="385" y="630" on="0"/>
        <pt x="301" y="707" on="0"/>
        <pt x="234" y="707" on="1"/>
        <pt x="192" y="707" on="0"/>
        <pt x="125" y="654" on="0"/>
        <pt x="86" y="565" on="0"/>
        <pt x="86" y="510" on="1"/>
        <pt x="86" y="455" on="0"/>
        <pt x="118" y="366" on="0"/>
        <pt x="188" y="313" on="0"/>
        <pt x="243" y="313" on="1"/>
        <pt x="286" y="313" on="0"/>
        <pt x="382" y="369" on="0"/>
        <pt x="428" y="432" on="1"/>
        <pt x="429" y="386" on="1"/>
        <pt x="404" y="356" on="0"/>
        <pt x="345" y="309" on="0"/>
        <pt x="278" y="282" on="0"/>
        <pt x="240" y="282" on="1"/>
        <pt x="180" y="282" on="0"/>
        <pt x="94" y="335" on="0"/>
        <pt x="48" y="437" on="0"/>
        <pt x="48" y="510" on="1"/>
        <pt x="48" y="576" on="0"/>
        <pt x="100" y="680" on="0"/>
        <pt x="185" y="739" on="0"/>
        <pt x="236" y="739" on="1"/>
        <pt x="289" y="739" on="0"/>
        <pt x="373" y="695" on="0"/>
        <pt x="431" y="610" on="0"/>
        <pt x="462" y="488" on="0"/>
        <pt x="462" y="409" on="1"/>
        <pt x="462" y="291" on="0"/>
        <pt x="421" y="129" on="0"/>
        <pt x="351" y="31" on="0"/>
        <pt x="262" y="-13" on="0"/>
      </contour>
    </TTGlyph>
    <TTGlyph name="o" xMin="59" yMin="-13" xMax="527" yMax="540">
      <contour>
        <pt x="293" y="-13" on="1"/>
        <pt x="230" y="-13" on="0"/>
        <pt x="123" y="52" on="0"/>
        <pt x="59" y="175" on="0"/>
        <pt x="59" y="262" on="1"/>
        <pt x="59" y="351" on="0"/>
        <pt x="123" y="475" on="0"/>
        <pt x="230" y="540" on="0"/>
        <pt x="293" y="540" on="1"/>
        <pt x="340" y="540" on="0"/>
        <pt x="425" y="503" on="0"/>
        <pt x="490" y="432" on="0"/>
        <pt x="527" y="328" on="0"/>
        <pt x="527" y="262" on="1"/>
        <pt x="527" y="175" on="0"/>
        <pt x="462" y="52" on="0"/>
        <pt x="356" y="-13" on="0"/>
      </contour>
      <contour>
        <pt x="293" y="20" on="1"/>
        <pt x="349" y="20" on="0"/>
        <pt x="438" y="81" on="0"/>
        <pt x="490" y="190" on="0"/>
        <pt x="490" y="262" on="1"/>
        <pt x="490" y="335" on="0"/>
        <pt x="438" y="445" on="0"/>
        <pt x="349" y="507" on="0"/>
        <pt x="293" y="507" on="1"/>
        <pt x="237" y="507" on="0"/>
        <pt x="148" y="445" on="0"/>
        <pt x="97" y="335" on="0"/>
        <pt x="97" y="262" on="1"/>
        <pt x="97" y="190" on="0"/>
        <pt x="148" y="81" on="0"/>
        <pt x="237" y="20" on="0"/>
      </contour>
    </TTGlyph>
    <TTGlyph name="one" xMin="95" yMin="0" xMax="453" yMax="726">
      <contour>
        <pt x="95" y="0" on="1"/>
        <pt x="95" y="33" on="1"/>
        <pt x="262" y="33" on="1"/>
        <pt x="262" y="658" on="1"/>
        <pt x="135" y="658" on="1"/>
        <pt x="135" y="684" on="1"/>
        <pt x="177" y="691" on="0"/>
        <pt x="243" y="713" on="0"/>
        <pt x="266" y="726" on="1"/>
        <pt x="297" y="726" on="1"/>
        <pt x="297" y="33" on="1"/>
        <pt x="453" y="33" on="1"/>
        <pt x="453" y="0" on="1"/>
      </contour>
    </TTGlyph>
    <TTGlyph name="p" xMin="105" yMin="-243" xMax="536" yMax="540">
      <contour>
        <pt x="105" y="-243" on="1"/>
        <pt x="105" y="527" on="1"/>
        <pt x="135" y="527" on="1"/>
        <pt x="141" y="459" on="1"/>
        <pt x="143" y="459" on="1"/>
        <pt x="182" y="490" on="0"/>
        <pt x="275" y="540" on="0"/>
        <pt x="324" y="540" on="1"/>
        <pt x="396" y="540" on="0"/>
        <pt x="490" y="473" on="0"/>
        <pt x="536" y="353" on="0"/>
        <pt x="536" y="271" on="1"/>
        <pt x="536" y="182" on="0"/>
        <pt x="471" y="54" on="0"/>
        <pt x="365" y="-13" on="0"/>
        <pt x="302" y="-13" on="1"/>
        <pt x="265" y="-13" on="0"/>
        <pt x="183" y="22" on="0"/>
        <pt x="141" y="53" on="1"/>
        <pt x="141" y="-46" on="1"/>
        <pt x="141" y="-243" on="1"/>
      </contour>
      <contour>
        <pt x="305" y="20" on="1"/>
        <pt x="361" y="20" on="0"/>
        <pt x="448" y="84" on="0"/>
        <pt x="498" y="198" on="0"/>
        <pt x="498" y="271" on="1"/>
        <pt x="498" y="338" on="0"/>
        <pt x="463" y="445" on="0"/>
        <pt x="386" y="507" on="0"/>
        <pt x="321" y="507" on="1"/>
        <pt x="281" y="507" on="0"/>
        <pt x="191" y="460" on="0"/>
        <pt x="141" y="416" on="1"/>
        <pt x="141" y="91" on="1"/>
        <pt x="188" y="52" on="0"/>
        <pt x="274" y="20" on="0"/>
      </contour>
    </TTGlyph>
    <TTGlyph name="parenleft" xMin="99" yMin="-191" xMax="265" yMax="804">
      <contour>
        <pt x="244" y="-191" on="1"/>
        <pt x="177" y="-82" on="0"/>
        <pt x="99" y="161" on="0"/>
        <pt x="99" y="306" on="1"/>
        <pt x="99" y="451" on="0"/>
        <pt x="177" y="695" on="0"/>
        <pt x="244" y="804" on="1"/>
        <pt x="265" y="790" on="1"/>
        <pt x="199" y="686" on="0"/>
        <pt x="132" y="438" on="0"/>
        <pt x="132" y="306" on="1"/>
        <pt x="132" y="174" on="0"/>
        <pt x="199" y="-74" on="0"/>
        <pt x="265" y="-178" on="1"/>
      </contour>
    </TTGlyph>
    <TTGlyph name="parenright" xMin="33" yMin="-191" xMax="200" yMax="804">
      <contour>
        <pt x="55" y="-191" on="1"/>
        <pt x="33" y="-178" on="1"/>
        <pt x="99" y="-74" on="0"/>
        <pt x="167" y="174" on="0"/>
        <pt x="167" y="306" on="1"/>
        <pt x="167" y="438" on="0"/>
        <pt x="99" y="686" on="0"/>
        <pt x="33" y="790" on="1"/>
        <pt x="55" y="804" on="1"/>
        <pt x="123" y="695" on="0"/>
        <pt x="200" y="451" on="0"/>
        <pt x="200" y="306" on="1"/>
        <pt x="200" y="161" on="0"/>
        <pt x="123" y="-82" on="0"/>
      </contour>
    </TTGlyph>
    <TTGlyph name="period" xMin="75" yMin="-13" xMax="156" yMax="75">
      <contour>
        <pt x="115" y="-13" on="1"/>
        <pt x="100" y="-13" on="0"/>
        <pt x="75" y="10" on="0"/>
        <pt x="75" y="30" on="1"/>
        <pt x="75" y="52" on="0"/>
        <pt x="100" y="75" on="0"/>
        <pt x="115" y="75" on="1"/>
        <pt x="131" y="75" on="0"/>
        <pt x="156" y="52" on="0"/>
        <pt x="156" y="30" on="1"/>
        <pt x="156" y="10" on="0"/>
        <pt x="131" y="-13" on="0"/>
      </contour>
    </TTGlyph>
    <TTGlyph name="q" xMin="59" yMin="-243" xMax="490" yMax="540">
      <contour>
        <pt x="454" y="-243" on="1"/>
        <pt x="454" y="-35" on="1"/>
        <pt x="457" y="73" on="1"/>
        <pt x="420" y="38" on="0"/>
        <pt x="332" y="-13" on="0"/>
        <pt x="277" y="-13" on="1"/>
        <pt x="211" y="-13" on="0"/>
        <pt x="113" y="50" on="0"/>
        <pt x="59" y="173" on="0"/>
        <pt x="59" y="262" on="1"/>
        <pt x="59" y="347" on="0"/>
        <pt x="124" y="472" on="0"/>
        <pt x="231" y="540" on="0"/>
        <pt x="295" y="540" on="1"/>
        <pt x="343" y="540" on="0"/>
        <pt x="416" y="507" on="0"/>
        <pt x="453" y="478" on="1"/>
        <pt x="455" y="478" on="1"/>
        <pt x="460" y="527" on="1"/>
        <pt x="490" y="527" on="1"/>
        <pt x="490" y="-243" on="1"/>
      </contour>
      <contour>
        <pt x="280" y="20" on="1"/>
        <pt x="326" y="20" on="0"/>
        <pt x="411" y="68" on="0"/>
        <pt x="454" y="111" on="1"/>
        <pt x="454" y="435" on="1"/>
        <pt x="411" y="474" on="0"/>
        <pt x="334" y="507" on="0"/>
        <pt x="293" y="507" on="1"/>
        <pt x="238" y="507" on="0"/>
        <pt x="149" y="441" on="0"/>
        <pt x="97" y="330" on="0"/>
        <pt x="97" y="262" on="1"/>
        <pt x="97" y="190" on="0"/>
        <pt x="140" y="81" on="0"/>
        <pt x="222" y="20" on="0"/>
      </contour>
    </TTGlyph>
    <TTGlyph name="question" xMin="40" yMin="-13" xMax="378" yMax="751">
      <contour>
        <pt x="180" y="190" on="1"/>
        <pt x="173" y="246" on="0"/>
        <pt x="201" y="333" on="0"/>
        <pt x="251" y="404" on="0"/>
        <pt x="304" y="470" on="0"/>
        <pt x="341" y="540" on="0"/>
        <pt x="341" y="583" on="1"/>
        <pt x="341" y="618" on="0"/>
        <pt x="313" y="679" on="0"/>
        <pt x="256" y="718" on="0"/>
        <pt x="210" y="718" on="1"/>
        <pt x="169" y="718" on="0"/>
        <pt x="91" y="681" on="0"/>
        <pt x="63" y="646" on="1"/>
        <pt x="40" y="667" on="1"/>
        <pt x="71" y="702" on="0"/>
        <pt x="156" y="751" on="0"/>
        <pt x="212" y="751" on="1"/>
        <pt x="265" y="751" on="0"/>
        <pt x="339" y="706" on="0"/>
        <pt x="378" y="631" on="0"/>
        <pt x="378" y="585" on="1"/>
        <pt x="378" y="539" on="0"/>
        <pt x="341" y="464" on="0"/>
        <pt x="287" y="396" on="0"/>
        <pt x="236" y="324" on="0"/>
        <pt x="206" y="242" on="0"/>
        <pt x="213" y="190" on="1"/>
      </contour>
      <contour>
        <pt x="201" y="-13" on="1"/>
        <pt x="185" y="-13" on="0"/>
        <pt x="161" y="10" on="0"/>
        <pt x="161" y="30" on="1"/>
        <pt x="161" y="52" on="0"/>
        <pt x="185" y="75" on="0"/>
        <pt x="201" y="75" on="1"/>
        <pt x="217" y="75" on="0"/>
        <pt x="242" y="52" on="0"/>
        <pt x="242" y="30" on="1"/>
        <pt x="242" y="10" on="0"/>
        <pt x="217" y="-13" on="0"/>
      </contour>
    </TTGlyph>
    <TTGlyph name="quotedbl" xMin="92" yMin="540" xMax="280" yMax="763">
      <contour>
        <pt x="99" y="540" on="1"/>
        <pt x="92" y="696" on="1"/>
        <pt x="92" y="763" on="1"/>
        <pt x="136" y="763" on="1"/>
        <pt x="136" y="696" on="1"/>
        <pt x="130" y="540" on="1"/>
      </contour>
      <contour>
        <pt x="243" y="540" on="1"/>
        <pt x="235" y="696" on="1"/>
        <pt x="235" y="763" on="1"/>
        <pt x="280" y="763" on="1"/>
        <pt x="280" y="696" on="1"/>
        <pt x="272" y="540" on="1"/>
      </contour>
    </TTGlyph>
    <TTGlyph name="quotesingle" xMin="92" yMin="540" xMax="136" yMax="763">
      <contour>
        <pt x="99" y="540" on="1"/>
        <pt x="92" y="696" on="1"/>
        <pt x="92" y="763" on="1"/>
        <pt x="136" y="763" on="1"/>
        <pt x="136" y="696" on="1"/>
        <pt x="130" y="540" on="1"/>
      </contour>
    </TTGlyph>
    <TTGlyph name="r" xMin="105" yMin="0" xMax="343" yMax="540">
      <contour>
        <pt x="105" y="0" on="1"/>
        <pt x="105" y="527" on="1"/>
        <pt x="135" y="527" on="1"/>
        <pt x="141" y="428" on="1"/>
        <pt x="143" y="428" on="1"/>
        <pt x="169" y="476" on="0"/>
        <pt x="245" y="540" on="0"/>
        <pt x="292" y="540" on="1"/>
        <pt x="306" y="540" on="0"/>
        <pt x="330" y="536" on="0"/>
        <pt x="343" y="529" on="1"/>
        <pt x="334" y="496" on="1"/>
        <pt x="321" y="501" on="0"/>
        <pt x="303" y="505" on="0"/>
        <pt x="287" y="505" on="1"/>
        <pt x="252" y="505" on="0"/>
        <pt x="172" y="442" on="0"/>
        <pt x="141" y="364" on="1"/>
        <pt x="141" y="0" on="1"/>
      </contour>
    </TTGlyph>
    <TTGlyph name="s" xMin="37" yMin="-13" xMax="401" yMax="540">
      <contour>
        <pt x="229" y="-13" on="1"/>
        <pt x="170" y="-13" on="0"/>
        <pt x="72" y="30" on="0"/>
        <pt x="37" y="59" on="1"/>
        <pt x="60" y="88" on="1"/>
        <pt x="93" y="60" on="0"/>
        <pt x="173" y="20" on="0"/>
        <pt x="231" y="20" on="1"/>
        <pt x="297" y="20" on="0"/>
        <pt x="364" y="86" on="0"/>
        <pt x="364" y="131" on="1"/>
        <pt x="364" y="166" on="0"/>
        <pt x="324" y="212" on="0"/>
        <pt x="263" y="242" on="0"/>
        <pt x="232" y="253" on="1"/>
        <pt x="192" y="268" on="0"/>
        <pt x="116" y="302" on="0"/>
        <pt x="66" y="358" on="0"/>
        <pt x="66" y="403" on="1"/>
        <pt x="66" y="440" on="0"/>
        <pt x="104" y="502" on="0"/>
        <pt x="178" y="540" on="0"/>
        <pt x="232" y="540" on="1"/>
        <pt x="272" y="540" on="0"/>
        <pt x="350" y="510" on="0"/>
        <pt x="378" y="486" on="1"/>
        <pt x="357" y="459" on="1"/>
        <pt x="331" y="479" on="0"/>
        <pt x="271" y="507" on="0"/>
        <pt x="230" y="507" on="1"/>
        <pt x="165" y="507" on="0"/>
        <pt x="103" y="444" on="0"/>
        <pt x="103" y="405" on="1"/>
        <pt x="103" y="374" on="0"/>
        <pt x="138" y="333" on="0"/>
        <pt x="195" y="306" on="0"/>
        <pt x="226" y="294" on="1"/>
        <pt x="258" y="282" on="0"/>
        <pt x="320" y="257" on="0"/>
        <pt x="370" y="223" on="0"/>
        <pt x="401" y="172" on="0"/>
        <pt x="401" y="133" on="1"/>
        <pt x="401" y="94" on="0"/>
        <pt x="361" y="27" on="0"/>
        <pt x="285" y="-13" on="0"/>
      </contour>
    </TTGlyph>
    <TTGlyph name="semicolon" xMin="53" yMin="-166" xMax="169" yMax="503">
      <contour>
        <pt x="115" y="415" on="1"/>
        <pt x="100" y="415" on="0"/>
        <pt x="75" y="437" on="0"/>
        <pt x="75" y="458" on="1"/>
        <pt x="75" y="480" on="0"/>
        <pt x="100" y="503" on="0"/>
        <pt x="115" y="503" on="1"/>
        <pt x="131" y="503" on="0"/>
        <pt x="156" y="480" on="0"/>
        <pt x="156" y="458" on="1"/>
        <pt x="156" y="437" on="0"/>
        <pt x="131" y="415" on="0"/>
      </contour>
      <contour>
        <pt x="66" y="-166" on="1"/>
        <pt x="53" y="-139" on="1"/>
        <pt x="88" y="-119" on="0"/>
        <pt x="133" y="-50" on="0"/>
        <pt x="133" y="-2" on="1"/>
        <pt x="118" y="58" on="1"/>
        <pt x="155" y="11" on="1"/>
        <pt x="148" y="0" on="0"/>
        <pt x="130" y="-7" on="0"/>
        <pt x="120" y="-7" on="1"/>
        <pt x="103" y="-7" on="0"/>
        <pt x="79" y="15" on="0"/>
        <pt x="79" y="34" on="1"/>
        <pt x="79" y="54" on="0"/>
        <pt x="104" y="75" on="0"/>
        <pt x="120" y="75" on="1"/>
        <pt x="142" y="75" on="0"/>
        <pt x="169" y="37" on="0"/>
        <pt x="169" y="5" on="1"/>
        <pt x="169" y="-51" on="0"/>
        <pt x="110" y="-140" on="0"/>
      </contour>
    </TTGlyph>
    <TTGlyph name="seven" xMin="48" yMin="0" xMax="474" yMax="726">
      <contour>
        <pt x="210" y="0" on="1"/>
        <pt x="215" y="112" on="0"/>
        <pt x="242" y="300" on="0"/>
        <pt x="293" y="464" on="0"/>
        <pt x="371" y="617" on="0"/>
        <pt x="426" y="693" on="1"/>
        <pt x="48" y="693" on="1"/>
        <pt x="48" y="726" on="1"/>
        <pt x="474" y="726" on="1"/>
        <pt x="474" y="705" on="1"/>
        <pt x="410" y="618" on="0"/>
        <pt x="326" y="456" on="0"/>
        <pt x="278" y="289" on="0"/>
        <pt x="255" y="107" on="0"/>
        <pt x="251" y="0" on="1"/>
      </contour>
    </TTGlyph>
    <TTGlyph name="six" xMin="62" yMin="-13" xMax="475" yMax="739">
      <contour>
        <pt x="287" y="-13" on="1"/>
        <pt x="234" y="-13" on="0"/>
        <pt x="151" y="34" on="0"/>
        <pt x="93" y="125" on="0"/>
        <pt x="62" y="255" on="0"/>
        <pt x="62" y="339" on="1"/>
        <pt x="62" y="451" on="0"/>
        <pt x="103" y="605" on="0"/>
        <pt x="175" y="698" on="0"/>
        <pt x="267" y="739" on="0"/>
        <pt x="317" y="739" on="1"/>
        <pt x="364" y="739" on="0"/>
        <pt x="433" y="703" on="0"/>
        <pt x="460" y="673" on="1"/>
        <pt x="436" y="648" on="1"/>
        <pt x="413" y="677" on="0"/>
        <pt x="351" y="706" on="0"/>
        <pt x="316" y="706" on="1"/>
        <pt x="258" y="706" on="0"/>
        <pt x="159" y="637" on="0"/>
        <pt x="99" y="476" on="0"/>
        <pt x="99" y="339" on="1"/>
        <pt x="99" y="247" on="0"/>
        <pt x="139" y="103" on="0"/>
        <pt x="223" y="20" on="0"/>
        <pt x="289" y="20" on="1"/>
        <pt x="332" y="20" on="0"/>
        <pt x="398" y="73" on="0"/>
        <pt x="437" y="162" on="0"/>
        <pt x="437" y="216" on="1"/>
        <pt x="437" y="272" on="0"/>
        <pt x="405" y="361" on="0"/>
        <pt x="335" y="413" on="0"/>
        <pt x="278" y="413" on="1"/>
        <pt x="238" y="413" on="0"/>
        <pt x="140" y="359" on="0"/>
        <pt x="94" y="295" on="1"/>
        <pt x="94" y="340" on="1"/>
        <pt x="120" y="372" on="0"/>
        <pt x="179" y="419" on="0"/>
        <pt x="246" y="444" on="0"/>
        <pt x="280" y="444" on="1"/>
        <pt x="342" y="444" on="0"/>
        <pt x="429" y="392" on="0"/>
        <pt x="475" y="291" on="0"/>
        <pt x="475" y="216" on="1"/>
        <pt x="475" y="150" on="0"/>
        <pt x="423" y="47" on="0"/>
        <pt x="338" y="-13" on="0"/>
      </contour>
    </TTGlyph>
    <TTGlyph name="slash" xMin="9" yMin="-176" xMax="393" yMax="782">
      <contour>
        <pt x="9" y="-176" on="1"/>
        <pt x="359" y="782" on="1"/>
        <pt x="393" y="782" on="1"/>
        <pt x="44" y="-176" on="1"/>
      </contour>
    </TTGlyph>
    <TTGlyph name="t" xMin="33" yMin="-13" xMax="323" yMax="681">
      <contour>
        <pt x="241" y="-13" on="1"/>
        <pt x="192" y="-13" on="0"/>
        <pt x="138" y="25" on="0"/>
        <pt x="117" y="94" on="0"/>
        <pt x="117" y="140" on="1"/>
        <pt x="117" y="494" on="1"/>
        <pt x="33" y="494" on="1"/>
        <pt x="33" y="522" on="1"/>
        <pt x="117" y="527" on="1"/>
        <pt x="121" y="681" on="1"/>
        <pt x="152" y="681" on="1"/>
        <pt x="152" y="527" on="1"/>
        <pt x="308" y="527" on="1"/>
        <pt x="308" y="494" on="1"/>
        <pt x="152" y="494" on="1"/>
        <pt x="152" y="135" on="1"/>
        <pt x="152" y="84" on="0"/>
        <pt x="186" y="20" on="0"/>
        <pt x="244" y="20" on="1"/>
        <pt x="259" y="20" on="0"/>
        <pt x="297" y="30" on="0"/>
        <pt x="311" y="37" on="1"/>
        <pt x="323" y="7" on="1"/>
        <pt x="300" y="-1" on="0"/>
        <pt x="255" y="-13" on="0"/>
      </contour>
    </TTGlyph>
    <TTGlyph name="three" xMin="33" yMin="-13" xMax="464" yMax="739">
      <contour>
        <pt x="253" y="-13" on="1"/>
        <pt x="197" y="-13" on="0"/>
        <pt x="115" y="17" on="0"/>
        <pt x="55" y="63" on="0"/>
        <pt x="33" y="86" on="1"/>
        <pt x="56" y="112" on="1"/>
        <pt x="88" y="78" on="0"/>
        <pt x="180" y="20" on="0"/>
        <pt x="255" y="20" on="1"/>
        <pt x="305" y="20" on="0"/>
        <pt x="382" y="62" on="0"/>
        <pt x="426" y="138" on="0"/>
        <pt x="426" y="189" on="1"/>
        <pt x="426" y="241" on="0"/>
        <pt x="374" y="320" on="0"/>
        <pt x="263" y="364" on="0"/>
        <pt x="174" y="364" on="1"/>
        <pt x="174" y="399" on="1"/>
        <pt x="258" y="399" on="0"/>
        <pt x="356" y="444" on="0"/>
        <pt x="399" y="521" on="0"/>
        <pt x="399" y="567" on="1"/>
        <pt x="399" y="629" on="0"/>
        <pt x="319" y="706" on="0"/>
        <pt x="251" y="706" on="1"/>
        <pt x="202" y="706" on="0"/>
        <pt x="116" y="661" on="0"/>
        <pt x="87" y="629" on="1"/>
        <pt x="64" y="655" on="1"/>
        <pt x="99" y="689" on="0"/>
        <pt x="190" y="739" on="0"/>
        <pt x="251" y="739" on="1"/>
        <pt x="303" y="739" on="0"/>
        <pt x="388" y="698" on="0"/>
        <pt x="438" y="622" on="0"/>
        <pt x="438" y="569" on="1"/>
        <pt x="438" y="495" on="0"/>
        <pt x="359" y="404" on="0"/>
        <pt x="301" y="385" on="1"/>
        <pt x="301" y="381" on="1"/>
        <pt x="345" y="372" on="0"/>
        <pt x="419" y="322" on="0"/>
        <pt x="464" y="243" on="0"/>
        <pt x="464" y="191" on="1"/>
        <pt x="464" y="129" on="0"/>
        <pt x="408" y="37" on="0"/>
        <pt x="313" y="-13" on="0"/>
      </contour>
    </TTGlyph>
    <TTGlyph name="two" xMin="44" yMin="0" xMax="471" yMax="739">
      <contour>
        <pt x="46" y="0" on="1"/>
        <pt x="46" y="23" on="1"/>
        <pt x="175" y="134" on="0"/>
        <pt x="329" y="314" on="0"/>
        <pt x="397" y="467" on="0"/>
        <pt x="397" y="535" on="1"/>
        <pt x="397" y="582" on="0"/>
        <pt x="364" y="660" on="0"/>
        <pt x="294" y="706" on="0"/>
        <pt x="238" y="706" on="1"/>
        <pt x="189" y="706" on="0"/>
        <pt x="102" y="654" on="0"/>
        <pt x="69" y="613" on="1"/>
        <pt x="44" y="636" on="1"/>
        <pt x="82" y="679" on="0"/>
        <pt x="177" y="739" on="0"/>
        <pt x="241" y="739" on="1"/>
        <pt x="303" y="739" on="0"/>
        <pt x="389" y="688" on="0"/>
        <pt x="435" y="597" on="0"/>
        <pt x="435" y="535" on="1"/>
        <pt x="435" y="456" on="0"/>
        <pt x="358" y="296" on="0"/>
        <pt x="211" y="125" on="0"/>
        <pt x="106" y="28" on="1"/>
        <pt x="136" y="30" on="0"/>
        <pt x="196" y="33" on="0"/>
        <pt x="225" y="33" on="1"/>
        <pt x="471" y="33" on="1"/>
        <pt x="471" y="0" on="1"/>
      </contour>
    </TTGlyph>
    <TTGlyph name="u" xMin="96" yMin="-13" xMax="473" yMax="527">
      <contour>
        <pt x="255" y="-13" on="1"/>
        <pt x="174" y="-13" on="0"/>
        <pt x="96" y="85" on="0"/>
        <pt x="96" y="188" on="1"/>
        <pt x="96" y="527" on="1"/>
        <pt x="132" y="527" on="1"/>
        <pt x="132" y="192" on="1"/>
        <pt x="132" y="105" on="0"/>
        <pt x="191" y="20" on="0"/>
        <pt x="258" y="20" on="1"/>
        <pt x="307" y="20" on="0"/>
        <pt x="388" y="75" on="0"/>
        <pt x="437" y="133" on="1"/>
        <pt x="437" y="527" on="1"/>
        <pt x="473" y="527" on="1"/>
        <pt x="473" y="0" on="1"/>
        <pt x="442" y="0" on="1"/>
        <pt x="438" y="90" on="1"/>
        <pt x="436" y="90" on="1"/>
        <pt x="396" y="44" on="0"/>
        <pt x="310" y="-13" on="0"/>
      </contour>
    </TTGlyph>
    <TTGlyph name="underscore" xMin="13" yMin="-126" xMax="537" yMax="-90">
      <contour>
        <pt x="13" y="-126" on="1"/>
        <pt x="13" y="-90" on="1"/>
        <pt x="537" y="-90" on="1"/>
        <pt x="537" y="-126" on="1"/>
      </contour>
    </TTGlyph>
    <TTGlyph name="uni3001" xMin="64" yMin="-43" xMax="320" yMax="206">
      <contour>
        <pt x="291" y="-43" on="1"/>
        <pt x="257" y="-1" on="0"/>
        <pt x="179" y="81" on="0"/>
        <pt x="100" y="154" on="0"/>
        <pt x="64" y="182" on="1"/>
        <pt x="89" y="206" on="1"/>
        <pt x="126" y="177" on="0"/>
        <pt x="204" y="104" on="0"/>
        <pt x="283" y="23" on="0"/>
        <pt x="320" y="-19" on="1"/>
      </contour>
    </TTGlyph>
    <TTGlyph name="uni3002" xMin="52" yMin="-46" xMax="338" yMax="240">
      <contour>
        <pt x="195" y="240" on="1"/>
        <pt x="235" y="240" on="0"/>
        <pt x="299" y="201" on="0"/>
        <pt x="338" y="137" on="0"/>
        <pt x="338" y="97" on="1"/>
        <pt x="338" y="58" on="0"/>
        <pt x="299" y="-7" on="0"/>
        <pt x="235" y="-46" on="0"/>
        <pt x="195" y="-46" on="1"/>
        <pt x="156" y="-46" on="0"/>
        <pt x="91" y="-7" on="0"/>
        <pt x="52" y="58" on="0"/>
        <pt x="52" y="97" on="1"/>
        <pt x="52" y="137" on="0"/>
        <pt x="91" y="201" on="0"/>
        <pt x="156" y="240" on="0"/>
      </contour>
      <contour>
        <pt x="195" y="-16" on="1"/>
        <pt x="242" y="-16" on="0"/>
        <pt x="308" y="50" on="0"/>
        <pt x="308" y="97" on="1"/>
        <pt x="308" y="128" on="0"/>
        <pt x="278" y="179" on="0"/>
        <pt x="227" y="210" on="0"/>
        <pt x="195" y="210" on="1"/>
        <pt x="164" y="210" on="0"/>
        <pt x="113" y="179" on="0"/>
        <pt x="82" y="128" on="0"/>
        <pt x="82" y="97" on="1"/>
        <pt x="82" y="66" on="0"/>
        <pt x="113" y="14" on="0"/>
        <pt x="164" y="-16" on="0"/>
      </contour>
    </TTGlyph>
    <TTGlyph name="uni4E00" xMin="50" yMin="374" xMax="955" yMax="407">
      <contour>
        <pt x="50" y="407" on="1"/>
        <pt x="955" y="407" on="1"/>
        <pt x="955" y="374" on="1"/>
        <pt x="50" y="374" on="1"/>
      </contour>
    </TTGlyph>
    <TTGlyph name="uni4E0A" xMin="59" yMin="-24" xMax="942" yMax="813">
      <contour>
        <pt x="469" y="483" on="1"/>
        <pt x="875" y="483" on="1"/>
        <pt x="875" y="454" on="1"/>
        <pt x="469" y="454" on="1"/>
      </contour>
      <contour>
        <pt x="59" y="5" on="1"/>
        <pt x="942" y="5" on="1"/>
        <pt x="942" y="-24" on="1"/>
        <pt x="59" y="-24" on="1"/>
      </contour>
      <contour>
        <pt x="451" y="813" on="1"/>
        <pt x="480" y="813" on="1"/>
        <pt x="480" y="-8" on="1"/>
        <pt x="451" y="-8" on="1"/>
      </contour>
    </TTGlyph>
    <TTGlyph name="uni4E0B" xMin="59" yMin="-70" xMax="942" yMax="756">
      <contour>
        <pt x="59" y="756" on="1"/>
        <pt x="942" y="756" on="1"/>
        <pt x="942" y="726" on="1"/>
        <pt x="59" y="726" on="1"/>
      </contour>
      <contour>
        <pt x="467" y="746" on="1"/>
        <pt x="496" y="746" on="1"/>
        <pt x="496" y="-70" on="1"/>
        <pt x="467" y="-70" on="1"/>
      </contour>
      <contour>
        <pt x="486" y="514" on="1"/>
        <pt x="503" y="534" on="1"/>
        <pt x="552" y="511" on="0"/>
        <pt x="657" y="455" on="0"/>
        <pt x="758" y="396" on="0"/>
        <pt x="845" y="341" on="0"/>
        <pt x="876" y="319" on="1"/>
        <pt x="859" y="293" on="1"/>
        <pt x="828" y="316" on="0"/>
        <pt x="741" y="372" on="0"/>
        <pt x="640" y="432" on="0"/>
        <pt x="535" y="490" on="0"/>
      </contour>
    </TTGlyph>
    <TTGlyph name="uni4E0D" xMin="55" yMin="-69" xMax="945" yMax="757">
      <contour>
        <pt x="74" y="757" on="1"/>
        <pt x="925" y="757" on="1"/>
        <pt x="925" y="727" on="1"/>
        <pt x="74" y="727" on="1"/>
      </contour>
      <contour>
        <pt x="571" y="509" on="1"/>
        <pt x="590" y="527" on="1"/>
        <pt x="638" y="499" on="0"/>
        <pt x="739" y="433" on="0"/>
        <pt x="835" y="363" on="0"/>
        <pt x="917" y="297" on="0"/>
        <pt x="945" y="269" on="1"/>
        <pt x="925" y="246" on="1"/>
        <pt x="897" y="274" on="0"/>
        <pt x="815" y="342" on="0"/>
        <pt x="720" y="413" on="0"/>
        <pt x="619" y="481" on="0"/>
      </contour>
      <contour>
        <pt x="574" y="749" on="1"/>
        <pt x="603" y="737" on="1"/>
        <pt x="547" y="636" on="0"/>
        <pt x="385" y="445" on="0"/>
        <pt x="187" y="283" on="0"/>
        <pt x="75" y="223" on="1"/>
        <pt x="73" y="226" on="0"/>
        <pt x="65" y="234" on="0"/>
        <pt x="58" y="242" on="0"/>
        <pt x="55" y="245" on="1"/>
        <pt x="138" y="289" on="0"/>
        <pt x="291" y="401" on="0"/>
        <pt x="426" y="532" on="0"/>
        <pt x="535" y="675" on="0"/>
      </contour>
      <contour>
        <pt x="483" y="592" on="1"/>
        <pt x="513" y="621" on="1"/>
        <pt x="513" y="621" on="1"/>
        <pt x="513" y="-69" on="1"/>
        <pt x="483" y="-69" on="1"/>
      </contour>
    </TTGlyph>
    <TTGlyph name="uni4E2D" xMin="105" yMin="-68" xMax="890" yMax="831">
      <contour>
        <pt x="105" y="647" on="1"/>
        <pt x="890" y="647" on="1"/>
        <pt x="890" y="208" on="1"/>
        <pt x="861" y="208" on="1"/>
        <pt x="861" y="618" on="1"/>
        <pt x="134" y="618" on="1"/>
        <pt x="134" y="203" on="1"/>
        <pt x="105" y="203" on="1"/>
      </contour>
      <contour>
        <pt x="122" y="301" on="1"/>
        <pt x="881" y="301" on="1"/>
        <pt x="881" y="272" on="1"/>
        <pt x="122" y="272" on="1"/>
      </contour>
      <contour>
        <pt x="482" y="831" on="1"/>
        <pt x="512" y="831" on="1"/>
        <pt x="512" y="-68" on="1"/>
        <pt x="482" y="-68" on="1"/>
      </contour>
    </TTGlyph>
    <TTGlyph name="uni4E3A" xMin="60" yMin="-61" xMax="887" yMax="829">
      <contour>
        <pt x="90" y="583" on="1"/>
        <pt x="868" y="583" on="1"/>
        <pt x="868" y="554" on="1"/>
        <pt x="90" y="554" on="1"/>
      </contour>
      <contour>
        <pt x="858" y="583" on="1"/>
        <pt x="887" y="583" on="1"/>
        <pt x="887" y="583" on="0"/>
        <pt x="887" y="575" on="0"/>
        <pt x="887" y="565" on="0"/>
        <pt x="887" y="562" on="1"/>
        <pt x="880" y="406" on="0"/>
        <pt x="867" y="191" on="0"/>
        <pt x="851" y="55" on="0"/>
        <pt x="830" y="-19" on="0"/>
        <pt x="815" y="-35" on="1"/>
        <pt x="802" y="-49" on="0"/>
        <pt x="772" y="-60" on="0"/>
        <pt x="749" y="-61" on="1"/>
        <pt x="725" y="-61" on="0"/>
        <pt x="637" y="-58" on="0"/>
        <pt x="590" y="-54" on="1"/>
        <pt x="589" y="-47" on="0"/>
        <pt x="585" y="-31" on="0"/>
        <pt x="580" y="-24" on="1"/>
        <pt x="635" y="-29" on="0"/>
        <pt x="727" y="-31" on="0"/>
        <pt x="744" y="-31" on="1"/>
        <pt x="761" y="-32" on="0"/>
        <pt x="781" y="-27" on="0"/>
        <pt x="788" y="-18" on="1"/>
        <pt x="801" y="-5" on="0"/>
        <pt x="821" y="68" on="0"/>
        <pt x="838" y="205" on="0"/>
        <pt x="852" y="420" on="0"/>
        <pt x="858" y="575" on="1"/>
      </contour>
      <contour>
        <pt x="437" y="829" on="1"/>
        <pt x="467" y="829" on="1"/>
        <pt x="467" y="727" on="1"/>
        <pt x="467" y="659" on="0"/>
        <pt x="456" y="504" on="0"/>
        <pt x="417" y="339" on="0"/>
        <pt x="334" y="173" on="0"/>
        <pt x="192" y="12" on="0"/>
        <pt x="83" y="-61" on="1"/>
        <pt x="81" y="-57" on="0"/>
        <pt x="73" y="-50" on="0"/>
        <pt x="64" y="-42" on="0"/>
        <pt x="60" y="-40" on="1"/>
        <pt x="168" y="32" on="0"/>
        <pt x="307" y="189" on="0"/>
        <pt x="389" y="351" on="0"/>
        <pt x="427" y="511" on="0"/>
        <pt x="437" y="661" on="0"/>
        <pt x="437" y="727" on="1"/>
      </contour>
      <contour>
        <pt x="188" y="786" on="1"/>
        <pt x="212" y="800" on="1"/>
        <pt x="245" y="767" on="0"/>
        <pt x="312" y="684" on="0"/>
        <pt x="329" y="654" on="1"/>
        <pt x="305" y="637" on="1"/>
        <pt x="294" y="657" on="0"/>
        <pt x="255" y="709" on="0"/>
        <pt x="210" y="764" on="0"/>
      </contour>
      <contour>
        <pt x="515" y="387" on="1"/>
        <pt x="538" y="401" on="1"/>
        <pt x="569" y="370" on="0"/>
        <pt x="630" y="297" on="0"/>
        <pt x="682" y="227" on="0"/>
        <pt x="697" y="200" on="1"/>
        <pt x="672" y="182" on="1"/>
        <pt x="657" y="210" on="0"/>
        <pt x="606" y="282" on="0"/>
        <pt x="545" y="356" on="0"/>
      </contour>
    </TTGlyph>
    <TTGlyph name="uni4E86" xMin="100" yMin="-69" xMax="873" yMax="746">
      <contour>
        <pt x="487" y="485" on="1"/>
        <pt x="517" y="485" on="1"/>
        <pt x="517" y="-13" on="1"/>
        <pt x="517" y="-38" on="0"/>
        <pt x="500" y="-59" on="0"/>
        <pt x="478" y="-64" on="1"/>
        <pt x="457" y="-68" on="0"/>
        <pt x="362" y="-69" on="0"/>
        <pt x="281" y="-69" on="1"/>
        <pt x="280" y="-63" on="0"/>
        <pt x="273" y="-46" on="0"/>
        <pt x="269" y="-39" on="1"/>
        <pt x="317" y="-40" on="0"/>
        <pt x="395" y="-41" on="0"/>
        <pt x="449" y="-40" on="0"/>
        <pt x="460" y="-39" on="1"/>
        <pt x="476" y="-38" on="0"/>
        <pt x="487" y="-27" on="0"/>
        <pt x="487" y="-14" on="1"/>
      </contour>
      <contour>
        <pt x="100" y="744" on="1"/>
        <pt x="846" y="744" on="1"/>
        <pt x="846" y="715" on="1"/>
        <pt x="100" y="715" on="1"/>
      </contour>
      <contour>
        <pt x="837" y="744" on="1"/>
        <pt x="844" y="744" on="1"/>
        <pt x="851" y="746" on="1"/>
        <pt x="873" y="731" on="1"/>
        <pt x="829" y="681" on="0"/>
        <pt x="705" y="582" on="0"/>
        <pt x="570" y="496" on="0"/>
        <pt x="507" y="466" on="1"/>
        <pt x="505" y="469" on="0"/>
        <pt x="497" y="476" on="0"/>
        <pt x="490" y="483" on="0"/>
        <pt x="487" y="485" on="1"/>
        <pt x="534" y="507" on="0"/>
        <pt x="632" y="566" on="0"/>
        <pt x="727" y="634" on="0"/>
        <pt x="808" y="704" on="0"/>
        <pt x="837" y="736" on="1"/>
      </contour>
    </TTGlyph>
    <TTGlyph name="uni4EBA" xMin="57" yMin="-65" xMax="953" yMax="825">
      <contour>
        <pt x="493" y="825" on="1"/>
        <pt x="523" y="825" on="1"/>
        <pt x="522" y="788" on="0"/>
        <pt x="515" y="658" on="0"/>
        <pt x="490" y="493" on="0"/>
        <pt x="434" y="313" on="0"/>
        <pt x="337" y="138" on="0"/>
        <pt x="187" y="-13" on="0"/>
        <pt x="79" y="-65" on="1"/>
        <pt x="75" y="-60" on="0"/>
        <pt x="62" y="-48" on="0"/>
        <pt x="57" y="-44" on="1"/>
        <pt x="164" y="7" on="0"/>
        <pt x="312" y="155" on="0"/>
        <pt x="407" y="327" on="0"/>
        <pt x="461" y="504" on="0"/>
        <pt x="486" y="665" on="0"/>
        <pt x="493" y="791" on="0"/>
      </contour>
      <contour>
        <pt x="515" y="700" on="1"/>
        <pt x="518" y="685" on="0"/>
        <pt x="532" y="588" on="0"/>
        <pt x="566" y="450" on="0"/>
        <pt x="626" y="292" on="0"/>
        <pt x="721" y="136" on="0"/>
        <pt x="859" y="3" on="0"/>
        <pt x="953" y="-39" on="1"/>
        <pt x="948" y="-43" on="0"/>
        <pt x="935" y="-57" on="0"/>
        <pt x="931" y="-63" on="1"/>
        <pt x="836" y="-19" on="0"/>
        <pt x="697" y="116" on="0"/>
        <pt x="602" y="275" on="0"/>
        <pt x="541" y="436" on="0"/>
        <pt x="507" y="578" on="0"/>
        <pt x="491" y="680" on="0"/>
        <pt x="488" y="698" on="1"/>
      </contour>
    </TTGlyph>
    <TTGlyph name="uni5168" xMin="36" yMin="-39" xMax="967" yMax="843">
      <contour>
        <pt x="198" y="229" on="1"/>
        <pt x="817" y="229" on="1"/>
        <pt x="817" y="199" on="1"/>
        <pt x="198" y="199" on="1"/>
      </contour>
      <contour>
        <pt x="199" y="455" on="1"/>
        <pt x="809" y="455" on="1"/>
        <pt x="809" y="425" on="1"/>
        <pt x="199" y="425" on="1"/>
      </contour>
      <contour>
        <pt x="76" y="-10" on="1"/>
        <pt x="927" y="-10" on="1"/>
        <pt x="927" y="-39" on="1"/>
        <pt x="76" y="-39" on="1"/>
      </contour>
      <contour>
        <pt x="485" y="446" on="1"/>
        <pt x="515" y="446" on="1"/>
        <pt x="515" y="-26" on="1"/>
        <pt x="485" y="-26" on="1"/>
      </contour>
      <contour>
        <pt x="507" y="843" on="1"/>
        <pt x="532" y="831" on="1"/>
        <pt x="480" y="749" on="0"/>
        <pt x="329" y="588" on="0"/>
        <pt x="152" y="452" on="0"/>
        <pt x="59" y="405" on="1"/>
        <pt x="55" y="410" on="0"/>
        <pt x="42" y="423" on="0"/>
        <pt x="36" y="427" on="1"/>
        <pt x="129" y="473" on="0"/>
        <pt x="307" y="606" on="0"/>
        <pt x="457" y="763" on="0"/>
      </contour>
      <contour>
        <pt x="510" y="816" on="1"/>
        <pt x="606" y="693" on="0"/>
        <pt x="841" y="504" on="0"/>
        <pt x="967" y="425" on="1"/>
        <pt x="962" y="422" on="0"/>
        <pt x="948" y="408" on="0"/>
        <pt x="944" y="402" on="1"/>
        <pt x="860" y="457" on="0"/>
        <pt x="700" y="578" on="0"/>
        <pt x="553" y="719" on="0"/>
        <pt x="485" y="803" on="1"/>
      </contour>
    </TTGlyph>
    <TTGlyph name="uni5173" xMin="67" yMin="-69" xMax="942" yMax="824">
      <contour>
        <pt x="131" y="607" on="1"/>
        <pt x="872" y="607" on="1"/>
        <pt x="872" y="577" on="1"/>
        <pt x="131" y="577" on="1"/>
      </contour>
      <contour>
        <pt x="77" y="356" on="1"/>
        <pt x="928" y="356" on="1"/>
        <pt x="928" y="327" on="1"/>
        <pt x="77" y="327" on="1"/>
      </contour>
      <contour>
        <pt x="524" y="345" on="1"/>
        <pt x="559" y="252" on="0"/>
        <pt x="680" y="100" on="0"/>
        <pt x="844" y="-9" on="0"/>
        <pt x="942" y="-37" on="1"/>
        <pt x="939" y="-40" on="0"/>
        <pt x="931" y="-49" on="0"/>
        <pt x="924" y="-58" on="0"/>
        <pt x="921" y="-63" on="1"/>
        <pt x="823" y="-32" on="0"/>
        <pt x="658" y="82" on="0"/>
        <pt x="535" y="240" on="0"/>
        <pt x="498" y="336" on="1"/>
      </contour>
      <contour>
        <pt x="732" y="824" on="1"/>
        <pt x="762" y="812" on="1"/>
        <pt x="743" y="775" on="0"/>
        <pt x="697" y="692" on="0"/>
        <pt x="649" y="615" on="0"/>
        <pt x="626" y="586" on="1"/>
        <pt x="603" y="597" on="1"/>
        <pt x="625" y="627" on="0"/>
        <pt x="673" y="707" on="0"/>
        <pt x="717" y="791" on="0"/>
      </contour>
      <contour>
        <pt x="245" y="802" on="1"/>
        <pt x="269" y="815" on="1"/>
        <pt x="301" y="776" on="0"/>
        <pt x="359" y="680" on="0"/>
        <pt x="372" y="645" on="1"/>
        <pt x="345" y="630" on="1"/>
        <pt x="337" y="654" on="0"/>
        <pt x="305" y="714" on="0"/>
        <pt x="265" y="776" on="0"/>
      </contour>
      <contour>
        <pt x="484" y="594" on="1"/>
        <pt x="514" y="594" on="1"/>
        <pt x="514" y="460" on="1"/>
        <pt x="514" y="413" on="0"/>
        <pt x="502" y="307" on="0"/>
        <pt x="459" y="196" on="0"/>
        <pt x="367" y="85" on="0"/>
        <pt x="208" y="-21" on="0"/>
        <pt x="86" y="-69" on="1"/>
        <pt x="85" y="-66" on="0"/>
        <pt x="78" y="-57" on="0"/>
        <pt x="71" y="-48" on="0"/>
        <pt x="67" y="-45" on="1"/>
        <pt x="188" y="1" on="0"/>
        <pt x="343" y="103" on="0"/>
        <pt x="433" y="210" on="0"/>
        <pt x="474" y="316" on="0"/>
        <pt x="484" y="416" on="0"/>
        <pt x="484" y="460" on="1"/>
      </contour>
    </TTGlyph>
    <TTGlyph name="uni5206" xMin="56" yMin="-73" xMax="949" yMax="805">
      <contour>
        <pt x="180" y="441" on="1"/>
        <pt x="784" y="441" on="1"/>
        <pt x="784" y="412" on="1"/>
        <pt x="180" y="412" on="1"/>
      </contour>
      <contour>
        <pt x="772" y="441" on="1"/>
        <pt x="802" y="441" on="1"/>
        <pt x="802" y="441" on="0"/>
        <pt x="802" y="433" on="0"/>
        <pt x="802" y="424" on="0"/>
        <pt x="801" y="421" on="1"/>
        <pt x="794" y="303" on="0"/>
        <pt x="781" y="139" on="0"/>
        <pt x="766" y="33" on="0"/>
        <pt x="746" y="-26" on="0"/>
        <pt x="732" y="-40" on="1"/>
        <pt x="720" y="-53" on="0"/>
        <pt x="691" y="-62" on="0"/>
        <pt x="668" y="-62" on="1"/>
        <pt x="644" y="-63" on="0"/>
        <pt x="553" y="-60" on="0"/>
        <pt x="503" y="-56" on="1"/>
        <pt x="502" y="-49" on="0"/>
        <pt x="498" y="-33" on="0"/>
        <pt x="493" y="-26" on="1"/>
        <pt x="549" y="-31" on="0"/>
        <pt x="645" y="-34" on="0"/>
        <pt x="662" y="-34" on="1"/>
        <pt x="695" y="-34" on="0"/>
        <pt x="707" y="-23" on="1"/>
        <pt x="722" y="-8" on="0"/>
        <pt x="745" y="87" on="0"/>
        <pt x="764" y="277" on="0"/>
        <pt x="772" y="434" on="1"/>
      </contour>
      <contour>
        <pt x="341" y="803" on="1"/>
        <pt x="371" y="795" on="1"/>
        <pt x="338" y="714" on="0"/>
        <pt x="248" y="569" on="0"/>
        <pt x="141" y="448" on="0"/>
        <pt x="82" y="402" on="1"/>
        <pt x="80" y="405" on="0"/>
        <pt x="70" y="412" on="0"/>
        <pt x="60" y="420" on="0"/>
        <pt x="56" y="422" on="1"/>
        <pt x="117" y="466" on="0"/>
        <pt x="224" y="585" on="0"/>
        <pt x="311" y="726" on="0"/>
      </contour>
      <contour>
        <pt x="658" y="805" on="1"/>
        <pt x="682" y="752" on="0"/>
        <pt x="749" y="643" on="0"/>
        <pt x="827" y="543" on="0"/>
        <pt x="910" y="462" on="0"/>
        <pt x="949" y="435" on="1"/>
        <pt x="945" y="432" on="0"/>
        <pt x="936" y="424" on="0"/>
        <pt x="928" y="415" on="0"/>
        <pt x="925" y="411" on="1"/>
        <pt x="886" y="440" on="0"/>
        <pt x="804" y="526" on="0"/>
        <pt x="726" y="629" on="0"/>
        <pt x="657" y="740" on="0"/>
        <pt x="632" y="794" on="1"/>
      </contour>
      <contour>
        <pt x="407" y="434" on="1"/>
        <pt x="438" y="434" on="1"/>
        <pt x="428" y="354" on="0"/>
        <pt x="389" y="202" on="0"/>
        <pt x="314" y="67" on="0"/>
        <pt x="188" y="-39" on="0"/>
        <pt x="90" y="-73" on="1"/>
        <pt x="88" y="-70" on="0"/>
        <pt x="82" y="-62" on="0"/>
        <pt x="75" y="-55" on="0"/>
        <pt x="72" y="-52" on="1"/>
        <pt x="168" y="-20" on="0"/>
        <pt x="291" y="83" on="0"/>
        <pt x="363" y="213" on="0"/>
        <pt x="398" y="359" on="0"/>
      </contour>
    </TTGlyph>
    <TTGlyph name="uni53EF" xMin="63" yMin="-68" xMax="941" yMax="756">
      <contour>
        <pt x="781" y="744" on="1"/>
        <pt x="811" y="744" on="1"/>
        <pt x="811" y="-6" on="1"/>
        <pt x="811" y="-33" on="0"/>
        <pt x="794" y="-59" on="0"/>
        <pt x="771" y="-64" on="1"/>
        <pt x="749" y="-68" on="0"/>
        <pt x="650" y="-68" on="0"/>
        <pt x="579" y="-68" on="1"/>
        <pt x="578" y="-64" on="0"/>
        <pt x="573" y="-52" on="0"/>
        <pt x="569" y="-39" on="0"/>
        <pt x="566" y="-34" on="1"/>
        <pt x="611" y="-35" on="0"/>
        <pt x="688" y="-36" on="0"/>
        <pt x="743" y="-35" on="0"/>
        <pt x="755" y="-35" on="1"/>
        <pt x="770" y="-33" on="0"/>
        <pt x="781" y="-22" on="0"/>
        <pt x="781" y="-6" on="1"/>
      </contour>
      <contour>
        <pt x="176" y="544" on="1"/>
        <pt x="205" y="544" on="1"/>
        <pt x="205" y="103" on="1"/>
        <pt x="176" y="103" on="1"/>
      </contour>
      <contour>
        <pt x="188" y="544" on="1"/>
        <pt x="569" y="544" on="1"/>
        <pt x="569" y="186" on="1"/>
        <pt x="188" y="186" on="1"/>
        <pt x="188" y="216" on="1"/>
        <pt x="539" y="216" on="1"/>
        <pt x="539" y="515" on="1"/>
        <pt x="188" y="515" on="1"/>
      </contour>
      <contour>
        <pt x="63" y="756" on="1"/>
        <pt x="941" y="756" on="1"/>
        <pt x="941" y="726" on="1"/>
        <pt x="63" y="726" on="1"/>
      </contour>
    </TTGlyph>
    <TTGlyph name="uni5728" xMin="53" yMin="-65" xMax="933" yMax="830">
      <contour>
        <pt x="70" y="660" on="1"/>
        <pt x="930" y="660" on="1"/>
        <pt x="930" y="630" on="1"/>
        <pt x="70" y="630" on="1"/>
      </contour>
      <contour>
        <pt x="364" y="350" on="1"/>
        <pt x="894" y="350" on="1"/>
        <pt x="894" y="321" on="1"/>
        <pt x="364" y="321" on="1"/>
      </contour>
      <contour>
        <pt x="324" y="-18" on="1"/>
        <pt x="933" y="-18" on="1"/>
        <pt x="933" y="-48" on="1"/>
        <pt x="324" y="-48" on="1"/>
      </contour>
      <contour>
        <pt x="611" y="570" on="1"/>
        <pt x="640" y="570" on="1"/>
        <pt x="640" y="-35" on="1"/>
        <pt x="611" y="-35" on="1"/>
      </contour>
      <contour>
        <pt x="412" y="830" on="1"/>
        <pt x="442" y="822" on="1"/>
        <pt x="409" y="714" on="0"/>
        <pt x="307" y="500" on="0"/>
        <pt x="166" y="313" on="0"/>
        <pt x="73" y="243" on="1"/>
        <pt x="71" y="246" on="0"/>
        <pt x="64" y="254" on="0"/>
        <pt x="56" y="263" on="0"/>
        <pt x="53" y="265" on="1"/>
        <pt x="121" y="316" on="0"/>
        <pt x="233" y="446" on="0"/>
        <pt x="322" y="594" on="0"/>
        <pt x="390" y="751" on="0"/>
      </contour>
      <contour>
        <pt x="216" y="425" on="1"/>
        <pt x="245" y="425" on="1"/>
        <pt x="245" y="-65" on="1"/>
        <pt x="216" y="-65" on="1"/>
      </contour>
    </TTGlyph>
    <TTGlyph name="uni5927" xMin="49" yMin="-70" xMax="948" yMax="829">
      <contour>
        <pt x="68" y="525" on="1"/>
        <pt x="937" y="525" on="1"/>
        <pt x="937" y="496" on="1"/>
        <pt x="68" y="496" on="1"/>
      </contour>
      <contour>
        <pt x="529" y="514" on="1"/>
        <pt x="565" y="387" on="0"/>
        <pt x="683" y="166" on="0"/>
        <pt x="847" y="2" on="0"/>
        <pt x="948" y="-43" on="1"/>
        <pt x="944" y="-46" on="0"/>
        <pt x="936" y="-56" on="0"/>
        <pt x="928" y="-65" on="0"/>
        <pt x="925" y="-69" on="1"/>
        <pt x="823" y="-20" on="0"/>
        <pt x="658" y="150" on="0"/>
        <pt x="538" y="375" on="0"/>
        <pt x="501" y="506" on="1"/>
      </contour>
      <contour>
        <pt x="491" y="829" on="1"/>
        <pt x="521" y="829" on="1"/>
        <pt x="521" y="774" on="0"/>
        <pt x="514" y="626" on="0"/>
        <pt x="490" y="457" on="0"/>
        <pt x="435" y="282" on="0"/>
        <pt x="336" y="118" on="0"/>
        <pt x="183" y="-22" on="0"/>
        <pt x="72" y="-70" on="1"/>
        <pt x="68" y="-65" on="0"/>
        <pt x="54" y="-52" on="0"/>
        <pt x="49" y="-48" on="1"/>
        <pt x="159" y="-1" on="0"/>
        <pt x="311" y="135" on="0"/>
        <pt x="408" y="296" on="0"/>
        <pt x="462" y="468" on="0"/>
        <pt x="485" y="634" on="0"/>
        <pt x="491" y="777" on="0"/>
      </contour>
    </TTGlyph>
    <TTGlyph name="uni5E74" xMin="55" yMin="-71" xMax="947" yMax="834">
      <contour>
        <pt x="306" y="834" on="1"/>
        <pt x="335" y="826" on="1"/>
        <pt x="306" y="753" on="0"/>
        <pt x="229" y="617" on="0"/>
        <pt x="139" y="501" on="0"/>
        <pt x="90" y="456" on="1"/>
        <pt x="87" y="458" on="0"/>
        <pt x="78" y="465" on="0"/>
        <pt x="68" y="472" on="0"/>
        <pt x="63" y="474" on="1"/>
        <pt x="114" y="518" on="0"/>
        <pt x="204" y="631" on="0"/>
        <pt x="279" y="764" on="0"/>
      </contour>
      <contour>
        <pt x="254" y="699" on="1"/>
        <pt x="908" y="699" on="1"/>
        <pt x="908" y="670" on="1"/>
        <pt x="239" y="670" on="1"/>
      </contour>
      <contour>
        <pt x="227" y="482" on="1"/>
        <pt x="886" y="482" on="1"/>
        <pt x="886" y="453" on="1"/>
        <pt x="256" y="453" on="1"/>
        <pt x="256" y="190" on="1"/>
        <pt x="227" y="190" on="1"/>
      </contour>
      <contour>
        <pt x="55" y="206" on="1"/>
        <pt x="947" y="206" on="1"/>
        <pt x="947" y="177" on="1"/>
        <pt x="55" y="177" on="1"/>
      </contour>
      <contour>
        <pt x="532" y="683" on="1"/>
        <pt x="562" y="683" on="1"/>
        <pt x="562" y="-71" on="1"/>
        <pt x="532" y="-71" on="1"/>
      </contour>
    </TTGlyph>
    <TTGlyph name="uni6211" xMin="51" yMin="-73" xMax="952" yMax="822">
      <contour>
        <pt x="703" y="788" on="1"/>
        <pt x="727" y="805" on="1"/>
        <pt x="758" y="779" on="0"/>
        <pt x="824" y="715" on="0"/>
        <pt x="882" y="654" on="0"/>
        <pt x="900" y="631" on="1"/>
        <pt x="874" y="611" on="1"/>
        <pt x="857" y="635" on="0"/>
        <pt x="800" y="697" on="0"/>
        <pt x="735" y="761" on="0"/>
      </contour>
      <contour>
        <pt x="62" y="523" on="1"/>
        <pt x="940" y="523" on="1"/>
        <pt x="940" y="494" on="1"/>
        <pt x="62" y="494" on="1"/>
      </contour>
      <contour>
        <pt x="51" y="219" on="1"/>
        <pt x="109" y="232" on="0"/>
        <pt x="266" y="270" on="0"/>
        <pt x="443" y="313" on="0"/>
        <pt x="531" y="335" on="1"/>
        <pt x="534" y="309" on="1"/>
        <pt x="451" y="288" on="0"/>
        <pt x="282" y="244" on="0"/>
        <pt x="127" y="205" on="0"/>
        <pt x="65" y="189" on="1"/>
      </contour>
      <contour>
        <pt x="301" y="750" on="1"/>
        <pt x="330" y="750" on="1"/>
        <pt x="330" y="-17" on="1"/>
        <pt x="330" y="-42" on="0"/>
        <pt x="314" y="-63" on="0"/>
        <pt x="296" y="-67" on="1"/>
        <pt x="279" y="-71" on="0"/>
        <pt x="204" y="-73" on="0"/>
        <pt x="141" y="-72" on="1"/>
        <pt x="140" y="-68" on="0"/>
        <pt x="136" y="-58" on="0"/>
        <pt x="131" y="-46" on="0"/>
        <pt x="129" y="-42" on="1"/>
        <pt x="182" y="-43" on="0"/>
        <pt x="265" y="-43" on="0"/>
        <pt x="278" y="-42" on="1"/>
        <pt x="291" y="-41" on="0"/>
        <pt x="301" y="-31" on="0"/>
        <pt x="301" y="-18" on="1"/>
      </contour>
      <contour>
        <pt x="476" y="813" on="1"/>
        <pt x="501" y="789" on="1"/>
        <pt x="450" y="769" on="0"/>
        <pt x="312" y="733" on="0"/>
        <pt x="161" y="702" on="0"/>
        <pt x="90" y="690" on="1"/>
        <pt x="89" y="695" on="0"/>
        <pt x="83" y="709" on="0"/>
        <pt x="79" y="715" on="1"/>
        <pt x="149" y="727" on="0"/>
        <pt x="299" y="759" on="0"/>
        <pt x="432" y="795" on="0"/>
      </contour>
      <contour>
        <pt x="578" y="822" on="1"/>
        <pt x="609" y="822" on="1"/>
        <pt x="610" y="668" on="0"/>
        <pt x="635" y="402" on="0"/>
        <pt x="681" y="189" on="0"/>
        <pt x="745" y="37" on="0"/>
        <pt x="824" y="-43" on="0"/>
        <pt x="870" y="-43" on="1"/>
        <pt x="896" y="-43" on="0"/>
        <pt x="919" y="46" on="0"/>
        <pt x="923" y="150" on="1"/>
        <pt x="928" y="146" on="0"/>
        <pt x="945" y="138" on="0"/>
        <pt x="952" y="136" on="1"/>
        <pt x="948" y="59" on="0"/>
        <pt x="931" y="-33" on="0"/>
        <pt x="898" y="-73" on="0"/>
        <pt x="868" y="-73" on="1"/>
        <pt x="822" y="-73" on="0"/>
        <pt x="744" y="-11" on="0"/>
        <pt x="680" y="105" on="0"/>
        <pt x="632" y="266" on="0"/>
        <pt x="598" y="466" on="0"/>
        <pt x="580" y="696" on="0"/>
      </contour>
      <contour>
        <pt x="849" y="435" on="1"/>
        <pt x="876" y="424" on="1"/>
        <pt x="830" y="334" on="0"/>
        <pt x="693" y="164" on="0"/>
        <pt x="524" y="22" on="0"/>
        <pt x="430" y="-27" on="1"/>
        <pt x="426" y="-22" on="0"/>
        <pt x="413" y="-9" on="0"/>
        <pt x="407" y="-5" on="1"/>
        <pt x="500" y="42" on="0"/>
        <pt x="668" y="182" on="0"/>
        <pt x="804" y="349" on="0"/>
      </contour>
    </TTGlyph>
    <TTGlyph name="uni6240" xMin="41" yMin="-71" xMax="946" yMax="818">
      <contour>
        <pt x="553" y="488" on="1"/>
        <pt x="946" y="488" on="1"/>
        <pt x="946" y="459" on="1"/>
        <pt x="553" y="459" on="1"/>
      </contour>
      <contour>
        <pt x="774" y="476" on="1"/>
        <pt x="804" y="476" on="1"/>
        <pt x="804" y="-70" on="1"/>
        <pt x="774" y="-70" on="1"/>
      </contour>
      <contour>
        <pt x="111" y="723" on="1"/>
        <pt x="140" y="723" on="1"/>
        <pt x="140" y="387" on="1"/>
        <pt x="140" y="336" on="0"/>
        <pt x="135" y="219" on="0"/>
        <pt x="120" y="98" on="0"/>
        <pt x="90" y="-18" on="0"/>
        <pt x="65" y="-68" on="1"/>
        <pt x="63" y="-65" on="0"/>
        <pt x="54" y="-58" on="0"/>
        <pt x="45" y="-51" on="0"/>
        <pt x="41" y="-50" on="1"/>
        <pt x="73" y="15" on="0"/>
        <pt x="103" y="168" on="0"/>
        <pt x="111" y="322" on="0"/>
        <pt x="111" y="387" on="1"/>
      </contour>
      <contour>
        <pt x="899" y="818" on="1"/>
        <pt x="922" y="795" on="1"/>
        <pt x="880" y="773" on="0"/>
        <pt x="753" y="736" on="0"/>
        <pt x="613" y="707" on="0"/>
        <pt x="548" y="696" on="1"/>
        <pt x="547" y="701" on="0"/>
        <pt x="540" y="716" on="0"/>
        <pt x="537" y="721" on="1"/>
        <pt x="601" y="732" on="0"/>
        <pt x="739" y="761" on="0"/>
        <pt x="861" y="797" on="0"/>
      </contour>
      <contour>
        <pt x="128" y="580" on="1"/>
        <pt x="423" y="580" on="1"/>
        <pt x="423" y="323" on="1"/>
        <pt x="128" y="323" on="1"/>
        <pt x="128" y="352" on="1"/>
        <pt x="393" y="352" on="1"/>
        <pt x="393" y="551" on="1"/>
        <pt x="128" y="551" on="1"/>
      </contour>
      <contour>
        <pt x="455" y="808" on="1"/>
        <pt x="476" y="784" on="1"/>
        <pt x="437" y="762" on="0"/>
        <pt x="317" y="728" on="0"/>
        <pt x="183" y="705" on="0"/>
        <pt x="122" y="697" on="1"/>
        <pt x="121" y="703" on="0"/>
        <pt x="115" y="717" on="0"/>
        <pt x="111" y="723" on="1"/>
        <pt x="171" y="731" on="0"/>
        <pt x="303" y="755" on="0"/>
        <pt x="420" y="788" on="0"/>
      </contour>
      <contour>
        <pt x="537" y="721" on="1"/>
        <pt x="567" y="721" on="1"/>
        <pt x="567" y="367" on="1"/>
        <pt x="567" y="316" on="0"/>
        <pt x="559" y="201" on="0"/>
        <pt x="535" y="85" on="0"/>
        <pt x="488" y="-25" on="0"/>
        <pt x="449" y="-71" on="1"/>
        <pt x="447" y="-68" on="0"/>
        <pt x="439" y="-61" on="0"/>
        <pt x="430" y="-54" on="0"/>
        <pt x="427" y="-52" on="1"/>
        <pt x="464" y="-7" on="0"/>
        <pt x="508" y="97" on="0"/>
        <pt x="530" y="208" on="0"/>
        <pt x="537" y="317" on="0"/>
        <pt x="537" y="367" on="1"/>
      </contour>
    </TTGlyph>
    <TTGlyph name="uni6587" xMin="47" yMin="-67" xMax="955" yMax="833">
      <contour>
        <pt x="758" y="634" on="1"/>
        <pt x="788" y="623" on="1"/>
        <pt x="721" y="443" on="0"/>
        <pt x="522" y="180" on="0"/>
        <pt x="248" y="-4" on="0"/>
        <pt x="68" y="-67" on="1"/>
        <pt x="66" y="-64" on="0"/>
        <pt x="59" y="-53" on="0"/>
        <pt x="51" y="-42" on="0"/>
        <pt x="47" y="-39" on="1"/>
        <pt x="227" y="20" on="0"/>
        <pt x="499" y="201" on="0"/>
        <pt x="694" y="459" on="0"/>
      </contour>
      <contour>
        <pt x="235" y="633" on="1"/>
        <pt x="297" y="470" on="0"/>
        <pt x="502" y="201" on="0"/>
        <pt x="781" y="9" on="0"/>
        <pt x="955" y="-38" on="1"/>
        <pt x="952" y="-41" on="0"/>
        <pt x="944" y="-51" on="0"/>
        <pt x="936" y="-60" on="0"/>
        <pt x="933" y="-65" on="1"/>
        <pt x="758" y="-15" on="0"/>
        <pt x="478" y="180" on="0"/>
        <pt x="272" y="455" on="0"/>
        <pt x="208" y="623" on="1"/>
      </contour>
      <contour>
        <pt x="56" y="646" on="1"/>
        <pt x="948" y="646" on="1"/>
        <pt x="948" y="617" on="1"/>
        <pt x="56" y="617" on="1"/>
      </contour>
      <contour>
        <pt x="434" y="824" on="1"/>
        <pt x="462" y="833" on="1"/>
        <pt x="488" y="797" on="0"/>
        <pt x="538" y="709" on="0"/>
        <pt x="551" y="678" on="1"/>
        <pt x="522" y="667" on="1"/>
        <pt x="510" y="698" on="0"/>
        <pt x="460" y="787" on="0"/>
      </contour>
    </TTGlyph>
    <TTGlyph name="uni65B0" xMin="54" yMin="-66" xMax="949" yMax="832">
      <contour>
        <pt x="577" y="486" on="1"/>
        <pt x="949" y="486" on="1"/>
        <pt x="949" y="457" on="1"/>
        <pt x="577" y="457" on="1"/>
      </contour>
      <contour>
        <pt x="69" y="720" on="1"/>
        <pt x="502" y="720" on="1"/>
        <pt x="502" y="691" on="1"/>
        <pt x="69" y="691" on="1"/>
      </contour>
      <contour>
        <pt x="57" y="325" on="1"/>
        <pt x="512" y="325" on="1"/>
        <pt x="512" y="295" on="1"/>
        <pt x="57" y="295" on="1"/>
      </contour>
      <contour>
        <pt x="54" y="486" on="1"/>
        <pt x="518" y="486" on="1"/>
        <pt x="518" y="457" on="1"/>
        <pt x="54" y="457" on="1"/>
      </contour>
      <contour>
        <pt x="793" y="476" on="1"/>
        <pt x="822" y="476" on="1"/>
        <pt x="822" y="-66" on="1"/>
        <pt x="793" y="-66" on="1"/>
      </contour>
      <contour>
        <pt x="146" y="669" on="1"/>
        <pt x="173" y="674" on="1"/>
        <pt x="191" y="635" on="0"/>
        <pt x="218" y="542" on="0"/>
        <pt x="222" y="509" on="1"/>
        <pt x="193" y="501" on="1"/>
        <pt x="189" y="535" on="0"/>
        <pt x="164" y="629" on="0"/>
      </contour>
      <contour>
        <pt x="403" y="676" on="1"/>
        <pt x="433" y="667" on="1"/>
        <pt x="417" y="618" on="0"/>
        <pt x="377" y="505" on="0"/>
        <pt x="359" y="466" on="1"/>
        <pt x="333" y="474" on="1"/>
        <pt x="345" y="501" on="0"/>
        <pt x="371" y="573" on="0"/>
        <pt x="395" y="647" on="0"/>
      </contour>
      <contour>
        <pt x="879" y="804" on="1"/>
        <pt x="909" y="781" on="1"/>
        <pt x="866" y="766" on="0"/>
        <pt x="752" y="739" on="0"/>
        <pt x="628" y="718" on="0"/>
        <pt x="570" y="710" on="1"/>
        <pt x="569" y="715" on="0"/>
        <pt x="562" y="728" on="0"/>
        <pt x="558" y="733" on="1"/>
        <pt x="615" y="742" on="0"/>
        <pt x="737" y="764" on="0"/>
        <pt x="844" y="791" on="0"/>
      </contour>
      <contour>
        <pt x="234" y="823" on="1"/>
        <pt x="262" y="832" on="1"/>
        <pt x="282" y="804" on="0"/>
        <pt x="323" y="734" on="0"/>
        <pt x="332" y="710" on="1"/>
        <pt x="304" y="698" on="1"/>
        <pt x="294" y="723" on="0"/>
        <pt x="254" y="794" on="0"/>
      </contour>
      <contour>
        <pt x="274" y="472" on="1"/>
        <pt x="302" y="472" on="1"/>
        <pt x="302" y="-2" on="1"/>
        <pt x="302" y="-18" on="0"/>
        <pt x="293" y="-34" on="0"/>
        <pt x="282" y="-39" on="1"/>
        <pt x="271" y="-43" on="0"/>
        <pt x="227" y="-45" on="0"/>
        <pt x="195" y="-45" on="1"/>
        <pt x="194" y="-39" on="0"/>
        <pt x="187" y="-22" on="0"/>
        <pt x="182" y="-15" on="1"/>
        <pt x="212" y="-16" on="0"/>
        <pt x="254" y="-16" on="0"/>
        <pt x="262" y="-15" on="1"/>
        <pt x="274" y="-15" on="0"/>
        <pt x="274" y="-3" on="1"/>
      </contour>
      <contour>
        <pt x="558" y="733" on="1"/>
        <pt x="586" y="733" on="1"/>
        <pt x="586" y="399" on="1"/>
        <pt x="586" y="346" on="0"/>
        <pt x="579" y="226" on="0"/>
        <pt x="557" y="103" on="0"/>
        <pt x="513" y="-14" on="0"/>
        <pt x="476" y="-64" on="1"/>
        <pt x="474" y="-60" on="0"/>
        <pt x="465" y="-53" on="0"/>
        <pt x="457" y="-46" on="0"/>
        <pt x="453" y="-44" on="1"/>
        <pt x="501" y="20" on="0"/>
        <pt x="545" y="174" on="0"/>
        <pt x="558" y="331" on="0"/>
        <pt x="558" y="399" on="1"/>
      </contour>
      <contour>
        <pt x="365" y="236" on="1"/>
        <pt x="390" y="246" on="1"/>
        <pt x="416" y="206" on="0"/>
        <pt x="466" y="109" on="0"/>
        <pt x="477" y="74" on="1"/>
        <pt x="451" y="62" on="1"/>
        <pt x="439" y="97" on="0"/>
        <pt x="390" y="196" on="0"/>
      </contour>
      <contour>
        <pt x="158" y="246" on="1"/>
        <pt x="187" y="239" on="1"/>
        <pt x="170" y="184" on="0"/>
        <pt x="114" y="79" on="0"/>
        <pt x="83" y="41" on="1"/>
        <pt x="79" y="45" on="0"/>
        <pt x="62" y="57" on="0"/>
        <pt x="56" y="60" on="1"/>
        <pt x="89" y="97" on="0"/>
        <pt x="141" y="194" on="0"/>
      </contour>
    </TTGlyph>
    <TTGlyph name="uni65E5" xMin="199" yMin="-60" xMax="812" yMax="755">
      <contour>
        <pt x="199" y="755" on="1"/>
        <pt x="812" y="755" on="1"/>
        <pt x="812" y="-52" on="1"/>
        <pt x="782" y="-52" on="1"/>
        <pt x="782" y="725" on="1"/>
        <pt x="229" y="725" on="1"/>
        <pt x="229" y="-60" on="1"/>
        <pt x="199" y="-60" on="1"/>
      </contour>
      <contour>
        <pt x="217" y="398" on="1"/>
        <pt x="795" y="398" on="1"/>
        <pt x="795" y="369" on="1"/>
        <pt x="217" y="369" on="1"/>
      </contour>
      <contour>
        <pt x="215" y="34" on="1"/>
        <pt x="798" y="34" on="1"/>
        <pt x="798" y="5" on="1"/>
        <pt x="215" y="5" on="1"/>
      </contour>
    </TTGlyph>
    <TTGlyph name="uni65F6" xMin="97" yMin="-65" xMax="953" yMax="826">
      <contour>
        <pt x="113" y="741" on="1"/>
        <pt x="378" y="741" on="1"/>
        <pt x="378" y="116" on="1"/>
        <pt x="113" y="116" on="1"/>
        <pt x="113" y="145" on="1"/>
        <pt x="349" y="145" on="1"/>
        <pt x="349" y="712" on="1"/>
        <pt x="113" y="712" on="1"/>
      </contour>
      <contour>
        <pt x="113" y="449" on="1"/>
        <pt x="370" y="449" on="1"/>
        <pt x="370" y="420" on="1"/>
        <pt x="113" y="420" on="1"/>
      </contour>
      <contour>
        <pt x="97" y="741" on="1"/>
        <pt x="127" y="741" on="1"/>
        <pt x="127" y="35" on="1"/>
        <pt x="97" y="35" on="1"/>
      </contour>
      <contour>
        <pt x="431" y="615" on="1"/>
        <pt x="953" y="615" on="1"/>
        <pt x="953" y="585" on="1"/>
        <pt x="431" y="585" on="1"/>
      </contour>
      <contour>
        <pt x="782" y="826" on="1"/>
        <pt x="812" y="826" on="1"/>
        <pt x="812" y="-4" on="1"/>
        <pt x="812" y="-32" on="0"/>
        <pt x="791" y="-55" on="0"/>
        <pt x="771" y="-60" on="1"/>
        <pt x="751" y="-64" on="0"/>
        <pt x="662" y="-65" on="0"/>
        <pt x="586" y="-65" on="1"/>
        <pt x="584" y="-59" on="0"/>
        <pt x="577" y="-40" on="0"/>
        <pt x="573" y="-33" on="1"/>
        <pt x="617" y="-34" on="0"/>
        <pt x="691" y="-35" on="0"/>
        <pt x="743" y="-34" on="0"/>
        <pt x="754" y="-33" on="1"/>
        <pt x="769" y="-32" on="0"/>
        <pt x="782" y="-21" on="0"/>
        <pt x="782" y="-5" on="1"/>
      </contour>
      <contour>
        <pt x="489" y="477" on="1"/>
        <pt x="514" y="489" on="1"/>
        <pt x="544" y="448" on="0"/>
        <pt x="606" y="353" on="0"/>
        <pt x="661" y="265" on="0"/>
        <pt x="678" y="233" on="1"/>
        <pt x="652" y="218" on="1"/>
        <pt x="635" y="250" on="0"/>
        <pt x="581" y="340" on="0"/>
        <pt x="519" y="436" on="0"/>
      </contour>
    </TTGlyph>
    <TTGlyph name="uni662F" xMin="48" yMin="-71" xMax="953" yMax="782">
      <contour>
        <pt x="59" y="376" on="1"/>
        <pt x="942" y="376" on="1"/>
        <pt x="942" y="347" on="1"/>
        <pt x="59" y="347" on="1"/>
      </contour>
      <contour>
        <pt x="500" y="199" on="1"/>
        <pt x="875" y="199" on="1"/>
        <pt x="875" y="170" on="1"/>
        <pt x="500" y="170" on="1"/>
      </contour>
      <contour>
        <pt x="491" y="370" on="1"/>
        <pt x="521" y="370" on="1"/>
        <pt x="521" y="-18" on="1"/>
        <pt x="491" y="-18" on="1"/>
      </contour>
      <contour>
        <pt x="253" y="205" on="1"/>
        <pt x="287" y="114" on="0"/>
        <pt x="401" y="18" on="0"/>
        <pt x="566" y="-17" on="0"/>
        <pt x="675" y="-17" on="1"/>
        <pt x="681" y="-17" on="0"/>
        <pt x="735" y="-17" on="0"/>
        <pt x="810" y="-17" on="0"/>
        <pt x="885" y="-17" on="0"/>
        <pt x="943" y="-17" on="0"/>
        <pt x="953" y="-17" on="1"/>
        <pt x="950" y="-21" on="0"/>
        <pt x="944" y="-32" on="0"/>
        <pt x="940" y="-43" on="0"/>
        <pt x="939" y="-47" on="1"/>
        <pt x="879" y="-47" on="1"/>
        <pt x="676" y="-47" on="1"/>
        <pt x="586" y="-47" on="0"/>
        <pt x="445" y="-27" on="0"/>
        <pt x="336" y="25" on="0"/>
        <pt x="256" y="118" on="0"/>
        <pt x="228" y="191" on="1"/>
      </contour>
      <contour>
        <pt x="254" y="303" on="1"/>
        <pt x="284" y="299" on="1"/>
        <pt x="261" y="173" on="0"/>
        <pt x="154" y="-11" on="0"/>
        <pt x="72" y="-71" on="1"/>
        <pt x="70" y="-68" on="0"/>
        <pt x="62" y="-60" on="0"/>
        <pt x="52" y="-52" on="0"/>
        <pt x="48" y="-50" on="1"/>
        <pt x="131" y="6" on="0"/>
        <pt x="232" y="184" on="0"/>
      </contour>
      <contour>
        <pt x="205" y="612" on="1"/>
        <pt x="205" y="498" on="1"/>
        <pt x="788" y="498" on="1"/>
        <pt x="788" y="612" on="1"/>
      </contour>
      <contour>
        <pt x="205" y="753" on="1"/>
        <pt x="205" y="641" on="1"/>
        <pt x="788" y="641" on="1"/>
        <pt x="788" y="753" on="1"/>
      </contour>
      <contour>
        <pt x="176" y="782" on="1"/>
        <pt x="818" y="782" on="1"/>
        <pt x="818" y="469" on="1"/>
        <pt x="176" y="469" on="1"/>
      </contour>
    </TTGlyph>
    <TTGlyph name="uni66F4" xMin="55" yMin="-74" xMax="956" yMax="769">
      <contour>
        <pt x="69" y="769" on="1"/>
        <pt x="929" y="769" on="1"/>
        <pt x="929" y="740" on="1"/>
        <pt x="69" y="740" on="1"/>
      </contour>
      <contour>
        <pt x="489" y="757" on="1"/>
        <pt x="519" y="757" on="1"/>
        <pt x="519" y="385" on="1"/>
        <pt x="519" y="330" on="0"/>
        <pt x="506" y="223" on="0"/>
        <pt x="461" y="123" on="0"/>
        <pt x="365" y="33" on="0"/>
        <pt x="199" y="-42" on="0"/>
        <pt x="72" y="-71" on="1"/>
        <pt x="70" y="-68" on="0"/>
        <pt x="64" y="-59" on="0"/>
        <pt x="58" y="-49" on="0"/>
        <pt x="55" y="-45" on="1"/>
        <pt x="181" y="-18" on="0"/>
        <pt x="343" y="53" on="0"/>
        <pt x="435" y="138" on="0"/>
        <pt x="478" y="233" on="0"/>
        <pt x="489" y="333" on="0"/>
        <pt x="489" y="385" on="1"/>
      </contour>
      <contour>
        <pt x="195" y="435" on="1"/>
        <pt x="195" y="297" on="1"/>
        <pt x="837" y="297" on="1"/>
        <pt x="837" y="435" on="1"/>
      </contour>
      <contour>
        <pt x="195" y="601" on="1"/>
        <pt x="195" y="465" on="1"/>
        <pt x="837" y="465" on="1"/>
        <pt x="837" y="601" on="1"/>
      </contour>
      <contour>
        <pt x="165" y="630" on="1"/>
        <pt x="868" y="630" on="1"/>
        <pt x="868" y="268" on="1"/>
        <pt x="165" y="268" on="1"/>
      </contour>
      <contour>
        <pt x="238" y="247" on="1"/>
        <pt x="281" y="166" on="0"/>
        <pt x="409" y="60" on="0"/>
        <pt x="584" y="-4" on="0"/>
        <pt x="813" y="-37" on="0"/>
        <pt x="956" y="-45" on="1"/>
        <pt x="952" y="-50" on="0"/>
        <pt x="944" y="-67" on="0"/>
        <pt x="942" y="-74" on="1"/>
        <pt x="798" y="-65" on="0"/>
        <pt x="567" y="-29" on="0"/>
        <pt x="389" y="39" on="0"/>
        <pt x="258" y="152" on="0"/>
        <pt x="215" y="237" on="1"/>
      </contour>
    </TTGlyph>
    <TTGlyph name="uni6700" xMin="51" yMin="-70" xMax="953" yMax="799">
      <contour>
        <pt x="215" y="642" on="1"/>
        <pt x="215" y="542" on="1"/>
        <pt x="794" y="542" on="1"/>
        <pt x="794" y="642" on="1"/>
      </contour>
      <contour>
        <pt x="215" y="769" on="1"/>
        <pt x="215" y="671" on="1"/>
        <pt x="794" y="671" on="1"/>
        <pt x="794" y="769" on="1"/>
      </contour>
      <contour>
        <pt x="185" y="799" on="1"/>
        <pt x="823" y="799" on="1"/>
        <pt x="823" y="513" on="1"/>
        <pt x="185" y="513" on="1"/>
      </contour>
      <contour>
        <pt x="55" y="437" on="1"/>
        <pt x="942" y="437" on="1"/>
        <pt x="942" y="408" on="1"/>
        <pt x="55" y="408" on="1"/>
      </contour>
      <contour>
        <pt x="495" y="320" on="1"/>
        <pt x="879" y="320" on="1"/>
        <pt x="879" y="290" on="1"/>
        <pt x="495" y="290" on="1"/>
      </contour>
      <contour>
        <pt x="172" y="313" on="1"/>
        <pt x="437" y="313" on="1"/>
        <pt x="437" y="283" on="1"/>
        <pt x="172" y="283" on="1"/>
      </contour>
      <contour>
        <pt x="172" y="183" on="1"/>
        <pt x="437" y="183" on="1"/>
        <pt x="437" y="154" on="1"/>
        <pt x="172" y="154" on="1"/>
      </contour>
      <contour>
        <pt x="576" y="301" on="1"/>
        <pt x="622" y="174" on="0"/>
        <pt x="818" y="-8" on="0"/>
        <pt x="953" y="-45" on="1"/>
        <pt x="948" y="-49" on="0"/>
        <pt x="937" y="-63" on="0"/>
        <pt x="933" y="-69" on="1"/>
        <pt x="798" y="-28" on="0"/>
        <pt x="599" y="160" on="0"/>
        <pt x="551" y="292" on="1"/>
      </contour>
      <contour>
        <pt x="868" y="320" on="1"/>
        <pt x="874" y="320" on="1"/>
        <pt x="881" y="322" on="1"/>
        <pt x="899" y="312" on="1"/>
        <pt x="865" y="212" on="0"/>
        <pt x="736" y="61" on="0"/>
        <pt x="575" y="-40" on="0"/>
        <pt x="492" y="-67" on="1"/>
        <pt x="490" y="-62" on="0"/>
        <pt x="480" y="-47" on="0"/>
        <pt x="475" y="-43" on="1"/>
        <pt x="554" y="-19" on="0"/>
        <pt x="712" y="78" on="0"/>
        <pt x="837" y="221" on="0"/>
        <pt x="868" y="313" on="1"/>
      </contour>
      <contour>
        <pt x="51" y="23" on="1"/>
        <pt x="109" y="29" on="0"/>
        <pt x="258" y="48" on="0"/>
        <pt x="426" y="71" on="0"/>
        <pt x="511" y="82" on="1"/>
        <pt x="511" y="56" on="1"/>
        <pt x="429" y="45" on="0"/>
        <pt x="266" y="21" on="0"/>
        <pt x="117" y="0" on="0"/>
        <pt x="57" y="-8" on="1"/>
      </contour>
      <contour>
        <pt x="420" y="428" on="1"/>
        <pt x="449" y="428" on="1"/>
        <pt x="449" y="-70" on="1"/>
        <pt x="420" y="-70" on="1"/>
      </contour>
      <contour>
        <pt x="159" y="428" on="1"/>
        <pt x="188" y="428" on="1"/>
        <pt x="188" y="23" on="1"/>
        <pt x="159" y="23" on="1"/>
      </contour>
    </TTGlyph>
    <TTGlyph name="uni6709" xMin="55" yMin="-70" xMax="932" yMax="830">
      <contour>
        <pt x="72" y="692" on="1"/>
        <pt x="932" y="692" on="1"/>
        <pt x="932" y="663" on="1"/>
        <pt x="72" y="663" on="1"/>
      </contour>
      <contour>
        <pt x="291" y="338" on="1"/>
        <pt x="795" y="338" on="1"/>
        <pt x="795" y="309" on="1"/>
        <pt x="291" y="309" on="1"/>
      </contour>
      <contour>
        <pt x="274" y="510" on="1"/>
        <pt x="789" y="510" on="1"/>
        <pt x="789" y="480" on="1"/>
        <pt x="303" y="480" on="1"/>
        <pt x="303" y="-70" on="1"/>
        <pt x="274" y="-70" on="1"/>
      </contour>
      <contour>
        <pt x="779" y="510" on="1"/>
        <pt x="809" y="510" on="1"/>
        <pt x="809" y="-13" on="1"/>
        <pt x="809" y="-35" on="0"/>
        <pt x="795" y="-56" on="0"/>
        <pt x="775" y="-61" on="1"/>
        <pt x="756" y="-65" on="0"/>
        <pt x="673" y="-65" on="0"/>
        <pt x="605" y="-65" on="1"/>
        <pt x="604" y="-59" on="0"/>
        <pt x="596" y="-42" on="0"/>
        <pt x="592" y="-35" on="1"/>
        <pt x="633" y="-36" on="0"/>
        <pt x="699" y="-37" on="0"/>
        <pt x="746" y="-36" on="0"/>
        <pt x="756" y="-36" on="1"/>
        <pt x="770" y="-35" on="0"/>
        <pt x="779" y="-25" on="0"/>
        <pt x="779" y="-13" on="1"/>
      </contour>
      <contour>
        <pt x="417" y="830" on="1"/>
        <pt x="445" y="822" on="1"/>
        <pt x="412" y="716" on="0"/>
        <pt x="309" y="509" on="0"/>
        <pt x="165" y="329" on="0"/>
        <pt x="72" y="262" on="1"/>
        <pt x="71" y="266" on="0"/>
        <pt x="64" y="274" on="0"/>
        <pt x="58" y="282" on="0"/>
        <pt x="55" y="285" on="1"/>
        <pt x="123" y="333" on="0"/>
        <pt x="236" y="457" on="0"/>
        <pt x="327" y="599" on="0"/>
        <pt x="395" y="752" on="0"/>
      </contour>
      <contour>
        <pt x="291" y="165" on="1"/>
        <pt x="795" y="165" on="1"/>
        <pt x="795" y="135" on="1"/>
        <pt x="291" y="135" on="1"/>
      </contour>
    </TTGlyph>
    <TTGlyph name="uni672C" xMin="51" yMin="-70" xMax="958" yMax="829">
      <contour>
        <pt x="71" y="603" on="1"/>
        <pt x="931" y="603" on="1"/>
        <pt x="931" y="573" on="1"/>
        <pt x="71" y="573" on="1"/>
      </contour>
      <contour>
        <pt x="227" y="165" on="1"/>
        <pt x="774" y="165" on="1"/>
        <pt x="774" y="135" on="1"/>
        <pt x="227" y="135" on="1"/>
      </contour>
      <contour>
        <pt x="484" y="829" on="1"/>
        <pt x="514" y="829" on="1"/>
        <pt x="514" y="-70" on="1"/>
        <pt x="484" y="-70" on="1"/>
      </contour>
      <contour>
        <pt x="440" y="597" on="1"/>
        <pt x="466" y="587" on="1"/>
        <pt x="425" y="485" on="0"/>
        <pt x="300" y="297" on="0"/>
        <pt x="151" y="145" on="0"/>
        <pt x="73" y="98" on="1"/>
        <pt x="71" y="102" on="0"/>
        <pt x="63" y="111" on="0"/>
        <pt x="55" y="119" on="0"/>
        <pt x="51" y="122" on="1"/>
        <pt x="129" y="165" on="0"/>
        <pt x="277" y="313" on="0"/>
        <pt x="401" y="499" on="0"/>
      </contour>
      <contour>
        <pt x="556" y="594" on="1"/>
        <pt x="595" y="494" on="0"/>
        <pt x="720" y="309" on="0"/>
        <pt x="875" y="164" on="0"/>
        <pt x="958" y="123" on="1"/>
        <pt x="954" y="120" on="0"/>
        <pt x="946" y="112" on="0"/>
        <pt x="939" y="103" on="0"/>
        <pt x="936" y="99" on="1"/>
        <pt x="853" y="143" on="0"/>
        <pt x="699" y="293" on="0"/>
        <pt x="572" y="482" on="0"/>
        <pt x="531" y="585" on="1"/>
      </contour>
    </TTGlyph>
    <TTGlyph name="uni751F" xMin="60" yMin="-35" xMax="943" yMax="830">
      <contour>
        <pt x="210" y="623" on="1"/>
        <pt x="899" y="623" on="1"/>
        <pt x="899" y="594" on="1"/>
        <pt x="210" y="594" on="1"/>
      </contour>
      <contour>
        <pt x="163" y="331" on="1"/>
        <pt x="865" y="331" on="1"/>
        <pt x="865" y="302" on="1"/>
        <pt x="163" y="302" on="1"/>
      </contour>
      <contour>
        <pt x="60" y="-6" on="1"/>
        <pt x="943" y="-6" on="1"/>
        <pt x="943" y="-35" on="1"/>
        <pt x="60" y="-35" on="1"/>
      </contour>
      <contour>
        <pt x="487" y="830" on="1"/>
        <pt x="517" y="830" on="1"/>
        <pt x="517" y="-21" on="1"/>
        <pt x="487" y="-21" on="1"/>
      </contour>
      <contour>
        <pt x="269" y="810" on="1"/>
        <pt x="298" y="804" on="1"/>
        <pt x="277" y="727" on="0"/>
        <pt x="218" y="583" on="0"/>
        <pt x="146" y="459" on="0"/>
        <pt x="105" y="411" on="1"/>
        <pt x="102" y="414" on="0"/>
        <pt x="92" y="420" on="0"/>
        <pt x="82" y="427" on="0"/>
        <pt x="78" y="428" on="1"/>
        <pt x="121" y="475" on="0"/>
        <pt x="192" y="596" on="0"/>
        <pt x="249" y="736" on="0"/>
      </contour>
    </TTGlyph>
    <TTGlyph name="uni7528" xMin="41" yMin="-75" xMax="872" yMax="757">
      <contour>
        <pt x="181" y="757" on="1"/>
        <pt x="861" y="757" on="1"/>
        <pt x="861" y="727" on="1"/>
        <pt x="181" y="727" on="1"/>
      </contour>
      <contour>
        <pt x="181" y="521" on="1"/>
        <pt x="856" y="521" on="1"/>
        <pt x="856" y="491" on="1"/>
        <pt x="181" y="491" on="1"/>
      </contour>
      <contour>
        <pt x="172" y="279" on="1"/>
        <pt x="856" y="279" on="1"/>
        <pt x="856" y="250" on="1"/>
        <pt x="172" y="250" on="1"/>
      </contour>
      <contour>
        <pt x="165" y="757" on="1"/>
        <pt x="194" y="757" on="1"/>
        <pt x="194" y="391" on="1"/>
        <pt x="194" y="337" on="0"/>
        <pt x="185" y="215" on="0"/>
        <pt x="159" y="91" on="0"/>
        <pt x="107" y="-25" on="0"/>
        <pt x="63" y="-75" on="1"/>
        <pt x="61" y="-71" on="0"/>
        <pt x="53" y="-63" on="0"/>
        <pt x="45" y="-56" on="0"/>
        <pt x="41" y="-54" on="1"/>
        <pt x="83" y="-6" on="0"/>
        <pt x="133" y="105" on="0"/>
        <pt x="157" y="222" on="0"/>
        <pt x="165" y="338" on="0"/>
        <pt x="165" y="391" on="1"/>
      </contour>
      <contour>
        <pt x="843" y="757" on="1"/>
        <pt x="872" y="757" on="1"/>
        <pt x="872" y="-7" on="1"/>
        <pt x="872" y="-32" on="0"/>
        <pt x="855" y="-56" on="0"/>
        <pt x="835" y="-61" on="1"/>
        <pt x="816" y="-65" on="0"/>
        <pt x="729" y="-66" on="0"/>
        <pt x="655" y="-65" on="1"/>
        <pt x="654" y="-60" on="0"/>
        <pt x="646" y="-42" on="0"/>
        <pt x="642" y="-35" on="1"/>
        <pt x="684" y="-36" on="0"/>
        <pt x="756" y="-36" on="0"/>
        <pt x="806" y="-35" on="0"/>
        <pt x="816" y="-35" on="1"/>
        <pt x="831" y="-34" on="0"/>
        <pt x="843" y="-23" on="0"/>
        <pt x="843" y="-8" on="1"/>
      </contour>
      <contour>
        <pt x="485" y="748" on="1"/>
        <pt x="515" y="748" on="1"/>
        <pt x="515" y="-64" on="1"/>
        <pt x="485" y="-64" on="1"/>
      </contour>
    </TTGlyph>
    <TTGlyph name="uni7684" xMin="100" yMin="-48" xMax="913" yMax="839">
      <contour>
        <pt x="119" y="671" on="1"/>
        <pt x="420" y="671" on="1"/>
        <pt x="420" y="37" on="1"/>
        <pt x="119" y="37" on="1"/>
        <pt x="119" y="67" on="1"/>
        <pt x="390" y="67" on="1"/>
        <pt x="390" y="642" on="1"/>
        <pt x="119" y="642" on="1"/>
      </contour>
      <contour>
        <pt x="100" y="671" on="1"/>
        <pt x="130" y="671" on="1"/>
        <pt x="130" y="-48" on="1"/>
        <pt x="100" y="-48" on="1"/>
      </contour>
      <contour>
        <pt x="114" y="382" on="1"/>
        <pt x="410" y="382" on="1"/>
        <pt x="410" y="353" on="1"/>
        <pt x="114" y="353" on="1"/>
      </contour>
      <contour>
        <pt x="264" y="834" on="1"/>
        <pt x="295" y="824" on="1"/>
        <pt x="282" y="782" on="0"/>
        <pt x="248" y="689" on="0"/>
        <pt x="233" y="657" on="1"/>
        <pt x="208" y="666" on="1"/>
        <pt x="218" y="689" on="0"/>
        <pt x="239" y="748" on="0"/>
        <pt x="258" y="810" on="0"/>
      </contour>
      <contour>
        <pt x="573" y="670" on="1"/>
        <pt x="895" y="670" on="1"/>
        <pt x="895" y="640" on="1"/>
        <pt x="573" y="640" on="1"/>
      </contour>
      <contour>
        <pt x="883" y="670" on="1"/>
        <pt x="913" y="670" on="1"/>
        <pt x="913" y="670" on="0"/>
        <pt x="913" y="661" on="0"/>
        <pt x="913" y="650" on="0"/>
        <pt x="913" y="647" on="1"/>
        <pt x="906" y="472" on="0"/>
        <pt x="893" y="232" on="0"/>
        <pt x="876" y="81" on="0"/>
        <pt x="855" y="0" on="0"/>
        <pt x="840" y="-17" on="1"/>
        <pt x="827" y="-32" on="0"/>
        <pt x="799" y="-43" on="0"/>
        <pt x="776" y="-44" on="1"/>
        <pt x="754" y="-45" on="0"/>
        <pt x="676" y="-42" on="0"/>
        <pt x="635" y="-39" on="1"/>
        <pt x="634" y="-31" on="0"/>
        <pt x="630" y="-15" on="0"/>
        <pt x="625" y="-10" on="1"/>
        <pt x="675" y="-14" on="0"/>
        <pt x="756" y="-16" on="0"/>
        <pt x="772" y="-16" on="1"/>
        <pt x="787" y="-16" on="0"/>
        <pt x="807" y="-11" on="0"/>
        <pt x="814" y="-1" on="1"/>
        <pt x="827" y="13" on="0"/>
        <pt x="847" y="94" on="0"/>
        <pt x="863" y="246" on="0"/>
        <pt x="877" y="487" on="0"/>
        <pt x="883" y="661" on="1"/>
      </contour>
      <contour>
        <pt x="611" y="839" on="1"/>
        <pt x="640" y="833" on="1"/>
        <pt x="623" y="758" on="0"/>
        <pt x="576" y="617" on="0"/>
        <pt x="518" y="494" on="0"/>
        <pt x="483" y="446" on="1"/>
        <pt x="481" y="448" on="0"/>
        <pt x="471" y="454" on="0"/>
        <pt x="461" y="460" on="0"/>
        <pt x="457" y="462" on="1"/>
        <pt x="492" y="509" on="0"/>
        <pt x="550" y="629" on="0"/>
        <pt x="595" y="767" on="0"/>
      </contour>
      <contour>
        <pt x="568" y="439" on="1"/>
        <pt x="591" y="453" on="1"/>
        <pt x="623" y="417" on="0"/>
        <pt x="689" y="332" on="0"/>
        <pt x="744" y="253" on="0"/>
        <pt x="761" y="223" on="1"/>
        <pt x="735" y="205" on="1"/>
        <pt x="719" y="236" on="0"/>
        <pt x="664" y="317" on="0"/>
        <pt x="599" y="403" on="0"/>
      </contour>
    </TTGlyph>
    <TTGlyph name="uni81EA" xMin="182" yMin="-73" xMax="835" yMax="833">
      <contour>
        <pt x="202" y="462" on="1"/>
        <pt x="820" y="462" on="1"/>
        <pt x="820" y="432" on="1"/>
        <pt x="202" y="432" on="1"/>
      </contour>
      <contour>
        <pt x="202" y="241" on="1"/>
        <pt x="820" y="241" on="1"/>
        <pt x="820" y="212" on="1"/>
        <pt x="202" y="212" on="1"/>
      </contour>
      <contour>
        <pt x="202" y="19" on="1"/>
        <pt x="820" y="19" on="1"/>
        <pt x="820" y="-11" on="1"/>
        <pt x="202" y="-11" on="1"/>
      </contour>
      <contour>
        <pt x="182" y="687" on="1"/>
        <pt x="835" y="687" on="1"/>
        <pt x="835" y="-65" on="1"/>
        <pt x="806" y="-65" on="1"/>
        <pt x="806" y="658" on="1"/>
        <pt x="212" y="658" on="1"/>
        <pt x="212" y="-73" on="1"/>
        <pt x="182" y="-73" on="1"/>
      </contour>
      <contour>
        <pt x="483" y="833" on="1"/>
        <pt x="512" y="825" on="1"/>
        <pt x="497" y="785" on="0"/>
        <pt x="464" y="698" on="0"/>
        <pt x="447" y="666" on="1"/>
        <pt x="423" y="672" on="1"/>
        <pt x="433" y="694" on="0"/>
        <pt x="456" y="752" on="0"/>
        <pt x="477" y="810" on="0"/>
      </contour>
    </TTGlyph>
    <TTGlyph name="uni9996" xMin="59" yMin="-70" xMax="942" yMax="831">
      <contour>
        <pt x="210" y="369" on="1"/>
        <pt x="797" y="369" on="1"/>
        <pt x="797" y="339" on="1"/>
        <pt x="210" y="339" on="1"/>
      </contour>
      <contour>
        <pt x="210" y="199" on="1"/>
        <pt x="797" y="199" on="1"/>
        <pt x="797" y="170" on="1"/>
        <pt x="210" y="170" on="1"/>
      </contour>
      <contour>
        <pt x="210" y="27" on="1"/>
        <pt x="802" y="27" on="1"/>
        <pt x="802" y="-3" on="1"/>
        <pt x="210" y="-3" on="1"/>
      </contour>
      <contour>
        <pt x="59" y="688" on="1"/>
        <pt x="942" y="688" on="1"/>
        <pt x="942" y="659" on="1"/>
        <pt x="59" y="659" on="1"/>
      </contour>
      <contour>
        <pt x="189" y="535" on="1"/>
        <pt x="817" y="535" on="1"/>
        <pt x="817" y="-70" on="1"/>
        <pt x="787" y="-70" on="1"/>
        <pt x="787" y="506" on="1"/>
        <pt x="219" y="506" on="1"/>
        <pt x="219" y="-70" on="1"/>
        <pt x="189" y="-70" on="1"/>
      </contour>
      <contour>
        <pt x="488" y="682" on="1"/>
        <pt x="520" y="673" on="1"/>
        <pt x="509" y="633" on="0"/>
        <pt x="487" y="542" on="0"/>
        <pt x="476" y="510" on="1"/>
        <pt x="448" y="518" on="1"/>
        <pt x="456" y="540" on="0"/>
        <pt x="471" y="599" on="0"/>
        <pt x="484" y="659" on="0"/>
      </contour>
      <contour>
        <pt x="731" y="831" on="1"/>
        <pt x="759" y="817" on="1"/>
        <pt x="734" y="780" on="0"/>
        <pt x="672" y="700" on="0"/>
        <pt x="644" y="670" on="1"/>
        <pt x="621" y="683" on="1"/>
        <pt x="639" y="703" on="0"/>
        <pt x="680" y="755" on="0"/>
        <pt x="718" y="809" on="0"/>
      </contour>
      <contour>
        <pt x="251" y="820" on="1"/>
        <pt x="276" y="831" on="1"/>
        <pt x="303" y="804" on="0"/>
        <pt x="355" y="736" on="0"/>
        <pt x="368" y="711" on="1"/>
        <pt x="341" y="697" on="1"/>
        <pt x="328" y="723" on="0"/>
        <pt x="277" y="792" on="0"/>
      </contour>
    </TTGlyph>
    <TTGlyph name="uni9AD8" xMin="64" yMin="-69" xMax="933" yMax="830">
      <contour>
        <pt x="64" y="715" on="1"/>
        <pt x="933" y="715" on="1"/>
        <pt x="933" y="685" on="1"/>
        <pt x="64" y="685" on="1"/>
      </contour>
      <contour>
        <pt x="264" y="581" on="1"/>
        <pt x="264" y="454" on="1"/>
        <pt x="741" y="454" on="1"/>
        <pt x="741" y="581" on="1"/>
      </contour>
      <contour>
        <pt x="234" y="611" on="1"/>
        <pt x="770" y="611" on="1"/>
        <pt x="770" y="425" on="1"/>
        <pt x="234" y="425" on="1"/>
      </contour>
      <contour>
        <pt x="109" y="353" on="1"/>
        <pt x="878" y="353" on="1"/>
        <pt x="878" y="324" on="1"/>
        <pt x="138" y="324" on="1"/>
        <pt x="138" y="-69" on="1"/>
        <pt x="109" y="-69" on="1"/>
      </contour>
      <contour>
        <pt x="862" y="353" on="1"/>
        <pt x="891" y="353" on="1"/>
        <pt x="891" y="-21" on="1"/>
        <pt x="891" y="-37" on="0"/>
        <pt x="882" y="-52" on="0"/>
        <pt x="869" y="-57" on="1"/>
        <pt x="857" y="-61" on="0"/>
        <pt x="806" y="-62" on="0"/>
        <pt x="762" y="-62" on="1"/>
        <pt x="761" y="-56" on="0"/>
        <pt x="754" y="-41" on="0"/>
        <pt x="750" y="-36" on="1"/>
        <pt x="774" y="-36" on="0"/>
        <pt x="814" y="-36" on="0"/>
        <pt x="842" y="-36" on="0"/>
        <pt x="847" y="-36" on="1"/>
        <pt x="862" y="-35" on="0"/>
        <pt x="862" y="-22" on="1"/>
      </contour>
      <contour>
        <pt x="464" y="826" on="1"/>
        <pt x="486" y="830" on="1"/>
        <pt x="499" y="798" on="0"/>
        <pt x="523" y="724" on="0"/>
        <pt x="528" y="701" on="1"/>
        <pt x="505" y="692" on="1"/>
        <pt x="499" y="718" on="0"/>
        <pt x="475" y="794" on="0"/>
      </contour>
      <contour>
        <pt x="301" y="242" on="1"/>
        <pt x="699" y="242" on="1"/>
        <pt x="699" y="54" on="1"/>
        <pt x="301" y="54" on="1"/>
        <pt x="301" y="83" on="1"/>
        <pt x="670" y="83" on="1"/>
        <pt x="670" y="213" on="1"/>
        <pt x="301" y="213" on="1"/>
      </contour>
      <contour>
        <pt x="288" y="242" on="1"/>
        <pt x="318" y="242" on="1"/>
        <pt x="318" y="-5" on="1"/>
        <pt x="288" y="-5" on="1"/>
      </contour>
    </TTGlyph>
    <TTGlyph name="uniFF0C" xMin="108" yMin="-76" xMax="269" yMax="228">
      <contour>
        <pt x="121" y="-76" on="1"/>
        <pt x="108" y="-51" on="1"/>
        <pt x="168" y="-20" on="0"/>
        <pt x="231" y="66" on="0"/>
        <pt x="231" y="136" on="1"/>
        <pt x="201" y="206" on="1"/>
        <pt x="254" y="144" on="1"/>
        <pt x="244" y="129" on="0"/>
        <pt x="219" y="121" on="0"/>
        <pt x="207" y="121" on="1"/>
        <pt x="183" y="121" on="0"/>
        <pt x="153" y="146" on="0"/>
        <pt x="153" y="174" on="1"/>
        <pt x="153" y="203" on="0"/>
        <pt x="186" y="228" on="0"/>
        <pt x="206" y="228" on="1"/>
        <pt x="237" y="228" on="0"/>
        <pt x="269" y="177" on="0"/>
        <pt x="269" y="135" on="1"/>
        <pt x="269" y="58" on="0"/>
        <pt x="186" y="-49" on="0"/>
      </contour>
    </TTGlyph>
    <TTGlyph name="uniFF1A" xMin="194" yMin="0" xMax="306" yMax="614">
      <contour>
        <pt x="250" y="502" on="1"/>
        <pt x="229" y="502" on="0"/>
        <pt x="194" y="530" on="0"/>
        <pt x="194" y="558" on="1"/>
        <pt x="194" y="586" on="0"/>
        <pt x="229" y="614" on="0"/>
        <pt x="250" y="614" on="1"/>
        <pt x="271" y="614" on="0"/>
        <pt x="306" y="586" on="0"/>
        <pt x="306" y="558" on="1"/>
        <pt x="306" y="530" on="0"/>
        <pt x="271" y="502" on="0"/>
      </contour>
      <contour>
        <pt x="250" y="0" on="1"/>
        <pt x="229" y="0" on="0"/>
        <pt x="194" y="28" on="0"/>
        <pt x="194" y="56" on="1"/>
        <pt x="194" y="84" on="0"/>
        <pt x="229" y="112" on="0"/>
        <pt x="250" y="112" on="1"/>
        <pt x="271" y="112" on="0"/>
        <pt x="306" y="84" on="0"/>
        <pt x="306" y="56" on="1"/>
        <pt x="306" y="28" on="0"/>
        <pt x="271" y="0" on="0"/>
      </contour>
    </TTGlyph>
    <TTGlyph name="v" xMin="13" yMin="0" xMax="453" yMax="527">
      <contour>
        <pt x="213" y="0" on="1"/>
        <pt x="13" y="527" on="1"/>
        <pt x="53" y="527" on="1"/>
        <pt x="177" y="187" on="1"/>
        <pt x="191" y="149" on="0"/>
        <pt x="219" y="72" on="0"/>
        <pt x="232" y="37" on="1"/>
        <pt x="236" y="37" on="1"/>
        <pt x="250" y="72" on="0"/>
        <pt x="278" y="149" on="0"/>
        <pt x="291" y="187" on="1"/>
        <pt x="416" y="527" on="1"/>
        <pt x="453" y="527" on="1"/>
        <pt x="256" y="0" on="1"/>
      </contour>
    </TTGlyph>
    <TTGlyph name="w" xMin="26" yMin="0" xMax="716" yMax="527">
      <contour>
        <pt x="185" y="0" on="1"/>
        <pt x="26" y="527" on="1"/>
        <pt x="66" y="527" on="1"/>
        <pt x="167" y="174" on="1"/>
        <pt x="176" y="137" on="0"/>
        <pt x="195" y="70" on="0"/>
        <pt x="203" y="35" on="1"/>
        <pt x="208" y="35" on="1"/>
        <pt x="218" y="70" on="0"/>
        <pt x="237" y="137" on="0"/>
        <pt x="247" y="174" on="1"/>
        <pt x="348" y="527" on="1"/>
        <pt x="396" y="527" on="1"/>
        <pt x="497" y="174" on="1"/>
        <pt x="507" y="137" on="0"/>
        <pt x="527" y="70" on="0"/>
        <pt x="537" y="35" on="1"/>
        <pt x="541" y="35" on="1"/>
        <pt x="550" y="70" on="0"/>
        <pt x="570" y="137" on="0"/>
        <pt x="580" y="174" on="1"/>
        <pt x="678" y="527" on="1"/>
        <pt x="716" y="527" on="1"/>
        <pt x="562" y="0" on="1"/>
        <pt x="513" y="0" on="1"/>
        <pt x="415" y="341" on="1"/>
        <pt x="403" y="379" on="0"/>
        <pt x="384" y="453" on="0"/>
        <pt x="373" y="491" on="1"/>
        <pt x="368" y="491" on="1"/>
        <pt x="358" y="453" on="0"/>
        <pt x="338" y="377" on="0"/>
        <pt x="325" y="339" on="1"/>
        <pt x="229" y="0" on="1"/>
      </contour>
    </TTGlyph>
    <TTGlyph name="x" xMin="15" yMin="0" xMax="419" yMax="527">
      <contour>
        <pt x="15" y="0" on="1"/>
        <pt x="196" y="275" on="1"/>
        <pt x="31" y="527" on="1"/>
        <pt x="71" y="527" on="1"/>
        <pt x="160" y="387" on="1"/>
        <pt x="174" y="365" on="0"/>
        <pt x="203" y="323" on="0"/>
        <pt x="218" y="300" on="1"/>
        <pt x="222" y="300" on="1"/>
        <pt x="236" y="323" on="0"/>
        <pt x="263" y="365" on="0"/>
        <pt x="278" y="387" on="1"/>
        <pt x="365" y="527" on="1"/>
        <pt x="403" y="527" on="1"/>
        <pt x="238" y="273" on="1"/>
        <pt x="419" y="0" on="1"/>
        <pt x="378" y="0" on="1"/>
        <pt x="280" y="151" on="1"/>
        <pt x="266" y="176" on="0"/>
        <pt x="234" y="225" on="0"/>
        <pt x="217" y="248" on="1"/>
        <pt x="212" y="248" on="1"/>
        <pt x="196" y="225" on="0"/>
        <pt x="165" y="176" on="0"/>
        <pt x="149" y="151" on="1"/>
        <pt x="54" y="0" on="1"/>
      </contour>
    </TTGlyph>
    <TTGlyph name="y" xMin="13" yMin="-244" xMax="455" yMax="527">
      <contour>
        <pt x="74" y="-244" on="1"/>
        <pt x="61" y="-244" on="0"/>
        <pt x="33" y="-238" on="0"/>
        <pt x="23" y="-233" on="1"/>
        <pt x="32" y="-200" on="1"/>
        <pt x="40" y="-204" on="0"/>
        <pt x="64" y="-209" on="0"/>
        <pt x="76" y="-209" on="1"/>
        <pt x="126" y="-209" on="0"/>
        <pt x="194" y="-124" on="0"/>
        <pt x="216" y="-61" on="1"/>
        <pt x="231" y="-12" on="1"/>
        <pt x="13" y="527" on="1"/>
        <pt x="53" y="527" on="1"/>
        <pt x="186" y="183" on="1"/>
        <pt x="199" y="149" on="0"/>
        <pt x="230" y="70" on="0"/>
        <pt x="245" y="35" on="1"/>
        <pt x="250" y="35" on="1"/>
        <pt x="263" y="70" on="0"/>
        <pt x="289" y="149" on="0"/>
        <pt x="300" y="183" on="1"/>
        <pt x="418" y="527" on="1"/>
        <pt x="455" y="527" on="1"/>
        <pt x="245" y="-74" on="1"/>
        <pt x="232" y="-115" on="0"/>
        <pt x="186" y="-193" on="0"/>
        <pt x="120" y="-244" on="0"/>
      </contour>
    </TTGlyph>
    <TTGlyph name="z" xMin="29" yMin="0" xMax="409" yMax="527">
      <contour>
        <pt x="29" y="0" on="1"/>
        <pt x="29" y="19" on="1"/>
        <pt x="351" y="494" on="1"/>
        <pt x="64" y="494" on="1"/>
        <pt x="64" y="527" on="1"/>
        <pt x="398" y="527" on="1"/>
        <pt x="398" y="507" on="1"/>
        <pt x="76" y="33" on="1"/>
        <pt x="409" y="33" on="1"/>
        <pt x="409" y="0" on="1"/>
      </contour>
    </TTGlyph>
    <TTGlyph name="zero" xMin="55" yMin="-13" xMax="466" yMax="739">
      <contour>
        <pt x="261" y="-13" on="1"/>
        <pt x="197" y="-13" on="0"/>
        <pt x="104" y="69" on="0"/>
        <pt x="55" y="237" on="0"/>
        <pt x="55" y="365" on="1"/>
        <pt x="55" y="492" on="0"/>
        <pt x="104" y="657" on="0"/>
        <pt x="197" y="739" on="0"/>
        <pt x="261" y="739" on="1"/>
        <pt x="325" y="739" on="0"/>
        <pt x="416" y="657" on="0"/>
        <pt x="466" y="492" on="0"/>
        <pt x="466" y="365" on="1"/>
        <pt x="466" y="237" on="0"/>
        <pt x="416" y="69" on="0"/>
        <pt x="325" y="-13" on="0"/>
      </contour>
      <contour>
        <pt x="261" y="20" on="1"/>
        <pt x="312" y="20" on="0"/>
        <pt x="388" y="100" on="0"/>
        <pt x="429" y="254" on="0"/>
        <pt x="429" y="365" on="1"/>
        <pt x="429" y="475" on="0"/>
        <pt x="388" y="628" on="0"/>
        <pt x="312" y="707" on="0"/>
        <pt x="261" y="707" on="1"/>
        <pt x="210" y="707" on="0"/>
        <pt x="134" y="628" on="0"/>
        <pt x="92" y="475" on="0"/>
        <pt x="92" y="365" on="1"/>
        <pt x="92" y="254" on="0"/>
        <pt x="134" y="100" on="0"/>
        <pt x="210" y="20" on="0"/>
      </contour>
    </TTGlyph>
</ttFont>
